<mxfile host="Electron" agent="Mozilla/5.0 (Macintosh; Intel Mac OS X 10_15_7) AppleWebKit/537.36 (KHTML, like Gecko) draw.io/26.1.1 Chrome/132.0.6834.210 Electron/34.3.3 Safari/537.36" version="26.1.1">
  <diagram name="Seite-1" id="mCYDCHT_8TVdheqEHjv0">
    <mxGraphModel dx="763" dy="539" grid="1" gridSize="10" guides="1" tooltips="1" connect="1" arrows="1" fold="1" page="1" pageScale="1" pageWidth="827" pageHeight="1169" math="0" shadow="0">
      <root>
        <mxCell id="0" />
        <mxCell id="1" parent="0" />
        <mxCell id="STuEv-9gv8D8HQvSWGIb-1" value="" style="shape=image;verticalLabelPosition=bottom;labelBackgroundColor=default;verticalAlign=top;aspect=fixed;imageAspect=0;image=data:image/png,iVBORw0KGgoAAAANSUhEUgAABgwAAAKYCAIAAAAgykSPAAAAAXNSR0IArs4c6QAAAERlWElmTU0AKgAAAAgAAYdpAAQAAAABAAAAGgAAAAAAA6ABAAMAAAABAAEAAKACAAQAAAABAAAGDKADAAQAAAABAAACmAAAAAB0PmYDAABAAElEQVR4AeydBWAURxuGI7i7BQnB3Z3i7hQp7lpaSrHS0vZvgSItTrFCi7u7u7tbQkhwdyf2v3vfZbJcLuFC7mL3XtNjdnb0WbnZd7/5xjEgIMCBHxIgARIgARIgARIgARIgARIgARIgARIgAfsm4GTf3WfvSYAESIAESIAESIAESIAESIAESIAESIAENAIUiXgekAAJkAAJkAAJkAAJkAAJkAAJkAAJkAAJUCTiOUACJEACJEACJEACJEACJEACJEACJEACJEBLIp4DJEACJEACJEACJEACJEACJEACJEACJEACIMDpZjwNSIAESIAESIAESIAESIAESIAESIAESIAEKBLxHCABEiABEiABEiABEiABEiABEiABEiABEqAlEc8BEiABEiABEiABEiABEiABEiABEiABEiABEOB0M54GJEACJEACJEACJEACJEACJEACJEACJEACFIl4DpAACZAACZAACZAACZAACZAACZAACZAACdCSiOcACZAACZAACZAACZAACZAACZAACZAACZAACHC6GU8DEiABEiABEiABEiABEiABEiABEiABEiABikQ8B0iABEiABEiABEiABEiABEiABEiABEiABGhJxHOABEiABEiABEiABEiABEiABEiABEiABEgABDjdjKcBCZAACZAACZAACZAACZAACZAACZAACZAARSKeAyRAAiRAAiRAAiRAAiRAAiRAAiRAAiRAArQk4jlAAiRAAiRAAiRAAiRAAiRAAiRAAiRAAiQAApxuxtOABEiABEiABEiABEiABEiABEiABEiABEiAIhHPARIgARIgARIgARIgARIgARIgARIgARIgAVoS8RwgARIgARIgARIgARIgARIgARIgARIgARIAAU4342lAAiRAAiRAAiRAAiRAAiRAAiRAAiRAAiRAkYjnAAmQAAmQAAmQAAmQAAmQAAmQAAmQAAmQAC2JeA6QAAmQAAmQAAmQAAmQAAmQAAmQAAmQAAmAAKeb8TQgARIgARIgARIgARIgARIgARIgARIgARKgSMRzgARIgARIgARIgARIgARIgARIgARIgARIgJZEPAdIgARIgARIgARIgARIgARIgARIgARIgARAgNPNeBqQAAmQAAmQAAmQAAmQAAmQAAmQAAmQAAlQJOI5QAIkQAIkQAIkQAIkQAIkQAIkQAIkQAIkQEsingMkQAIkQAIkQAIkQAIkQAIkQAIkQAIkQAIgEIsUSIAESIAESIAESIAESMACAgEWpGESEiABEiABEojxBBxjcA9jmkgUEODgH4CP8VsLOTgYvmLwQWTXSIAESIAESCDMBBwNwxtH7ePgpPsOc0HMEMMIBPg5OPg7yLcWwFAKf/4xrJfsDgmQAAmQAAmEjwD8Ozs6aMMp/Dk5ODoHfkd7/chRZJTw0Ynk3FCF/P0d/P0DRB6K5NawehIgARIgARKItgREMHJycnRy0pSjaNsPNjyMBAJ8HfDn4OcQ4BPGnExOAiRAAiRAAiSgJ+Ds4BhL04zwHT19QEdjkQiqkJ/hj4ZC+lOSYRIgARIgARKwCgFoRM5OjviDZmSVAllIlCMASUj7gzxEQ6Eod3DYIBIgARIggWhPQFOLYmt/0Uotin4iESQhaEO++J/z4qP9RcMOkAAJkAAJRAMCUItiOTtBLaJpUTQ4WpY0EVPJAj44BLy3JC3TkAAJkAAJkAAJhJeASEWOccJbToTkj04iEUyHfGE65EdxKEJODVZCAiRAAiRAAh8TcHZ2jOXsyGloH1OJVlua3RDkIc4pi1ZHjY0lARIgARKIIQTguiiugxOkoihtox09RCJNHvLTJpfFkHOD3SABEiABEiCBaEsAJkWxYlEqim7HT5OH3htmlkW3lrO9JEACJEACJBDDCDjGc3CKG2WloqguEmFOmY+fP62HYthFwe6QAAmQAAlEdwIwKcIcNE5AiwbHUXNKDXmI1kPR4FixiSRAAiRAAnZDAEuExNUMi6LeJ0qLRLAe8vGlJ8Wod9awRSRAAiRAAiRgIBA7lhPUIsKIqgQCHPzf0fdQVD06bBcJkAAJkIDdE9A8W8czrIMWhVBEUZEIXql9fLGwPeeXRaFzhU0hARIgARIggeAEsPZZbM4+C84l0mPgewgKEZcti/QDwQaQAAmQAAmQQOgENEdF8UNPEpF7o6JIRAOiiDwDWBcJkAAJkAAJhJ8ATYrCz9B6JdCAyHosWRIJkAAJkAAJRAQBZ00ngmFRFPhEOZHog48/HVRHgRODTSABEiABEiCBsBGAh6I4sZ3CloeprU4Ay9v7v3Vw8LV6wSyQBEiABEiABEjAtgQ0nSjyvRRFIZFIm2LmE4Bv23Jn6SRAAiRAAiRAArYhAEfWsWNz4TPbwLWkVG2K2RtLEjINCZAACZAACZBAVCQQBaaeRRWRCNZDsCGKigeJbSIBEiABEiABErCYALxYw54IjooszsGEViKAJcw0GyJ+SIAESIAESIAEojMBx9gOTgkcHCJtKBUlRCIqRNH5FGbbSYAESIAESMCUAHQizD4zjeW27Qhoq5jBTTU/JEACJEACJEAC0Z8AnBNpOlHkzOKPfJHIzy/gA9e5j/6nMXtAAiRAAiRAAnoCcWI5OTtTJ9IjsVkYBkQwI+KHBEiABEiABEgg5hBwdnBOGCk6UeRIU+rAUSFSKBggARIgARIggZhEAG+AuBJFRBxQKkQRQZl1kAAJkAAJkEAEE/Bz8Hvt4BAJPnkiUyTSZpnRhiiCzzRWRwIkQAIkQAIRRYArltqctDbLjDZENsfMCkiABEiABEggMghgxVKsRxHRS3tFmkjkT0/VkXGWsU4SIAESIAESiEgC0Im4bqmtgEMeoh8iW8FluSRAAiRAAiQQBQgE+Eb8uqWRIxJhmXvaEEWBM45NIAESIAESIAGbE4BOhN99fqxMIMCHa5lZGSmLIwESIAESIIEoSCDCf/EjRyTy8eV4MQqefWwSCZAACZAACVifABQi/O5bv1y7LtGfCpFdH392ngRIgARIwK4IaLbDETe7PBJEIowU6cnSrk5pdpYESIAESMDOCeB3nzqRNc8BOKuODE+W1uwCyyIBEiABEiABErCcgLZOha/lycOTMqJFIgwTff1odB6eQ8a8JEACJEACJBD9CODXn6+IrHPYNGfVPtYpiqWQAAmQAAmQAAlEFwLaK6KI0FIiWiTii8TocgaynSRAAiRAAiRgXQIcA1iBJ94i0lm1FTiyCBIgARIgARKIdgSw2Nm7CGh0hIpEGB3SdWUEHFRWQQIkQAIkQAJRkACdE1nhoFAhsgJEFkECJEACJEAC0ZOA5pzI5tbEEScSYQlcTjSLnmciW00CJEACJEAC1iGAkQDGA9Ypyw5L0YaGEeSPwA7pssskQAIkQAIkEA0I2N6YKOJEIh+6IooGZxybSAIkQAIkQAK2JcDxwOfy5Ypmn0uO+UiABEiABEgg5hDws/VKZxEkEvnxzWHMOSnZExIgARIgARL4fAKwJKIH68/B5x9xa99+TvOYhwRIgARIgARIIGII2NiDdQSJRJxoFjFnC2shARIgARIggahPwNeXM87CeJQCbP7aMIwNYnISIAESIAESIIHII2DLV0cRIRJpZkR0WB155w9rJgESIAESIIEoRQCjAowNolSTonpj4I2IHxIgARIgARIgARIQAtpCFv42ghERIhHNiGx08FgsCZAACZAACURTAhwbhOXA+TsEfAhLeqYlARIgARIgARKI6QT8bTU2sLlIBL8DNCOK6acn+0cCJEACJEACYSOgGRNxmTMLmdlsFGhh/UxGAiRAAiRAAiQQ5QjY7AWS7UUi2pNHubOJDSIBEiABEiCByCfAGWeWHgObjQItbQDTkQAJkAAJkAAJRDkCtjI0tq1IBE9EfE8Y5c4lNogESIAESIAEogABjBDosfDTx0FTiGzldODTtTMFCZAACZAACZBAlCVgm9dIthWJqBBF2dOJDSMBEiABEiCBSCfAccKnD0GAz6fTMAUJkAAJkAAJkIAdEgjwdcD6p9b+2Fgk4lwzax8wlkcCJEACJEACMYYARaJPHUpYklMk+hQk7icBEiABEiABuyVgg3GCDUUi2JDTZbXdnqvsOAmQAAmQAAl8koA/Z5yFzghvCPkhARIgARIgARIggRAJWH+oYEORiK8HQzyO3EECJEACJEACJGAgwNFCaCeCDV4PhlYd95EACZAACZAACUQvAtr7JCv7LrShSITXg9ELL1tLAiRAAiRAAiQQwQQ4WggNOEWi0OhwHwmQAAmQAAmQgIODte2ObSgS8d0gT1gSIAESIAESIIHQCVAkCpGPtcd8IVbEHSRAAiRAAiRAAtGXgLUHDLYSieiNKPqeY2w5CZAACZAACUQYAVgdc8wQAm3rr1cSQkWMJgESIAESIAESiLYErL3Amc1EIitPi4u2B4wNJwESIAESIAESCJWAP8cMZvlYe8xnthJGkgAJkAAJkAAJRHMCeKtkzbGUrUSiAKxtxg8JkAAJkAAJkAAJfIoAxwzmCVEkMs+FsSRAAiRAAiRAAh8TsOqYwVYiEZ1Wf3zQuEUCJEACJEACJGCeAMcM5rjgZRunm5kDwzj7I8A3z/Z3zNljEiCBsBKwpiVRrLBWbmF6vhW0EFTwZP7+/o8ePnj3Hp9379/h8z5lqlRZs7oFT2mHMYRjhwedXSYBEojxBDhmMHOIA6w52jNTPqOiGAE/f/8nT54nSBA/YYJ4Uaxpkdyc8xfcV6/dmjBh/FYtGqVNkzKSW8PqScBKBF69euPlff3ly5cvXuDrFb4rV/rCzS2LlYpnMfZHAMMGR6v12nYikdWaaG8FvXr5ctZ/M/S9zpkzN0UiAWIJnEuXLmxcvzZBgoRNm7dInTqNniTDJEACJEACUZAAZ6ibOygxViSav3A1HoeCdzlTpgz161YNHh+zY9w9vM+eu3T79r2nz55LT52cnNKnS12ubImnT5+fOXuxW9dWsZydYzaE0Hu3actuX1/f589fHj5ysmH96qEn5l7bEXj9+u3du/cyZEifgDqmNShv2ryteYsO+pIWLfiXIpEeCMNhJGDNYYNNRKLoO9rbsX2rt9e14MejZu26GTNmQvz9+/fWr10dPEHefPnLlC0fPP4zYpIkTfp9vx/u3bu7eeP6p0+ffEYJMTiLJXC2b92CwcSLF8+PHztSu079GEwjWnftyZPHbVq1CN6FePHjr1y1Nng8Y6xLICT+UkvadOlwx6tRs1b58l84OlrvrYR1+xATS8O9682bN/qeJUiQIFYs7ZfaZFfs2LHjx4+vTxndwxg58Fz7+CBac7T3ccmRvOXiku7Vq9f37j9U7cBJniO7q0uGdCrGHgLvP3xYu277hYvu6GyG9Gnz5s2RNk2qe/ceXnb3vH3n/tLl6wWCn59fjBeJfHz8fHx8cAtIED9u8EMfL17c16+1G2PixImC72WMTQnAhH/BwmW79+w/fOT4xYuXpa6MGTPUrlX922+6/zNjNjTNCeNG2LQNMbXwZk0bPnnofeDg4VZtusCSyJJuTpg4fe26jcFTYkiweePy4PH2EwMFE7dK1V9nZ2fYHsrmmzfvMIJSuxIlSoCTVm3GqIBVDZBtJBJF17nDadKkuX3r5t27d9QZg1F4jpy5EsRPIDHx4sZLkzbdVY8rHz58UGncsmVPlSq12gx/IE6cOJkzZ6lVu+6ihfPCX5pVSsCPt6+vj4ODY6Q/lnwSTrx48d68eY1eJ0qU2Cp9ZyG2IBA7dpwCBQstXrTw4cMHqvxateuUKVNWbTJgOwLgX7pM2W3btpw4flxqKVeufNFixd++fXvp4oUlixchcszoP/MXKLBm7Yb06TPYriUsWU9gwYJ5Pbt31cf8N2tui5atELN2zeo2rYN0VVwsMUxOxYwzKpL6Q+8QfV+4fdQNMxuVK5bG39lzl1eu3iy7e3ZrkzJlMjNJY27U/QePZ81eCt8C6GL9utWKFc0vfS1YIHe1auXXrd9+6vQFifH3i66DasuP3uq1W0Qs+3Fgr7hxY5tkbNK49pate1KkSFamVFGTXdy0KYHr12916NQTChFqadumxbe9uqVOner4iVPzFyyZMXMO/hBfulQJm7YhihSOqWF4FMIziJIerNKw5MmT1qtb85fBAwcO+tWSArNnz5ouXdqFi5bpE7dq2axA/rz6GDsMu+Uo9OBB0IsH6Jg3vY230AKFy1y75q2YHD28s0TxImozZgWs+WNhG5Eo2vIuULAw/nbt3H70yCF0AkJjj697446gOpQ0WbL6DRphLLtsyUIvg81Rp87dUqdJqxJYMZAsWXIrlhbOojZuWHv50kUU0qfvwLhxzbznCWf5Yc0eCpz6DRrv2LE1RYoUJUqUCmuxTB9hBBInTjzqz9G//u/3sqVLeHi4o96ve307esy4CGuAnVcE/oA/+OdfK1UsJzpR67btOnToJFiOHTtar05NTJE/f+5crRrVjhw7Ce3VzolFTPfbtetw3dt75Ig/pDpcI6IQYbPxl016f/f9xAnaNdKgYaPp02dGTJMirBZrDm0irNG2rSiGI8mSJaPiZ28KkX9AwJJl60Qhat60Xt482RUKBJwcHTGpCnPNvK/fwiZ8Fen3xsiw8kqmAvpuZkifpmP7ZvoYhiOAwLr1Wxo00t5MpEmTevvWNQXy55FKm3xZf2D/775q2XHb9l2I0b81j4BWRVYVxUpWdHe/WqJ40aOHd1i9Da6umS0ss26dGvj7c+SQjFmMh2PenOltWje3MHsMTnb4wPbS5aqJToQz9vyZw6qz+3ZvdsmcWzY3rl8WcxUidNGaPxa2sbaK5gMbWPHImQQ7f71CpM42vO0sW74CNlOmTGUjhUirKypN8gj62Y4i7zZDhpMuffrWbdpjohkmLqlDxkDUJJAwYcISJUpK22C0EjUbGYNbBXPcPLnNvH3CQRk/8W/pOCS8U6dOxmAIUapr+HH5+Zf/wapLWvX69WvVPOyS+zCulNlz5uONhdrFQAwlEM3HUp86Ko5RapTzqdZad//BQyeePHmGMlOlSmGiEKmK6tWtJmF/P2uO+1X5DJBAKATu3r3fum0XJMAUv+NHdiuFSLLA/mX1yoUw1sCmfiJPKAVG911RqpuYsZszp1FZzpMnV3Rna5X2Z82aecE8o0tfSEX6CWVOTsaHxqWLZ9euZbyvWqXSKFmI1UYOsWzRPau1zhaNs6BMSyzekybVBuiJEnNCkwVAmYQEQiYAnUJ2WnLdhVwM93wmAYVdBaSgSpUqqxKPHzvKaYCKhq0DGNlMnjq9cMF8qGjc2NHde/RMnjwFwjduXJ80cTwCs2bNi5mGXdF96GDrM8Oeyv/wwfft23fa37t3CRMmSJM6xQcfHw8P78ePn2LOUc4cbnHiGIevb9++97jqBaMbPMpmy5YlaZIQfdbcuHnnzt0Hr16+jhsvTkaX9Fldg+yYTNDevHUXjoFevHyVOFHCzJlcEidOqBLEix/X+WNnFmjA9Ru38USdPHmy9OnxAjuFyb1U5VWBl6/e7Nx1UDYrVSit4k0CqVImy5QxPRoDpzAmu2Qz9KqR6+27D4IRC+W6Zc2EX1vMcbtx4/abN29Tp06ZLVvmuDpLeX0V0KOREnZMmF8DZ0np06c1cRWkHaB3796+0Q4QlmPDimN4hL7qeQML8ubLmzN27CA3275+fp6eNx48eIQjiJTZs7mmTvWRmfybt+8D/P01h0SGD3wPiWORWLGd0TyYXL179wHVoCIUnjpVyiRJgg6HZEFrHz16evfeg0ePn6ZKmTx9ujSpUiU3OQrBGwwvSDhzHj1+Auv4zJkywFO4ngDDffsPFi85A/r1zpTJzJRz+K7+a9TQlq07i0EciZFApBOoVrVih/atZs9ZiJaMGz/5118GSpP+GDEGAUzKgxOoSG9kNGqATUSiaNT/z24qLCCQN7iDHlhdaj9kb98YfjgTYHUt/PJd87wKN7Fx4sTNmClT2rTpQqoUKe/dvXP79i1n51gpUqZMnvyj39HgufCTjOS3bt1EyenSpU+TNi38lumTGVqi/bDi5zV16tTw0QOXqFevuidKmAh+lFRK/L56XfOEaxgUiEozZc4Cl8+YdieOluCjJCBA9/v95rWfv+YYLFas2CZmVmjJvbt3X796GTdevAwZXDJncVVVSMDWcNARrcsymnj/LlWqVIkTJwln1RiseHt7PX706P37d8mSJcuUKUucuEHTD7GGmkkfuRkBBHAiHTx4wMP9Cs7n5ClSwLmym1s2fb04EwxLij5//uz58xfPc+TIgSvx0aOHB/bvv3PnNjzslCpdOiQ/O8+ePsVkq2vXPFFgtuw5ChYsqC4rnPOYpYV41Pvs2VP89+z5s7x58iYzXKq4fLD6HmJfPMe6PS+gqoi/YX3DUPihQwc9Pa+ihbhmq1evIXn1aSRsSTNULjwMeHi4Hz165P27d3Ciny9vvvCbmaheo5ZEiUJ87nrx/PnxE8cvXjifKVPmPHnzZs+eQ//2RlqIiwi9xvF6//49khUvUWLunNlfNmmazXAXAjcs//rs2TPhVrp0GTzJXLp48fDhgzhqJUqWDOlIoXB03MvrGhLjG0tAogH4NmkAzha4sdc+z57j3gUjKcDHIb548YKfry9woUaTxwlpNm7Fx48dgzSDu3HePPlwIl2/7t2+fUfZq/+GG7tjR4/evHkjV+48+fLlM9tgVIo7JLqvzxhSOGfOXD/+9POI4cNwGg8bOmTMWE0bGjigH75/HzIsX36j75KQsjOeBKI1gQcPn0yZNld1IW+eHAUL5IEXZ1zvKrJe3arFixY4eOjk9p37VTyu/a+a1c+VM6tKJgE4gV68ZO3LV6/jxInt7x+Aew7ikydL2q1ry/gfT6R9/PjZshUb4FEbRcWPH0+cJetLa1i/RpHCRutLzAKD56DTZ7SZ+Cj5wwdN5oDn6dYtGwcXMvSFeHndVG3OlzeHfpdJGB2HSBT8BmVJ1StWbRYvP1Jm184toUx5XruuqkgQP16XTi1TpEiqYiRw6/a9ufNXoDtyL5Wm1qlVuWSJQpLg+YtX4ybMVLmg2RUtkl8doL37j/Tu1UH2njx1YePmXQCOujAsRuQWhz1QkZo1qaOy/zl6qgojMGnKbNmEONWtS8vVa7bAd5VKUKN6hbKlP3JL9PDR04WLVsvCcGiwtDZN6pQtmjdQXQve4MKF8sIflpwJUni5ssWrVzWacKrq7DawfceexUtWSPe7dzPzqye7mjZp0K1HIj1GE2J37tw/cvT4jRu38uTJiaFJhgwfeeeAO2Htl1kbp71InixZrlzZMYLfvecA3MdA8y1WrHDekG1kMJw4c/bC8eOnkDJ//rx5cufQvztBk16+fK0N0bSyX5YtUwJDGm/vm/v2HyxZohgq0rcTEjNcR1+96oWfaeihNWtUhZ2USoAzCsMTbGIsgW/UKzaACMM5kYn/jdD7q8pEAGWeOHn60qUrqVKlzJUrtJuAPpclYbQQ6wCi3+g70mNqFfp16PCxS5fc48aNU6N6lTRpUkk5oLRn70EPD0+gK1myaCi0r127jtZev34TLuSzZs1So3pl/RBR3yovrxunz5zz9r5hOC55cuYIQo1H5vgfu6UP/SCqYvFuAC200BXUyOG/rVi5Fvrm/34f0b5dK0xqPnnq7N+T/0F7Jo4fpcpkwBICFIksoWQmjfx2mvxyv3jxYurkCSo1njALFCi0ft1q/Q20VOmylSpXVWlU4MTxY9u3bZZN9Tun9gYPnD51csvmDYjHg6iUD8mmWfOWGQMfQs6ePb1pwzqVsVr1Wi9fPj9yWPO1hA881FavURuBx48fLV28EA9RCOvrxeOZiEQTx4/WMgR+ZkyfIkE84rbv2EXCd+/cWbliyatXr9AG3E+lPXhM7dCxq7prRwCc9evWXLxwLrClDpWrVC9ZqjQ2P7tqT8+rG9athkwGyHhwxe1MFS6Br7/5TulQJru4aSMCK1cs/75Pb2iaOXLkhDIitfTo2WvsuKBLb/Wqla1bfaUaMOPfWffv3ft58I8qBlrPoiXLq1QxvRJn/DMNyfBkjsKxwiACKgsCiDxz7iLSfNf7GxW/fMXqOnXr4dxInvQjxdDD09vFJehNNYSS4X8MxWO/lKNa/u+sOS1btlalScCSZqgs586e/bJxAygaImBJm80Wq7JYErhw4YJKlidvPhVWAVzm//v1Z5i6IAY9RQMQqFq12sz/ZuulcMht7du1PmFwj40WKqTQQUQkavFV040bjIv4oIT1G7cM+qE/fCGpitq2bY+5b8EVeZTcqUM7SGNIqUqGAdS0f2aqKcPYVaJYYUUb7dy8dXvbNi1Pnzqlyod/n7nzFuLepWIQGD9uzE8//oCAKhlhnAAmIhHU//ZtW+/YsR17cc8UL+zf9ekLKUdfIG6zVSpVQDPQvHUbNuNmgvShf/r1HwgpDVSnTvkbjoogbsJxNSaa9fm+X+gZuZcEojuBlCmStmrRaPPW3fIw5u7hdfGSR5bMLhjunzt3WeSA9Rt2XLjg7uV9M3eubLAuOXHyLDQIDD9Wrd48oF83/SX27NnLf2ctwa4ihfPB0Q/s1Q4dOrl1+16Us2r1llYtGipc79/7/DtrMcqBotGrZ3s8k1y46AHNCAlgUgQdBIGMLukkPWSaGTMXQU5KmjRxx/bNkyVNDIFp+swF9x88gsLVv1+3UNYjg82LFIKKTIaREq++SxQviD+1KQELq65RrQJ0lm079kkuQMAYr0TxQgH+ASdPnwcQ9HTDpp1tWzfWl3/psiecJSGmetUvypYtBhufrduxrNVJaD3IUrpUEexKnChB+7ZNN23e9eDhY2xe9fR297iGxek8rnpjE0ft1eu3iRLGP3fefe36bYhp+mWd/Ply4kdw8dJ1SAPpKnNml1KBklOVSmWx6+Sp81DxkLhUicJ4EEUgZUrNgrJqlfJIvHnLHvziYNPkc9Xz+vyFqxDpkiFtsyb1kiVLDJOieQtXomETJ8/q3LFFpoza8TLbYFhpYX7K5ctXpRcHDh4vkD93urTG52eTiuxtE0uzS5fr16ulNIXgEDA2btmiqbi1NtmLB3sYGYnTItjXiaeYfn2/GT7sF/lxhPFdhkxGNzHI27lT26ZNGrbv2FNSSmmjRvw+cEBvk5KxuXjJShSOgCoZE99WrVhQvFhhSfx9v8HQBVTG82cP/z5k5LLlqyUG/pWqVqmAME6834f+OXTYnwhj9hZcDkkCvZefEyfPlCxdReLxffbchZRpjDL06D+H9evbS3Z9sr+qBAhhP//6x5ix2ox+KBcWLmqmsn8ykDlrAcXQzc112+bVzb5qf/LUGZWx97c9sBrdwUNH27bvrnfnDLuw/v2CBreSHgpa1+69IbugqfBZLumBfduW1QULGOVySQnDxh9+/N+kv6djs2CBfAClapQA1sKbOH6kivzkQZSU4ydM+77fj6h94fyZ8PCtsocUSJs2NTrS4+vvkaDfgMGLF/7bo6cW/nfG37C+CCkX480SsI1PIrNV2UEk3re3aNVWrXQG85zVq5bjealsuS9U5JHDBx88uG8CY+WKpaIQQULq23/QgB8GN2n6lehQJillcweWed+8AQlatGzTb8CP3/f7AZLNhw8fFsyfowrPmTN3w0ZNlC3D7l3bjx09ol5xu1+5jKLwk7944TwoRAULFf7u+wGot2mzFlLv+/eaZI7PFxUqof3KlKBY8RLYxF+JkqUkAV4DzJ83CwoRjI/QErSncpVq2IW3AxDIJA2+IwBOxUpVataqq7oczqphFbV86SIoRFlcs+KgwGN3ocLG91dQ4gRCvHjxVS0MRACBTRs3YIEnPIpjXSfoNc9fvoWCgHqnTZ28cOF81YCq1aqvXrMeD+0S07dPb0g/3br3HPbHCFiaIBJSRfeunXHJqCwIzJs3B+oPdk2cNBmFe9+4U6FCRUkAB89//jVm0E+DsQkTmPkLFosio7Jj0HP02KnpM/5VMSYB6CmiEN26cx+F4ztPHu33tXPH9u7uV/SJLWyGZNm+fVupkkUhJUyeMu3egye37z6EO2opFuXoiw1TGMPxnwcPkiw1atYqZRBb9SUgAZQpKETFihf39LoBRezSlauQYCCXQA1RYJEMGhAUIkgeaN79h083b90h6F4bliBEmfBWDuCqcDjMzpcvP3S9P4aPFEToSO2a1VCUSoPAgQP78+fNBYUICt3Va9dR8oVL7mjM7t27cufMdub0aZV4ybIV8IkumwAFR+kI40xQcg/El0WLFqj0CKxftxYKEdqJY4qS8SeJYe6kTwbToVIliqHLcPiNx6LrN++sXb8JCSaMH/vN1z30KaFsQiFCDJoHIyb9rpDC8Ig3IdAtVNeuHXsYljybNm1mSK/vQiqH8SQQ7QhA4smZw/WrpvWl5bj2mzSuA7/FVSqV+e7bjjDVkXhM8urSqUWL5vWrVinbv1932PIgHjNf7t1/pO/y+QtXMNRBjHw7OjiULVMUog9irnndNEkp1i5lyxaXt9Yw85FioV+ULVO8cqUyqVNrygU+R4+dgUKEAOQSKEQIwPd2rRqVEEAbDh8JkqERY/LB47HEJEuW1GSXJZsWVp00aaJyZYu5Zc0sZcK4BvJZ3dqV69WtgrXkJBKGRbAyUJUC9ao1m7EJYx/kBSsMCGvWqAAxC5Hbdx6Q+zAiMVnvy0a1JSPANqhXvXXLRpIMe8VeAMpdYAKtChxW2GFJjLv7NQngu8IXJQFWKREVviiFTfwVLKB5WsH8QZiMVatSTqVXATRm5Srtlot627VpCoUIYUw069TBOH5evnIDZqsh0tjgxkENhm7VueNXOKO+7tEW8hbS4KM3vJIYu/0+fdr4niZrVtfQIUyfOu7KxWMmaW7cuF24WHkoRJB+3r66e/+O+5ZNK5EGyki3Hn0kMSY8HjqwrUrlCrK5dNmq2nWblitbauzo4SoSosPlyx4mhQ/7YzQUIqgGB/ZtQcmvnt+pW6fmrVt3SpSqrBL/+EPff6ZNUBmrVKt/5ux5+JyWmI2btkrgp5+HikL06P419ALfefNquhXUkytXjIJRlsyZxo0ZgT/JgnplE9+VK38hkZb0V1JiibRSZaqJQgQPys8eX/d593DSBE2lstZn6+ZVXbu0l9Kg6ZQpXx2XHvSs5s0aS+TESdNat+1W7ouaeXLnQi+qV6ss8QN++MXDI+jCRCRuDtVqNIRChAXsHj+45ul+6vjR3YiHCNW4SWs1RVSyf/1NX1GIThzbc+bUfq+rZ6ElyS4h9mVj4y0dkZYcRCTDveXX3/5AAFLa35NnSGmf/O7SuW3RIoWQDC1v9GWbY8dPNmxQhxPNPskteAKKRMGZfH4MfoeyZHGt39B4HWo/nDg923WEztK5aw83w9wKlC7LhKlqrly+hIkY2MyXvyCMjOQZIHuOnDVr1VFp9IGHD+5jOhhikAD6BQJ4QG30ZVNJA/1IAjDhyZ0nb/kvKsomGtOuQ+dGjY3JxP4Fb6ch7iBB5crVxOQH1k+S5cOH95IRagjar563ZRMxefMVkARYMBuFIyzfCJQsVUZEpeveXpIG3xEAJ0mSJIWLFIVUpCqVwOdVfejgfskOzUve9ZUqXUZi4CkBBPDHBzYT1LbeVEoQ3v+gLvAfPnKUVLpz+3ZVO84ESBu/DxkqMUmSJD134fL4CZP69hsAgcbFYOADveDsmTMqCwIjh2s/RTjVO3bqggBMVzp01F5V4QPl8ZtvvxOTH7irh04E1UN2yTfOEFh5QLH6qkVLfbwKwzhIhRFIkSIldAqJwVQs/S4Lm4EsMF+S5dJhSIU2ow1o5w+DfoLBC/b+/NOPwW3f9BWFFIaFTtMmjcT2BxhnzPwv+LtuHIjt27RbzcJFS0V6xq0PS3Ehxsvr2vxAfQpWTmITBAUaBwV7obsNHTYcgdeGOw8Crq5Zu3TtLmIfNqGMzJo9r3Xrtt/37b9z197CRYogEmLQnNn/ISAf9OvrHt0QRk/hwhmTWxGG/Lds+SpRoL75poecIYjPnTvPX6PHqjsYjuOBg0dxJkydPkOJemtWa++i1Wf+/LkId+3WA8cUAZQ5ZtwElICprCoNAr//71ecRWjDpMlT5f5ZrVp1aJHYhRIwCU4l1ptiubq6qvjQA9C/8Ic0YAhhFKdc0WLFQs/CvSQQYwgkCvQEBJmjQH7tniYf6BcSKFa0gLLrwXJguXJmk3i8+jYmNfwDP0GymSa1UV3CpkRCZcCEF5X4xs3bEoZpkoqETyIJK/MfbCLjjp0HEHDNkjGFbmZK9uyukhj2KRIw+/3ggVHGShKyByWzGREZ1qpVFY0a1lQeiCB1wdOTVPHi5WtV1+Ejp2XSHOZeqUhIRW5uWaTqu/c0XUw+iQMbn80tS9Ei+RDZqWOLyhXLdOvcStw2wY5JUkK4kUCiRAnkNd7DR48lxsLvpEm1nw+Tz4GDJ0TUK1asYNy4sdVe6ErwfIRNTLo5deqCisfjvYRxRsGyScXDgEjCahqR2mW3ATxXS98hkXwGhJ9/HQbVBrY5kJDkxxETlL7uqY2s5sxddOGi9siDM6F0qeKTJ2nDBnygAqxfu2Tl8nnf9+m5Y9saeJaR+A0bjQ81sgnt5pf//YEwDEPKlimJAPTc6VPHy97fhxoHhJjX1rVLO/igkfgc2bMdO7zrh4FGfSpTxowSP3XaRy/2YGkyasRvsuvAQe05Cx/Il32+64E/kTyyumaRTXwXLVJQ0ljSX0k5fOQYMbFZs2oRPCjj8UQbXvbq+k0vbUhjlU+hgvmAXQk00OmOHNoOi6cli/77Y+gvUsXCRcvmzJq2fu1i9GLr5pWK9tZtO/VtuHjJXUyQ4GNBnneKFS00oH9vpIH8hDloKvGtW3fFE1CLr5oIFlfXTJBmJAFmDqIirKUrmxYeRCQGn2JFC0suyyflQRSbPs14SmzYuAUX/uRJY6QQfoeJAEWiMOGyKDFc/0g6KDh58mg/nPLJmze/BJ4+fRIYp8m0mzZqlr34lA1c0UY2XQ0mDxLWf2/btgWbuHJguaPi4UhbpmPcuO6tIhFIbHgwQwDyE2yakiRN2rJ1O6gbTZp9hUj4PZHEcFQkAXyXKFkaEg+uMRUTeiBtuvSSAG6PVEqJxGjm7ds3KhIBW8NBFVAE9DWqcJiqRq47d25JXogCEoD7WBnfwLuN/uWbqoIBWxMoWFB7OYAPFAEJ4OjI8//FS0FjQdmlJj0N/vmXbIESLY4gJB5JAEsQCeAb84agbiCQPXt2dfKXLWf8STty5LBKKQH92a7fJT6G9TESLmmwvHNxyajOw9x58sguD/egqy9MzYAWA5EChXTpEjS8gKBTvYZmkQtZ4fKlS1KFJd/DhvxetXKFLJkywEIHlorwqQTNZdXqdUpeUYVAo/ll8E/YbNK0md7JTvkvvpA0mzdvksCtWzclAAsaCeC7fYdOEF9MBNa06dJJgipVq6mUmLI6ZuwE2YRpD+4nEp7130wxzOnUuYsycsQuGFQ2aaINCqFwrVq5QhLjG0zSptMeV9AXrB2mNK/atY0jGM+rHz3RiUeqPXt2wZBQCoFdz7DhI/T3losXLohk+W3v79QJg8SVK1eRLLt3Bw22sFoZ1DToR1u370IjJYEl3zCzUsm6duuuwgyQgP0QkJ9d1d+MGY1XkMl8LhWv7KAlSza3zL16tMMfTGMk5snT5/BwLGEfH+NdBZtKRbr/IEgKUbcd/Y8+vCZJPK59+AxSf/CBYqzCsHKZhIN/x08QXyKD+zxC/KbNuzEtK/gfZm9h72dXbYIRrpqlDXoCcOQskXARrTqFgEqDKXWSQP+tboDwtF2xQql06YxDphrVv8BEvP59u2MBe0nvff22vE301WHXFxWm8DUv4y94ntzZTTJiEqLE3Lp912QXNk1QZDKHIngu+4m5d++BmgMFHz1h7fj5C5fnzV+MXN9/97U6N7BZtUpFKWrnzj2qzLRpjecGBB2s7K7iGzWsJ2Hv60HjNMT8+ttwfOOx/8vGxgTYVEt9LV6yQn+durgY7xX/zpgEtbRhg9qQZiCOfN2zkxQOAxkEMFUtcaAkDedGsuuKu4cEPvlteX+hqowYORYFYhZYvbpBnUVMhS/KfrIiyxNgkJPOABZS0bAhg9WYp169WlJIubKl27X9ShXYoL5xLHTjpvHBR3YpiRBen1TiAoHhq57amFk+ajpbbp1/pbJlSsneo0dPBCbU/g3TQZw7e/rPgwf8OXLIb78O0hcSehgTD0WURLImXzbAGRJ6eu41SyCW2VhGWoWAye9QxoxGPV5voYdnQnnbD9MeGBdYUu9tw3MXnKXBx7U+vboXY76MvE43uxfeOpTDjvQZjKOEDevXwvVssRKl3Nyyodm9vv1enzf0MB7XYSeFNGpKHbSnJ48fSy501uxK9DaCE3pTZa8lVSMlxAcxs3r44IGAwm+PspZCWN12LamUaaxCYMDAQVWrVnfN6qouFrgWFvuO1wZ3BmZrgSd1fXzx4tqwAJ9374PeIUNmhYIAYeX8+XMwQpGrSY3g1XOCZPyM7xWr1p48eaJw4SIyGx8Fwve2lINXNKrAMDVj1y6jDAE/2foJVkragM/1QoWDpGRVi9mAi4sLDF7QfdmbwcWlbr36ZlNe9fAAKOyKGyeuvl51dVy5fFkyiiUOwph01qpVm/YdO5UtWw73LkzjMlty8Eh4lXYxODzCbQ0+pHGDQpr9+/dJymrVPhpmIbJa9RqzDTZHp0+fatqsuUmBgK+/bHHLwu0L4qD+ECBLsaLFYbwDpalg/jz9Bwxs1PhLCI6wdVLmTkhz4ICxDfAvoIcgZJDA09NT1Y5KUQj+VIyFAUhguJmj70g/auQITCq0MCOTkYC9EdBf2iZ9lzlicJRz7vzlU6fOPzB40pE0joFLI2Mzf75c4sEHk6EqlC+JGExWwppoCOC1XOZMQfLu/cAZbZiupXcFLWXi+13ghH0Vow/AxAYeTBAjDnH1uxDGKmCwWoIVjD4eno/EVCqcVasyzeJ6GEgGjqtVSn3gTaBuro8MJZwlszbIhLB15uxFePhWP6mhZLF8l2ptkiSJTXIlS5ZEYhQukwT6TbMo9AnsLZw0aVLV5SdPjHKqinn58nX/gT+rTX2gb59e8Am9b99BiYTUeCpw2hpilKOcq55GLVKfF37i9ZvKfkSNZ2SvOEtKnz7d2XMX9enjxY0rmzDTg1ca/S6EZdyFwX+D+kaVRBLAlOb4idOwfFEDs/0HDssurABoUkhIm5b3F+6xpZBmTRvhlhJSgVaMx2xZfUUF8hvfTcKDtb6WQgWNRgxKHJS9iRIlePzAy8v7epHCBSTmxYtXR4+dlLAeUY7sbhJ54aJx+IdNebxFQFl2S5owHURouEN//0kyhuk7VaBBKEycBv/YP3v2rGHKzsQgQJEo4k4Ds79D9+/fkxZYuBoRlgGSJzHcN+EJyGzrsbZacJHIbEpYYWANMjE+wpMS/nCjhOedcuUrmHjsN5tdRYo89Pr1ayhNZ8+cgqGN2uXoaNF90CpwVKVhCpitGiXAMYpMl7t27aqIRPBSJPDx1Kq/7YapOiYOJwGZcePpeRVThBbMn3fp0kcDBUsKFwHIJCUioSnASTAeyCEQiLayb+9uSVanTl2T9GHdxJUFvQPnD2ZOwUPNooULlJqgP5fC1AxM5pJmVKlkNOExaRWWWjOJCWWzY+cu8LyDCVOtWmrayorlyypWrISJYMGziBUP4mFKI9Y0Jmng81tiIME0a/7VsqVLVGJcO7CIgZMgvQWQSXb9Ji5PHAsxmIK9j5tBJFIdT58h6LFNckHbkgAWL9OXE6Ywpu/NmaPdXVEvvKTjr179BvAYDYVLlXM5UAiTRcdUvAo8fRJkMaoiwxoYNHCAKETICPup9h06iklaWMthehKwZwJY+X7L1j3wYQQImGpUpXK5k6fOwR82NjFPTZGBE5+aNSoiJZb3Onj4ZHY31/0Hj8qP/peNaul/OF4FvpPAymtfGOQkVYgETKycTPZiLgzkKkTC1VHwF07wro1d9+8/nvrPPMmoX9IrnFWbtMRkU2lb3bq0Mjs0SmZu2pdJIfrN8xfcMS9PfI1jeiB8h89fsAo+mxyt8YQsc81QXZyPF/ZFjDpYqEvfHoYtIQCXUnDNc9HwtH/Ny9skC64IWMxhBSt3948scLEomKx9fOmyu2SBv2GTvLIZXHgKnkw/LlJ7lYkTqi5avIKK1wfQtuAikT6BPoyBGeasoUeHjxyHW+v5C5YqJctsA/R5Vdjy/p47bxyvKgsdVUjEBMxe1Kg6lM6mSJEMf3gZhgXvlixdNX+BNpyTj7rKsInV68Tz9+Yt2319feVl/I5Ak7Hq1SsHZnKw+kFUJesDFy9dGRI49xDxvfv8sHH9Un0Chi0hQJHIEko2TAPvzlJ64sBJaqFXpswlYHkkU8aCp4cJTPDIkGLgIXvb1s3nz52RBB8+fDh29PCZ0yfhSin4NJOQCoF6smPH1luGyTuurlkrVKp85vQpz6uaraaT7jVdSNlDig8rnJDK+bx4OF3CrBM4kDp86ABmiCRMmGjD+jUoCjfTOvUafF6ZzBV+Aps3bRw54g9Z0wqGRXBJAysVL69rJgZin1HRgIE/nD1z+sCB/X2/7z1x0pRHjx/9MWwoysHEK/FS9BllqiwwqZs5Y/rYMaOhO0Ao+fGnwfCfJeKO/ocW6S1vhtJijp84Y3bM7RJoKqia8ckArF0gkcAROFL2/rZXiRKlgtsiKXkL86e69/g6eJl4eaUip06bASPKcYZF0BCJ7v/2v19m/DN9w6YtWOBMJQslkDrwhvYwUH1WKlVwz/FxYhvfj6m7Ryglh7QLXd6xay+cTysJEq6s8dd/wA9Dhv4huZS+j8XUQCl4UcmTJwseGaYYeCWHBgevTMP+GAl/3sj7Ta8eBw8dC/+pHqZmMDEJRGsCV9y9Fi3RfrtxX+rYrnn69NoACWtpSadM7pxlsHpXQMCWbXu34s9hL9LATQm8MotFjGTBt1ohG3fv9OnCMOKSEpSzHmxiATW9fxxVRdq0KWE9JPZEWGNexYezalWO2QAMB2ApgF1w7K0m4JhNaUnk1m37Dh4+gZTp06Vp3aox1jtD2D/AH996bc6SosymgVslMU169fp1ijhBxi9IDBsWyRJWVctsRXYYCUMeEYmwPrpJ93FawrsNIhcsXNamXTfZe+n80dy5c0j43r37Evhv5uRSpYpJWP+N1e71m5aHlSsruCWeN3e62YzZsrmajTcbiYHZtOmz/hw9AR6UMOnsl8EDihYtBI/OSOzs7GQ2S/BIy/uLheElu3IYFLy0qBYDe72Rf46bMXMOjIwwSW3xwv+ePn3Ws1dftNNk7Dp39rQGjVpCZevb/+dve3Xbt/+QLCcHV1DKEAm5rH4QgxOD4VK37n0QjwXvJkycitX3YLu0ctV6/RTF4LkYE5wARaLgTIJioJgEbXwcgqqKCJMr5OMkFm0pDyYmvntCypw0cC0MXAPK5UpIiS2Jh45et14DeCk6d/Y0npCx0hlyoePLly7u2au3JSVc9XBfsVyTllFUq9btxBsRRCLJa6ElkdmKwgrHbCGfHYmDi+Xh3r97BwFi+bLFUo6bWzYsoAbXTp9dLDOGlQAWn4JmsdGwIOtff47EMmEoAQ6V/5s1RyadyXXqHMs5rCWbpIcUuHrthpLFi8CTdInihbEXFnlYLKz3d9+HybDOpFhs4j1Vky8biqfnQT8Oxh8uluvXvSWlyTO/5c3Ilj27LOWeOg1cJKUJXu/nxWBZsf3794rDaVgVHT56wsQyUfkhQi/yBHpWCqkuePNBgXDcAydBkDwwhwspIRV17tR+336j6XVIeSX+8ZPHEsDVJwGseibyDabronx9dsy8k02o1fr4sIahDB49fmrfvr1LFy9asWKZmPOM/mtU+fJf4NxDaar8ZEmTfRJCWGtHesx1Fa/kEydOKV6ihBhk4aD8O/Mfs8LcZ1TBLCRgDwTWrN0i3ezQrpkoRNjE3HGJNFErTpw8D4UIy13VqF4Ru5ImS2zWJkgtpax8XYeJZObMGdKlTS2Lo+3ac8isSIQC1U+D/mVbOKsOvZ0pUyQXkQiT7LCyW+iJQ9/77PlLUYjQC3gmihPH+Ljh7x+AjPpZfiblyHpkJpFmN6E9XfX0xi64Kte7D0fMs+fGHwLLjUrMVmG3kUUKFxS/QuvWb75//6FZjA0bGC2sIa8ohQjEsmbNItyweF/ePBa9CrKQc0aXDJISBmLhLxkDs/oNW27ZugNlwuvNL4P7Y0jj7X1TqlBX3yfbZnl/3dxcpTTlvOyThUduAqzDWLJMFShoaMaKZfNEZIG9lbTKREcrVbLYjm1rCxQqgzXOZJkz2BYN+e2n5s0a6Xth3YOoL1mF/5kxBzP76ter1ahhnezZ3dAk7IKwVaN6FejgKhkDnyRgqVD6yYJiUoKECRNKd/DwKc+fwXv3wDBNTFbVCb7X8pjUaYyPdvopWqFkjx8/gZgFvnmD2V2vQ0lpya49u3ce2L8XKbHwEKaYQRVq0aqtPA9DLTKZCSwFyg+8vvCNG9bKZstWRoUIm8p1nMkITJ/xk+GwwvlkgWFNsGb1CihEUNC6dvu6x9ffDhz0c7OvWlEhCivG8KSH2eovP/904oSmLNy9e0cUIggicAMsChHi5SK1/Bc9pPagnMqVyuOIb9m28+Jljxu37mLtcwg6JjKESXaMM0xigm9C5xKFCD6zoTphIII06JqkNDH0tbwZsooZCjl10jhFPHjVnxEDF/jAKxlB4/vvvjUpRBZVROShQwdMdplsjh83BjP4EAnlq+fX30AV2r33QFaD03GoRRYa+8CzkhSbJ3ceCRQrVlwCN28ax3OyiW+s2CjhXLlzq8gwBVDCl40bwFoKMnGlSpWnTPvn6rUbajE7yEZSmpubmwSOHz8WpvItTDx0yG+Q0mCrBYUIWUaM/FMyYu4bLgQLC2EyErBzAm/fvZNJSbjNKvfJYOLnFygSOQdNN0P87j2H8J0Wsnuq5FjS3qxChARp0qQUHyiw9Ll+w/R69PK+Ne2fBS9fvUFKsx9U2byp0e0unBOJR+rgKdU4ykHTVYyfcFYdWIz5f3MHeoA+cFD7zdV/0IS581cePnpaHxlK+M4dozkJVqBTChHSyy+ms5NzSHlN/I6HlAzxcEkue89fuGKS7Ny5SxITkgBnkp6bJgTat2uprF2m/zPLZK9s6g+rPkE2N+MbmqPHNDsyK35gRidL1MHKSbx6hafwVas3iEIED0HwehP6wExV5GtYWldtImB5f5VX7IuXghz36IuKauERo8aJQjTl7zHKDMfX10/aiTGSvsGXL3uULV+9YIF8Z08fvOZx5sXTW1cuHvuqeWOTOW7WPYj6Bkj45s07X3/TD+HxY0fiO3++3P36foMATJyGDf9L0vDbQgIUicyASpM2nYo9d9Y4D0vFSGDfvj0IwKGPSXxYN2EsIzcmvDe+eeO6JdmzBr5OP3H8qEl6uF+dMX2Kfs0mkwQmm3jYOHhgn14MwjrWdeoa51K91fnTVRk/fDzBGxZVkh0jsHTp06tkykuZ08c3EZXAksBnwLGkWAvT4IhgrhkSZ8qcJUVKGH4nM7nTWVgOk1lIwNfHJ3hKWccKEgN2iW0LAhUqVtQLN+K4Ws0zCl6IhTHQcVAFFKj8+fPDTkQ5YjebHfM9Jf7MmY8Gzbgegqc/dcoo4qilr5BGiUQm63xZ3oyatWpLXdOmTTGpFE8XHTu0nRe4FL3J3k9uZs+eY9z4iZIM5j9z587WZ8mRI4cSesQySL8XMwGxUoao3oCDyWV6MQgudSZMmizpLXGZdPWqhxx3mPYox23lApdR27B+nb5qhFevWikxdeoYn8FMEnxyE0ZDmNI4+gHKAgAAQABJREFUZ3bQsBiGVEOHDRdnQI8fPZISKlaqLIHp06bgxmtS7OS/J/b5WFzDNMbhfwzFmmgmKc1uHj58aNLE8aj3t9+GSAK8kIBBloQH/TDAbC5GkkD0IvD2rWaRLZ/Xr03vnOoOqbyfSkr1iAIHz4G5tX9Ven28s5MyYPG//8BokwhZx/v6Lcn79u17fSFixrL/4LFhI/4eN/Hfv6fOnfnf4nkLVm3asufePeO1j/RY4r1qFaOHskWL1zx6FOT9DUunLVmq3Zfg2EVfskk4RYqk1aqUl8gVqzYeP3nOJAFEmTeBTPx0ryLCWrVamMzklafCpV9KpXixAiJ+3bl7f8tWoyAuDcPcMawmpp+9pUowKVnSq5cfcPCkjIMOHT4pIpH+0Et6LD4lgUuXNU8FJh9Vl15CKlWyMKY+IeWZs5eeP9dmycnn3v1HqBThnDmyumRIGxgddIaYnlGBS63pUahc9hmAG5ppU8ZJ30ePnaTsa/Q0fH3NvyGrUrmCJJs8ZcabN0HXuEROmDi917ef/xMGQUfKmTN3kb4xCMOgrEKlOseOG+cxmOwNvnnipHHwppZdQxp1ppkMzFT2Fy+MRmoqxvL+lildQnJh9lZwMqrAqBM4fNj4DqxCBePtDm1TiExEopn/zcWUNNhV5c6VPWvWzKHMVw3TQXzy5Nmkv/+ZO2+Jyb3aLCUMfbv37INdv//vRze3LJLml8EDRVsc9ef4c+eN8rHZ7Iw0IUCRyASItgktoGjgm+qdO7aKX2eVDr9wmzdtgP8dPLjC8bOKVwF1/Zj8Dvn4Ggc0+t8h/I5WCVygZ+2alXrjoNOBD5bPnz9ThSNQuUo12Tx0cL/7lSA1GsUuX7oIFkBJAh9fkUw1xuyvOIwv0J11a1YGvbBycJAZZ9iVPEUKVW/iJMZHYnf3oBqxV40DUI7yVAKVSgleJs/Mqj02gvNxlz8a/IWpapSj3FkunD9n/Ng/p06e+N/M6fPnzsLUM5hf6Y+UosTAZxBQk4nu3DF9H+vpefW73t+gzDQGgzvnWMbh/t49e5QKCQfDMhXo4cOHJrXLnFBEvjIsDqX2qkXNTGRQGbziNHZJn6ZYkYJYDx5iR9s2LfG0v2jRAv1li6IyZzH+/MALtbp84ERGltZCAn131Gjj0MGD0gycjRPGjZXwk489HFvejObNW4hYA1Fj1MjhUpp8Y17eksWLXFwy6iPNhhV/vZSDlF279cDC7ZKlR7cu27ZuUdlxc/jl199ks13bVl5e19QuXPsd27fFpqwWHy9uPBydfn37qOOFXWIIAzFOLbOosiMgJlcqZtLECRKeMHGyimzdum2x4pox0Yx/punNaq5cuQzPQYiHB261sJrkem9wUYGbmzpYEg8tGAG56UmMqPa//jJYiZKIx/G6bVhNslSZMpIsW7bs4qkKHezQvo1eJ9q9e9eA/n3lpJXEkNKqV600bOjvxYsVwtqPEhnS94vnzzt3bI+9LVu1SZY8uUqGWWYy7w+OwDduWK/iJYA7Ely5/zCwP85YOJMKnsAkPTdJIBIJQKbBxK5lKzeoNkyfuQC+ouXZHpEI7Ni5X/bC4fS+A8cwfQkXLzLu239E4iENnD5z6c3b9x8++Hpeu3HkqPHhcP+BYxcvXX33TnMXAGMHNT9r1uylK1dvnj13+aw5S9UDDCSeI8fOvAq0+qlft5qManDJw0ro0aMnaAnWL0Ph02bMP3os6K1hsaL5sxkeQjDzZcr0ebCy2bp936w5yyb+PSt27Fjt2zUJyQpJGo/v8uWKf9mottjArt+wY/7C1WgJBA64rEa/Jk2ejZIlscldy8KqsZobOFxxN96f167b5nHVG3rT8xevYLt01dP4VnLjpp0wfZKKoEA1b1ZPCBw6cnLCpFnrNuxYs27bmHEzDh0+UadW5dy53CSl/gBBcduz9wgOjfx4SYJMGdMrkn9PmYNCpkybt23H/gSGRazQtWUrPpLG8GApGeHoesa/ixYuXjN1+nx0HAcCzVOWTWgG4MjBRfkwyMI36v139mI0AFYeSAxdD0VBP6pXp5qUiW99g7Uzav8xyHlQrzCxbudu4++yl/dNHAKs3qVy2XOgcaO6zZs1BgE8+ZcqW9VkNTHEP35s/C378MH4dCO4sIxU1y7aTxgytmrTWa+G7Ny1r0/fQbDUk5T4VuO0Fy9eqkh9vMmKeD8N6ifJ+g0YvHXbLpUF5bTv2OOK+9X06dKpSKVFvg72Igdp1MDswEHjLQUnGxQxyR7cu7bMk4JlDda8V1UgYHl/c+Rwk3XZQabXt/3UuAgPREuWrpQyxXJHX35IYTVn7e5dTRI1+cjd4/nzF/q7h3oSRAP06dUTmfKLL3tlOITwkSPHJQaLx/0zY7aEUbgE5Fsu/zVrN6ZM41asRCUIdvUatGjdttvAQf/bsfMjxTlMB7Fdhx5wO42Da4kd0PR/ZsvSaZ07tVNtw63g159/kM3OXb5Rg3lMphs+Yqz6u21QlpevWKti4P1aFWKfAefffvvN6j3HjOPgk5KsXotNC8yaNRv8Lr9+/QpX1/lzZ2/cuP748SM8hZ46eWL7ts1QQPBOu137ziYyKpqEZekxBUPkEjx4IAE8UmMFbkwcOHzwAApBGog+mDWGGV5x4mgvmiA2eXtdw7JluHrhMRp7b964sXvn9iuXjXonmoG63394L/YUsKFAseLQBKYu1zyvPnr06Mypk5s3rX/16mWbth1Tpdbuv7gMbt26uX/vbnl6uXf3TvwE2lQ1OGDGXvlA8cGL8WfPnqKzKVOmjBUrNhwMYQ4abpSQolx0T5iODo6XDKsFYcEv1Ojh4Q53zoWLFMP4BvFiTISlzYAI9k0H9u2BnYXcdJAeJwMW1MS9xtZw0GyId1iRShSc+/fu4pkKFkBo5GdUjQbjDg6GYIUAuoMpfjhMWLQI58PxY0fc3LLLM1sgTv4bBgLguXfvnsWLFsLHimSDHyucn3CCDtEB88tWrVoBhQjMsbdI0aJYeixZsmQQBXCZIHL3rp2wMRn958i5c2bB/A2+aXAaP378GC95sCwdTkgY74wd/ae3tzeyYzEsTA5KmzYtLgqsQz/mr1FyWD08PHLkzInLSsYKWd3c3N2vXDKYj8EQBmngufzSxYtoDOaLbd68sflXLZVzIngEQ+NRKVLC2w4u26lTJ0NZgPYhbT6wfx8cSeTPXwCnXwBcPM6fq7Xk3FmUf+TI4Z8GDcQl7OOD3nxA+bioEXB1dUUay5sBXNBKoFIh757du6DjeHl57dyxfdAP/ZcuWfzvrDkNGjREgWY/wfmjVbgJYCwl2g208nLly8tkMZSAzj548MDRwSFjpkzoUe48ea57e6M7IDBv7uzLly55eLhPmfJ3r57dM2bKuHrNBjH1gmqG3iEZDgdUlXjx4+3auXPo77/heI2bMLFw4SKqbbt27Tx4UJu8tmXzpvTp0+fKnQdiChZ9/3vSBESOGTu+br36KjE6XrJEqcWLF0Kg2bt3d5EixVKmSoWKGtSrA/hggjliavU0cF6zZtXcObORHaCQJX269GnSpsWxxoHDIm4Sj+8MGTJgDiMM0yZO0N6gzpgxHZ3FaXPr5k00Y8uWTfCFNOrPMeocKFas2J49u+/du4eiINx4el5FN2Eu9MewIR06dBox6i9le7h2zaotWzajTHxq16mbOXNmCQf/xi9F29YtxTytTNlyVaoaH1mREmfatKlT0AWEN23aULxEyaxZs0oJEDFr16y2bt0aQMaPC66ppUsXY1Je9hzh8ioSvHk2jXF2ghNhnGL8BBIIwKOX0bA/MCqG/PvPjAUXLrrrV1CGhQi0mHv3HmINLHRy7ISZ9x9o4yX5eHndhEWMq2tGSCfiNAfxeCa5fMUTbnR8fH2xZLuyMcF9HoVnzJg+VarkSObmmvniJQ9EQkFAmVjEvUnjOjWrVzx1+gIi8Qh69ap3/vy5IBthvIfC8ZgEkwTc5RImiA+hB95z1Nw0iCyFC+eLF08bueHqLlQwj7Oz881bdzFCwAJeCEBXypLZpXXLxoks83yRNm2qYsUKwhEs3pY/fvIULTl+4iz+0C8838Jv0RdflGrcsFbyZJq9jPpYWPXhI6fWb9whT27I++r1GyypBryYUgdZRD06ostYn75ixdJy7WEySIECuW/cuAMOcP989+4DHBSM4rDuW6kShVQbTA4QdKLTZy4UL14obuCqBXATnipVCnQEFaEvKARjKjgnwow2qHuIhEPca143K3xRUspMmiTJrVt3nz3THjsh0zx+8ixzpgz58uV6+ODJv7MWo/GSDMcCZWJ5uNSptbeYSRInKlokP6a2PXgAZe3C3n1H0Rd0GYembevG+lXVTRoMPQjKIM6Nv6fOefgoSLjHIcBUOLfAiWxSqd1+QydKED8B1qjCZbJg4VKc5LDmwC+gl/eNDRu2tuvQXZQdrNLQt08vPaXixYrs2r3v7r37V654LF6y4upVr5Mnz/w+dNTvQ0Z27tR29F9D5cfxzNkLU6bNFHOVixcvp02TJl3atLh2Tp0+Byuk4waboPMXLmE+F6Qf+ClHFTBxQrING7cijJW2UKynp/eiJSu69/z+6tVre3ZtzGFY6RyT0fbuO/jH8NGiMcFjdIoUyRMmgDv2oCcglCDmSGfPnr948cqhw8f6D/wVKfEji8+x4yeRHvpXVlfj7zUcVMMFstQLyQxqyMFDR+DmBjEW9hcpSxQvunbdJuhrWB4O0gl0il279vX+ftDevcbJ+9u278IZiPtP5kzmX/IB5v4DR8ZPnLonMMv6DZvxOInbqZubK6qA2RecNM+aPR9hdOTFy5cZM2ZMkzrVlStXp03/T7pw587dlClSZEifHgLKyVNn4d351KmzSI/l7jNmdMFqIQIKipWk37V7r+c1781bdnz73cBkSZMiOxLDFAuIMK7D7Fxs5subF9P3Hj58hEpx6G/cuAWv51jQ7eDBI3PnLYZnq3p1ayIZPhYeRKTEtayco+Nm26F9K0MBZr5wE56/YFmXbt/Kvu9690wauBQjdu3cuVd1HGdvtaqV4saNA6PUefOXjJ8wZeeuvZkzZ6xbpybuGLdu3/nhx9/Wrd+E6po2aaQKMVNllI1yiocfKKu0zlH9TlilOCnE1y/AJwQrRCvWYuuiQObMmVO7dmzD6a6vC5du8eIlS5UpFy8eDoPpZ9SIoSZRufPkrVGz9sTxY0ziS5cuW7FyVYlEXbt3bT965LBKg5lWtevWhw0LYlAjHmLx9IIVx1QCL69r69eulsdRicSre7igVjPg7t65M3fOvyq9BBIkSPjtd31V5Lq1q/FQnD6DizL8wS5UV7VaTSy9pJIhgLEULGj0RlU5c+Zu3KQZduHRZdGCeaolGAdgwpprVrd/pk1Wke07dMFkNFvDgaOoWf/N0Dcb4UaNm+KB8zOqRpeh00FygtgHLy24X+BGg0hIUVKFCUyTerkZOgEYgGTLGuKjsklePHLjsR+RW7dsbtumJZ7zJQFmAEEKefniZc0aVSQSGs31m3dgA1KyRJAAIYkXLFyC4wh3MyaFw0uOzCTCmQwx6MdBA1EU7FD8fP3wbgqRqrpve/cZ9edolf3YsaNNv2wkijAi4SHo7ynTYNQzbuxoqIeYrZYiZYoNG7aIE6s/R43AxCuVt1WrNuMmTFqxfOnXPbtLZNu27afP0C7YsDbj1q2b3/TqCTKqcEAYPnIUzG1UTPBAKPzfvDOe4ciFuVRwgqPPDm9Nrq5ZJQaa3bChQxQBRMLp0l+jx6ZPn0ESwLAF6hKmB4oWI5Fo3ugx45o1/0o25Rv6GtxCIwzyehMeUAWW0qWN9jv6LKgXbYNGpo+El/HfhwxTOg52wfe2moMmKVHmmXMXy5YpIW6/VXZ4pF69Zj2k/Ewu6Zo0bXb40CFINmovDtnQP4arrkk85MjBPw2CAqhOEsTDgRE8T6m3lIgB7dIli6PB6F3oy5MVKpDXw8NdVbpi5RqISrKZJVMGPWpE3rpzXzxz9e/3/ZTJk3CGN/6yCeIFZpeu3ScGzuxTBUblQJxYmJ1snZFNVO5mGNrm/8Yh4KPhRxjyMqmOAMxnIHZAFICrY6xzr/Y8evwMcnnqVCnFu8ripesgQECD/qpZ/Zw5s6pz0cfHb/3G7ZA2kLFRg5qFC+VRJUjgxcvX9+8/gsSJopIkSWiy18LNZ89e3r5zD2pI0iSJU2D9p2R4jxjrk3mtUrXZWjRN7f4j6DWYCAZHSJ80jDJbCEx+MHMNT3ouLmnjB46ZsQlrKahvKNbEbeXTZy+gl4FA8uRJMOgyW6bZSIgXqAiCF5S1NGlShCmv2QIZqQjAnqL/gF/EQENFSqBtmxYtWzSpWqUCRv4mu3BEBg76dc5cvMsJMlrBQlfw/qN+HB1jaTKu/vNNr25wdZwitas+EuE/Rw4Z0N/4/I9NqCSYVQRdSSWD+DJxwqjSpYpLzOQpM7/pPUDtlcD3fb4eO/oPfSRsRgb/EvTUhu5MnjQaRj1duxuHPVAlZv07WbJ4eFzr2LkXPCLLJtx1D/6xf4/uxucyS/orGXGWovHQzlRLIJxhylurNl0QA1dQ6dKmadmi6aAftGlTwT/ffvfD35O18XDwT4DvU0Q2bd5+xcq1+r2Ac/TwjjLlahw+ckwfD9oTx490ip1CH4nwLz8PHPLbjwigU63bdlm1er0kgHKELg8c0LtTl29mz1kokVjDrmOHVghfu3Ydwlnf/j8hWY7s2WDKhCH0tWvekgzfq1cubNigttr85EGUlL8N0bRFhBfOn4mTTWU3CSxbvqZ5iw4qEq6RzpzaL5uYqgZDJLULgb7f9xrz1zAE0MG0GbLjFN24flntWtUkDQyg9u47cP3aebWUpD5vNAg7J6VIFEGHCfINjP8fPX704vkz/OqkSJkKFgTqBmfdRkCDuHvnNl5juWTMJCYqkCRCrwuXIJbBxm85THXwUBrW9uCnGh1Ev1AR7G5wPaMc9DGk31dMSHny9AlsoJIlS65Pg3JgAPL6zSvAkWkm0pInjx9jBIaX/MF/P8La1M+AE9Yq9OkBZNqUSRC50J1mX7XUs4Ux0dLFC/Ekj/S9vu2TKFFifUaGbU0AT+MXLpzH+VCgQEGcilIdlDsPd3cnZ6fs2XPoz0zLGwO7pIL5taE/BKnhI0bpp/mcOX0a887wfA5DkhOGly2qWGgEVy5fxv3BJYMLPCXj6QItwSsys23AoumXL19OmiRp3nz51BUBQz+0HHKSLBn2ec1Ae6Blu1+5gkXi06ROA/MoVb5qqu0CDx7cdwd8J6ds2bKZLLkIGrg5oDEABZssLD0Gax1MkQt+W1Mi0bkLl6FTw8gLKnyuXLmgKIXectyfz184f//evdy588BwJnjJoWc3uxd3QrQZPbp166anpye0RVii6W8CJrlwF/Xyunb9+nVM9QV8dVrqk+EAoSj0CMXq460SfvHiBQxOlYCFeWctWzSrVbvOylUfjRStUpftCqFIZMqWIpEpERtuY7ISpqGhguJFC9arq1kH6D+4wsZO0F5B1a5VWW9Qo0/DMAnEYAIYdMGGBYYh+FnPlMklEzSSDGnxYx16l/HjCO3A+/qNJEkS58qZQ3meCj2XhXuhYJ47D3tAX5cM6THny8JcJsnu3Xtw6bI7DEbg4VgNnDBF7oq7B2xtMmd2MUmPuWZ4TMucKVO6dKmD/5pb3l9IRbDEwXARVkiJEiXASAlgVQNMKo3cTRz3a17eWV2zZMvmqrr84MEjmAtlyugCsyA0b9HiFSJyTZ08tlPH1vqOLFm6qkWrTkjT57ue48Z85BgBkZYcREwEwxzeNGlS2YLD4F+GDR8xplPHNv/O0GYawizRJXNuuDT69ZeBtqguIsqkSBQRlFmHHROAARFcegNA4y+b5cyV24TEqVMntm7eiMgu3XqmNOeXyiQ9N6M+AZiVihuXO3cf6hUiaTlMdf77d4aYKdm0L1GkGTbto9nC9SIR5kyZTcPI0AlAKsJSa7B+2rdnz/z5c8UwKvQsUWovRSLTw0GRyJSIDbcvXPRYtmIDKmhQr3rRIvlMaoJHG/F006Nrm3TpbPKsYlIjN0mABEggWhDAe7U06XPAHqd0qRKHDmwN3uZMrvkwc00JMcETRGLMpUvueQuUQgNePb+TMGH8//0+csjQUQ/veWK2bCS2KlxVW08ksv4rzXB1jJlJIGoQgHcnaUi6wIkz+naJw2MI6lSI9FiidViWTsdEpOAKEfolhmNVqhrnh9qup1GkGbbrIEu2BQH4eMJidunSpPi2V889u3bB3tMWtbBMEojBBOBLSHq3Y9cBuDTW9xRmREuXaxMu3LJmTkuFSI+GYRIgAbsn8P69j0wqLF7c1M8D2MBCSlxcQ0KKgqjy5MmJ6XhoGFw7YUryuPGTMS0xGitEVkVMkciqOFlYTCGQJYvRcnXThrWYMafvFtZvwupmiKlYqYo+nuFoTaBixcpoP9zBwFUzzKpVX2ADPHfubPgqQkyfPv1UvI0CUaQZNupdKMXC6bjsxaStUJJxl1kCDRvUxWJ2U6fPuHDJfeZ/s7t1+2j6vdksjCQBEtATwIwP2BAhBp5usULZPzMXLV+5adWaLTAgwkQzzA3Jkzt7y68aOurzMEwCJEACdk8A3q/hAwgY4Cxp775Deh5w+gMnSpCQcubM3rRJQ/2uqBPu1rUDGgMn1vDOjqb26f111Glb5LaEjqsjlz9rj7oE1q9bc+H8WbQPFkPwEoVV0nx94bnpHhZdQky58hXKlvsi6raeLQsjAUzVadK4wYED+5EPTnOw+nvadOmw9h9ioBzBwmjCpMmVKmlCkk0/UaQZNu2jSeFwuY01wuDtW+Lhjq1N2/ZVqlTVL2dmkoWbegLwCeVqMIJ4+Ph5woQJsevnwT+OHfMXp5vpKUXLMKebRfhhgy8S+ObHEleQirBcWoIE8eFAGm6kCxXKmzRJkMfrCG8XKyQBEiCBqEsA3s0rV63/4IHmrRUWQ4ULF4Cbpzt37mExEMguNWtUnTZlnKtrpqjZASxnKb7S4XK7WdNG4pwoajbVolZZb7oZRSKLgDORfRKAHnTxwnnMAML8MhhM4vEVUlGq1GnyFyio98pmn3BiXq/hcRA+qjdsWAfv0U+faotEZMRy7hkzYinxqtWqK3d9tu54FGmGrbupyh865LcD+zX/X/pPiZKlhg4zdXCoT8CwIgBTx+RJNW2oU+eudevWg+I267+Z8O8OZfPo8VP6hd5UlqgZoE8i0+NCkciUCLdJgARIgASiIgGszgEzoo2btt6+fffp02dQ2DPDv3dGlxo1qhQqqNkZReVP2/Y95i9YghZeOHc4b55cUbmpn24bRaJPM2IKEiABEiABErADAitXLG/TuoV0tEnTZt2696xZXZsMm79AgaPHTkUXABSJTI8URSJTItwmARIgARIgASsT2L5jT/WajRo3qrdy+TwrFx3xxVEkinjmrJEESIAESIAEoiYBHx8frGuWInmKJEmTRs0WfrJVFIlMEVEkMiXCbRIgARIgARKwMgG4H33y5Bkm7MePH9fKRUd8cRSJIp45ayQBEiABEiABErARAYpEpmApEpkS4TYJkAAJkAAJkEDIBKwnEnF1s5Apcw8JkAAJkAAJkAAJkAAJkAAJkAAJkAAJ2A0BikR2c6jZURIgARIgARIgARIgARIgARIgARIgARIImQBFopDZcA8JkAAJkAAJkAAJkAAJkAAJkAAJkAAJ2A0BikR2c6jZURIgARIgARIgARIgARIgARIgARIgARIImQBFopDZcA8JkAAJkAAJkAAJkAAJkAAJkAAJkAAJ2A0BikR2c6jZURIgARIgARIgARIgARIgARIgARIgARIImQBFopDZcA8JkAAJkAAJkAAJkAAJkAAJkAAJkAAJ2A0BikR2c6jZURIgARIgARIgARIgARIgARIgARIgARIImQBFopDZcA8JkAAJkAAJkAAJkAAJkAAJkAAJkAAJ2A0BikR2c6jZURIgARIgARIgARIgARIgARIgARIgARIImQBFopDZcA8JkAAJkAAJkAAJkAAJkAAJkAAJkAAJ2A0BikR2c6jZURIgARIgARIgARIgARIgARIgARIgARIImQBFopDZcA8JkAAJkAAJkAAJkAAJkAAJkAAJkAAJ2A0BikR2c6jZURIgARIgARIgARIgARIgARIgARIgARIImQBFopDZcA8JkAAJkAAJkAAJkAAJkAAJkAAJkAAJ2A0BikR2c6jZURIgARIgARIgARIgARIgARIgARIgARIImQBFopDZcA8JkAAJkAAJkAAJkAAJkAAJkAAJkAAJ2A0BikR2c6jZURIgARIgARIgARIgARIgARIgARIgARIImQBFopDZcA8JkAAJkAAJkAAJkAAJkAAJkAAJkAAJ2A0BikR2c6jZURIgARIgARIgARIgARIgARIgARIgARIImQBFopDZcA8JkAAJkAAJkAAJkAAJkAAJkAAJkAAJ2A0BikR2c6jZURIgARIgARIgARIgARIgARIgARIgARIImQBFopDZcA8JkAAJkAAJkAAJkAAJkAAJkAAJkAAJ2A0BikR2c6jZURIgARIgARIgARIgARIgARIgARIgARIImQBFopDZcA8JkAAJkAAJkAAJkAAJkAAJkAAJkAAJ2A0BikR2c6jZURIgARIgARIgARIgARIgARIgARIgARIImQBFopDZcA8JkAAJkAAJkAAJkAAJkAAJkAAJkAAJ2A0BikR2c6jZURIgARIgARIgARIgARIgARIgARIgARIImQBFopDZcA8JkAAJkAAJkAAJkAAJkAAJkAAJkAAJ2A2BWHbTU3aUBEggGhMICAiIxq1n00kgYgk4OjpGbIWsjQRIgARIIKYR4NArph1R9scGBGLqiIsikQ1OFhZJAiRgJQL6AYoKq4CVKmExJBATCKhhCgLqGlGRMaGH7AMJkAAJkIDtCahfEFSlwipg+/pZAwlEaQL6kVUMHnFRJIrSZyEbRwL2ScAwFgkwjE0MBkTyZTQmok2RfZ4U7LUpgYCAj8yFDMZDWowMXwIHMbh4giJNi+A2CZAACZAACRgIiAwU4P/BMcAHEcbNIDPuoJAemBZrfo8+FcMkEP0I6G2yAxycAxxjy4DKwcEJL+PQH6NCZBxvwYePXAnGvdGvwx+3mCLRxzy4RQIkEKkEtEFJgJ9DgL/cavUPwfqbdaS2kZWTQNQgYDAY8vMP8MPlYvhgoGIUhLSQ9jEMaAIQkOG+ISZqNJ6tIAESIAESiBoEtB8I//cOvs8d/V87Bko++gFY1GgmW0ECkUzAzyG+r2OiAId4MprCIMugFmmqkCEgQzB/XE8xYLhFkSiSzzZWTwIkoAgEQBvy9w1U4lU0AyRAAuYJYIASy9nR2Sngg4+/n5+/NijB/4aPkxNGLcaPZMYGngTwbb4sxpIACZAACdgfAe13wfeJg+8z++s6e0wCYSPg7PDWOeCtT0CC9wFJHDV7IkcnJwy7tNGX+uhLRKR+M3qFKRJFr+PF1pJAjCUQ4A8DIihE/JAACYSNAEYhceM4v33n98HHx8kR/8nABTKR9pGBCwKiEFEnChtcpiYBEiCBmEtA+0X4cN/B/3XM7SJ7RgJWJhDb8Q2mZL7ySezo5OyE93RODobRlnHohcow7ooBIy6KRFY+b1gcCZDAZxDQbIioEH0GOGYhgUAC8ePF8fHxef/hvWGw4uyMcYtT0Je/v8HOSDd2CczHf0mABEiABOyRgPYc6/OQCpE9Hnv2OXwEYjn5xHd+8eJdIicnP8NgC4Mufycn6CpGqyJERvd3chSJwneOMDcJkEC4CeA2aphlFu6CWAAJ2DeBxIkS3HvwGA4lnGNhvIL//f3xDy4wg1iEIYvgUe+47JsWe08CJEAC9ktAG3r5vdT++CEBEgg7gbixfGM7vnrzPq423IrlHwvjLWeMv2BcpH3wZg7f2lVmeDkX9uIjPwdFosg/BmwBCdg7gUA31fbOgf0ngfARgPoDe6InT59jwBIrdiz8jy+MUdQvPYYsVIjCx5i5SYAESCCGEHCkH6IYciTZjcghkCS+75MXeA2njbj8MeaKhdFWbCyDhtaIQoQRF8IGb5Cy8FnktPPzalVDx8/LzlwkQAIkEC4CWMwMxpnhKoKZSYAEAgkkTpTw9p17mj7kFzt2bCyx4R/b8CJL9usVIlx6cHMdmI//kgAJkAAJ2AsBPLU6+L9xMCx1by99Zj9JwNoEYJ8d1/n9y3e+cfxi+8fx11Y10z6xHQyurMWMCNvwbI0vw67o9EWRKDodLbaVBGIgAdxRNUsifkiABKxAQPNF5Oj47t07bbUzbcSCP23UAnlIfaQaTSGKfoMWKyBiESRAAiRg9wT8Hfze2D0EAiCB8BKIGyfg4dN3/v5+/oHDLUOJsWV4ZTTfjo4SkYMDRaLwnhzMTwIkED4CoruHrwzmJgESCCTg5Oz49sVbP4hEkIeMApFxyTPRiWTUEpic/5IACZAACdgfAZoR2d8xZ4+tTiBOLIe3eC2nKUR45629fMOLOoyyYGTk6OhsWOUsAEMvvK7Dt9Vrt2mBFIlsipeFkwAJkAAJkECEEsBY5f27dwH+WDHQIBFhgVbxo2gYtuALg5XoOF6JUIisjARIgARiLgH8NmC+WcztH3tGAhFEAEMqbcRleCcHEUgbZwWNuPywbog23MLe6KYQAR9Fogg6h1gNCZBAcALao6o2M54fEiABqxHw9fN9//59oAmRYcSiTUJzxsob/s5YcUPzXS2VaVdfYNhq1bMgEiABEiCBKEwAd37tFYL2I8EPCZBAuAjganr/4QOKwGBKE4jUx88PZt16Y6JwVRMZmSkSRQZ11kkCJEACJEACtiHg5+v3wecDBixQg/BCK5azs2+s2L6x/GL5+0ElMngpojGRbdCzVBIgARIgARIgAbshAJHowwcfqEGYYwaBKBaGXFg6xDDkcoZfSG205SQwEIper+UoEtnNWcyOkkCUJKDdNKNkw9goEoimBOBA0dfHF16IfGA+5IvBim9sX18/SEe+WKJVc2YtE86iae/YbBIgARIggXAS4NArnACZnQSEAC4lHx8fJ21evzOGWj4y4oIfaz+/AP9YAQGYcQahCKZ70UwhQu+M4haPNAmQAAmQAAmQQAwgAB0IXqu1jyYNQRsy/IdN7NDWOsMcA22agSEQA7rLLpAACZAACZAACZBA5BDQRlsYaBk+geMtw4DLMOSKnDZZo1aKRNagyDJIgATCToDPqGFnxhwk8GkCuLKCdCJNGzIMVrS1zkQlMix6pklF2oeXoXDgNwmQAAnYAwHe8+3hKLOPEUYAF5ThHZxhsGUIaSMtbcSlfYz/GMIR1iRrVUSRyFokWQ4JkECYCeC2KUYNYc7JDCRAAiEQ0MYlhg/EIePLLNkWOyKD2XMIWRlNAiRAAiQQwwkYnlgx0d/4quD/7J0FgBzFtobXY1hwS3DXiwa4uPvD3R0uHhyCuwcI7h4IDpeLJ7i7Q0gCxNAI0d2d91Wf2dpKz85kdndmM/J3kkl1dVV11VfdM9V/nzpV4q1V80QgzwSiQVdy3GXDLhuG8VnhPGoU6zKCEonyfOGoeBEQgcwENErJzEdHRaCVBNywJNyS2pCLsgPh4VaWreQiIAIiIAIlQMCZlGoTARFoPwEGV7yJs4/of9ttGocFJ3DDsOLZJBIVT1+ppiIgAiIgAiKQBYEmmagxqQdFFs/ki4YnxTRGyaKtSiICIiACIiACIiACM4aAST+RJmSDLTfKMonIVShRWaSjLq1uNmOuJ51VBERABMqTwD///DNkyJAxY8aMHTuWTxYE3XXXXWc4Cn7Oi2tp0kzEnMVQ059o8OL2oiELw5ZMGXVMBERABERABERABNpKABfO3/84dOy4CePGTRg7bvzYcf8ssVjPdXqt1NbyiiCfG3O5zV7ERcOvkhhrSSQqgotPVRQBERCBkiHw+uuv77TTTr45c80114wViSZPnnzwwQe/8MILJ5xwwimnnOIrVjoBN35xf/ygRUJR6XSuWiICIiACIiACBUNg9G9/LrvaNG/+Dj9op9IWiZrMhiKZyAZczd2BQyL+FuXMLYlEzd2okAiIQLETeOaZZ/r165d9K+aYY4577703+/R5Tfn++++fffbZLZ6Cei699NJLLLHEaquttuiii7aYJleRF198MTpO9qVttNFGvXv3zj79FltsMWzYsLvuuqtPnz7Z58pfyhdffPGxxx6j/PPOO++www6bbbbZ8neuDiy5SRiKbIf8oMXJQ5KIOrAbdCoREAEREIHMBK7t9+BTzw1KTVNbW/3849enxpdYzLsffHH6OTe02Kg5Zp9l2aUXW2qJhdZYbbnFFlmwxTSFFjn/fHP9M+qNz7/64cTTrn7znU8LrXp5rk80wIrMimyoVdQDLolEeb5aVLwIiEAHEvj1118HDhxoJ0S8WG655Tp16nTTTTeNHz+eSAxYevbsyRSn/v37W8xMM82U19pxlvr6+tra2m7duk33RLPPPvuyyy6LaGV1I/2OO+44zzzzjB49+p133jEhg8jdd9/9pJNOQjOaboFtS/DZZ595htj4zDvvvJTTt29fK+34449nic8RI0Y88sgjFkMNW3siNK8TTzzxuuuu++2331qbN+fpZ5llFiuTi6Fz5845L3+GFNg8LiHkLYhcVZqPzJCK6aQiIAIiIAIiEBJYfLEe884zxwP9nw8j99x1ixWWWzyMKdUwStByyyx6131Pjxs/wdq4yw4bzzvPnKNG//HWu5898vjLFrn37ludduJ+aEaFz6Fr185rrrb8FRcdt9ZGBxR+bXNcQ2+07d7OFfdW6duSw3bUNySm1hfrem855KCiREAEMhAwqT3R2FBVmbOvi5tvvplJQ5z0iiuuOOKII+zsG2644XvvvUf4+eefX3fddQkgu/z73/9GUUIXGDVqlCXLx+fKK6/8/fffr7rqqoMGtfCWrMUz/vLLL0sttZQd+uSTT7AesjD1vOyyyxC8bBfV5qCDDmqxhHZG7rHHHk899RSFvPrqq2ussQaBCRMmMCnMiv3rr7/q6uoIo1ttvPHGBBCS7rzzTjvaqs/11lvvww8/pGRcFLUqY24TsyYFchUd9J///IdLJbeFz5DS3nvvgx8GD66tqa3rVNe5U+cuXbp0RaTs2q1L165dunQmpraurqamprq6uqqqCk9MBeKMqa6mqrqaxWK1NRFonFCRmNK0o/9FQAREIAcEbOjFD1/V1JFVFZNzUGKOivh1+OgFl9rKCrv31vPQRHJUcHEU8/Mvo3ous7XV9ZuPHl1qiYUtPHLUHxdefvv1N/e33ZuuPf2wA3e0cIF/Dh/x2wJLbkklmW524zWnFXht21y9v8dOeOalr3kZzDtphliMuNx4q6vbOnfp3KlTbR0WcYy4GG9VuUlneR9xVc/KSdrcnDCjq642ERABESglAttss41XiFps19xzz/3AAw+0eCi3kZgRtbbABRdc0CsyYV4Mdq688sq7777bIo855hhEnDBBbsOobKYQpSu2V69eTExLd7SI4vnZPvbYYwcMGFAaClERkVdVRUAEREAERMAILDD/3Esu3tPCyyy1SLlh6bHgPHPPNXtqq7Gxuu6Kkx+66yI7dPixF730qnvrqU0E8k1AIlG+Cat8ERCBjiaAc5npnhLnPkzmmm6yQkuw8847e2mGeWffffddPmqISpWNmRIefFrUs/JRJZUpAiIgAiIgAiIgAmVIYLedNrviwuOs4Tvu2fub734qQwhqcgcTkE+iDgau04mACOSRwCqrrHLppZf66VqZz3TyySeTPpaGddmZA/Xll1/26NEDD0GLLbaYGYhaMmaoYaTts2BcilESPnqGDx8eRs4555x4PiJmyhQ3W4T1s5ilZQkwQCWXT9yGwCGHHHL99ddTE1wXHXnkkS+99FJqIZlbkZo+jEE723vvvW1OWRifGqYhzHqj+bFD48aN+/rrr2FI/DLLLINnqJlnnjmWJnWX5nhKdhTXReAKU0Ly888//+ijjyiQ3qGjQy9CWNFTCORtY6YeGtbvv//+5ptv0kHzzTffmmuuyWdY4MSJE2FlGw3xxlOxPg2zEMau2Fw1+Xiuih9++IFZjZMmTaJiNHnWWbH4TW4tVuzvv//GFowarrPOOnk3P26qif4XAREQAREQgeIiMHnylDFjx48ZO+7vv/+h5quvuiy/qm+/9/nX3/7Uqa52s417eRsc1l8f+MaH3//4c+fOdWusumwGDz6Dh/z64cdfDx02gjnYiyw8/2Yb9aqtbfmh+Kehwz/57NshQ0fMPHPX5ZddzJs7URMmcHfpMs2Ijqp++sX3H3z01cwzdSMxJlHUJCe0jzxkl2v6PfDLr6NxXXTwURe88eLtqcVmf/aJEyd/+sV3EOjUqY4W/XutlcOxri+ZyW5ffPUjnGfvPgsuopZecuG6ulp/NBaYNGnKZ19+/9En3zDHatGFF1yop/NomWHLXFu6mJaOGTP+7zHj6H0qSS//9ffYl197f+65uq+79r80cMrANieHWr4fclK0ChEBERCBDiawerRledIVos0nZmoYi4tdc801xCywwAKoMATwfn3bbbeZb2YEhSWXXNKnJ4D3aBQl8zrk49Embr/9dhzu+JgvvviCSWS2ix0QM8X8oTYEmPB86qmnHn300eR9++23WSkMb9y+nOm2wqdMF9hll13SHUqN32677cJItJIbb7wR9S2MJIyqtf/++2f+Rb/hhhtiJmDkOuCAA3xRuMqmEHYRVszjNd300EMPeaXviSeeQN7y6W+99VYcOZ155pk+BhdUpPfTytCPFlpoofCod1D17bffcin5Q7EA5w1tuNCt8IluLq5IaX7HuQYw9bKMsYpxReH5+6yzzrKjp59++hlnnBE7hXZFQAREQAREQAQg0HOZbVhY3VAsuvACLz7db5d9TkGM8HCOOWL3ay/rjZvnfQ4+C/XHx19+wbG9j93H71oAoeGQ/5w/4MlXZ56p61xzdrf0CBAvPnXDissnvUBaSpSUU/r0ve6mh9nl0GdffB8r6ujDd+t7+Uk+8qFHX9jjgNPZpTSr8IILzP34A1estsqyPk2bA6hRZ51y8GHHXEQJrBqGvLVQz2leemV5dsSXG2555Ojel1EO1UOFQYtZdulFn+p/VbiA2rjx/xx/ylW33/MkyQBlTrVJ/8AdFyLQpLbingee3e+wsy3ep09N5mOmW9sBT75CL/v099xy3vCRv53a5zqLOfu0Q885/VB/VIF8ENB0s3xQVZkiIAJFRgBthed8FCKcTGMSggTw1VdfoQW88soruGc2gyDUmU8//dTLEEgVHKWd2LN490A88D/zzDOoNhg0sRkFtAnb5TMUj9rMaMUVV/R5MZPx4Wxa4RPnPIBChNNrU4gefvhhLGX++OOPfv36cSJ8QmMAlfmMxx133OOPP25p6AW8L+25554+C+hQiCD58ssv4+ga1+NbbLEFugyeyL1es8kmm1AC/WK5WIgNhejQQw+94IILFlnEOThAvmGKnPUmu927d6fj9t13X3+W1MBVV131v//977XXXiMlZ7cE5557rk9JfXDPRE2QtEaOHEmgT58+HGW+3n333WfJYhU77bTTaM5WW21lR81NuC9QAREQAREQAREQAU/ghSevP2T/HWwXTYc1s1h3gelXu+64iUX2vfGhvQ46c51NDlxmqYWvvuSETTdya26wnXTmtd//ONTC9olEssm2R6IQ9Vp9hT+GvfLj509+MOheDqHp7LBH76lT68PERx5/iSlEH75+36dvP/jTl095kyXOwt8dt9vIp7/gsttRiNBH3nzpjlGDXxg/6vWtN18Hw5/V1983V7PDVl5xKX+6QW9+7MMEsjw7zUfKQSGintgi/fzNc6MGv4j089U3g3fcs1ntgsbKa+2JQsShT956YMzwgX8Me/mIg3emOettfsgd9z4Vnpow0pUpRJeef8yE0W+OHTHo5Wdu5BSxZH43m9piIPbcgL4eeO8zrrnwstu33XJdK+Txp/PolNPXs8wDEonK/AJQ80VABByBBx980OZt3X///TYjCRuTSy65hEM//fSTf9pffPHFMXixJdIwZrnjjjtIgIEMFj0EHn30UUxCzPM0sgibCRYLL7yw7fLJemekbOdmkocVgk2KLy3LVvj0uQ30798fgYwyMSbCdzhzspgLtt9++510kht5UDdWl8twRia4PfvssyTA2ApFBu9Lfl4etlpmZETJKDKkYbUuliSz0i66yL1YY2MO2mabbXbOOedEexVM+Prss8+uvvpq1CLWiUPyIx4Rh0hLwPJezC9DxvK6ksX7z2uvvRZRiYXwsCrCZMxMhDgFWpilYfqbuUg//PDDMXriSmDVMGQyW5MOiYoEpLSKYadmuTBJGzhwIDP1bDc0BLMYfYqACIiACIiACBiBlVZY8ua+p3u94KB9t3/31btPPGbvh+++5MKzj7Q0D/R//u6bz33m0WuPO2rPF57st/9e21r8Cy+/G2L86pufzARpwsRJNr9s1X8tc9Kx7l0R8tPgIb/4xAgid93/NLu777zZKisvTWDhnvNvv/X6loBcnGiDdVe13W+/H3LW+TcSvr1fn7XXdK/xunXtcnPfpI3wuRffasna+YkVlS8Bsxofzv7sjz316r0PPkfGflefuk6vlQgwG46WEsBOivXIrMzTz7nBDKz+98R1wGdsM3v3WbGZsiwHHXmeT0n6519865Y7HyNwwtF7nXzcvjb/bqP1VweFlRb7zLK2s8zcbcvN1r6gzxGWfeLESe+8eieLu9nuQj3mjRWr3ZwTkEiUc6QqUAREoMgI8CRvc38wJsIVka896oCFsSXxkagAt9xyi+2iAjAvCfMiDIjQJrbcckufLK8BnPX48r0fn1a1wmfPVQBfPKwRRmmY2+y2225hsTZHjJjevXuH8bEw9jXMw7r33nuZjod8Ex49//zz2aXk7bff3sfPP//8psUwDY2XYz7e5gayS6fgUsri6TXvp/znn3/2iQkw+kkn0/jJdIMHD/aV9+IUeVEPUZ0IhH6+KXDTTTclEhnxm2+a7eG9G6PLL7+ciYpokRgoYal00003kVibCIiACIiACIhAiwT4YWWdLw4hFSEcsGvJttkiaVqCfrHvnskl5Dm03dbrWYJhP4+0gH16Rzk4DPLxeNux8A+Dm0Wijz5N/nzjiMenXLtX0o77vQ++9JEE+lzgfsexnQlti/x6bUytCkcpYcZWheecYzaf/q+/xvpwlmfHTuq4U64gF/XcZYdNLPvkyVN9OeaW6ONPv7VZZlhChU6dWMadxewtMaZAFsCE/KgTklbzTL7zRREwRSmMsXCWtbXE8807pwWuuaw3lZl/vrneefWu6688+Y4bk2/dUstXTK4I1OSqIJUjAiIgAkVKgPll5uMGYxYUH98KfvwsjBLkIwmgKSBnHHzwwYSZEoU6g3XJiSeeGKbJa9hXjLN4c5vsW4EPHdwkpdZwpZVWwulyanw2MZzdG9r4KllGDKkwfcIgi405aLPN1jzK8SUj0iG+YIrVotBmIh2qSqza/kR0Hx7EfWkWCH1aE8MUNos3655Y4tguIg7CkJUJbUzALAFzyrx7KWJQeSwe19fhlYOtkMUzMw6qFvaf3il4q1xo+ewKiIAIiIAIiEB5EqirqwldLHt9BwfMIRDsX2zXnOn4QzN168rMqZ+GDP/XSsmpW2PH/fPeh8kR0YQJk3zKJRZb0MJffv2jj/SSSkPT+NAO/feFtwigaMT8FuEV2xKM/u2veeae3ZfTtsC0Y7/m9mZ59h8GDzOjoX+vvZLHhSUR7n7uuPfJLTdbx2S4t99LWltv3STA+dpiH2Thdz9IEhsybITZHGFshaWVT5khkGVtYyXUNbkVX3O15fkbO6rdfBCQSJQPqipTBESgmAgwm8mqy5QottSqh1O67CgTjp577rnHHnvMTEWYPRSOWlJLyG2MSVpWprdPyb4V+FG2mXSxWmEM1WaRyJ891FB8+Vj0oBCxi5a02mqr+XgLoBBhUEM4ZkBkR3EmbfITp1h77bVjeW2X5cxSRaJYyhYLj6Xxu/Smt0jCOxL9y6H111+f2XM+DQHkNtvFcVUY78OIYj6sgAiIgAiIgAiIQA4JeJOiWJlVVUlTo1g8u8yc4i9Lcb302rsPD3jxvofc9CvbcHXUFKxYZqlFWVHrux+GPf/i2yyahh0Nh15+LTl5bdMN1/QpWQLMpCgSr/LvvXx8GPh7zNj2i0QoTb5Mb2KT/dm//X6YZV+oxzRqzj57bMVfXzJrmVkYSygfaYF55p7DAkzZa2hoBBfOjCxmsUWap8LFcoW72dc2zKXwDCEgkWiGYNdJRUAECoiA11xwcowPmtSa4V4nNfLCCy9EJLJ43Nz4NbNSU+Y8JhStvJOj7FuBB27vgzmsG/HhbqvCNuuKLLFF660Qbztjck9YMtU2hYjIffbZ54MPPghn/BHJGmSWnpayZFiY14dDJ00+MieBX375JTQjikmBviPef//92CE7O3PiclINFYK/Kpar+/rrr/ETz32K06tUJtyPd911F3Z/yy233JFHHom/8NQ0qMBMafzxxx9Z25AJkuZfLDUZJ8I3Fo6oEB+Z5Mg1wIzFWDLuehyQm7urHXbYgVqlCpFcGFdccQUWcFzVu+66qzmuipWjXREQAREQgQ4j8Nvvf11y1V233vk4yg5Toh6666K//h53xHEXU4HYd/g9t5633a4n4MX5hNOuOvrwXV9/69NHHn+ZZKccv583RGKXAq3yWNPce+u5Fo59LrZIj1hMG3ZDT0DmJolCsj/7iJHJ0dTMM3XLcHbWTbOjXbt0jiULRTQWsO/atfPPv4yyNPPOM2cscYu72de2xeyK7EgC8UFPR55b5xIBERCBQiDgVQm0DOYZZVml0BiHZ7+PPvpo9tnba0uc5amffvppS4k44mdRZd8K3Ot4DztZnnG6yZhTZmm8phNm8Y6TzHt0eIgwD+Qobvj3QULaa6+98CDuRSWO+iy4Pcq+d2KnaPOuOVoiO4/6iy66aKwcHJmjERCJ6+t03q9jWbTbBgJ4i/dSHYvZcf0z7++oo44Ki0KvOfXUUy2GNKxzd+edd3p/WBaPzRpL3fk0AwYMwKEVLtLDcgijVDIT0CJZ5ZBJhW+88QZzIcNkr7/+ul+pkDQvvvjie++9xxnDNHhq99MnScOsyY8//jj0aRUmVlgEREAERCDfBBBK1thgX5t1NeD+y8yFkDcmCkUQasK0JlbpWmHN3VjjzJY5w7bovDMP33VH53bQbywBZmGsk0InPj5BrgJPPPOaFYUH69VXSToHyP7sPuXQn4dnqNLiiyX1rN//iJtC00DLiFcjFCLCfooZQluGMv0hX4d8s/JnVKDNBJrN6tpchDKKgAiIQFET8AKHLVKWTVseeughZiHxEIi7ZdJjDuPVhNTsrEyfGtnmmHHjxvGEbNl54PS21m1oRZvrkJpxmWWWsUhc+aQeZZaZRfpK+jRoK/h4uvLKK80LNbYb4QLzJMOHkdk9MbPvzz//9Bk7IEAv24psa621FnYidkZmva2zzjoWtjoT5uG/A+pTnqfggvcKkSdADH6g/C43oFeIfCTS7ZQpyREtkUOHDvUKkU9z4IEHhl4eLP6EE07wCSyAnPTyy+4Fst9Sq4QR07vvJmciWLJDDjnEp7cAd27Mr1YsgXZFQAREQATyR+DiK+80hYjlvbyT6fqGBjtjdZWbU+Y3lq5fe+MDVlx+ic/eeWjwF0+NHTHw248f222nzfy4y1J2n20WW+6duVd//DnGZ89tAN9J19zwgJXJumm+DtmffZGFkjPCPvjo69QfPl9b2mvhn4b+6iMt4JdUW33V5YqBVmIAAEAASURBVCxmySV6WiDmjCmW0e9mX1ufRYEZRUAi0Ywir/OKgAgUCgHsQWy+EgoFW6xaGAgw3yQ0kOExj9WsWNqMuSqsd7788suThakuWCXE8touT7ktxk83csKECbE0/K7zoGuTtjBlCue4tbYVsZLbubvQQguZKc0rr7zyxx9/hKVha2NT4VhfrMWJeyRGBsKSyHJdc801L7zwQliCX5jMp/FHcfqD1/DUXvMJ2hwYOXKkF/769evnrdAxdDLrIUrefPPNrfybb745diKWMkGkSK1wLJl2p0sAG5wW0yD6+HhmfvlwGGC2oN/1veZjCHBvhrc2MQ0NDVgJhWksjHWSj+TGbPGMYRqKDc/u83rvXT5GAREQAREQgY4h8M77n9uJ1ltnFX9GXA5ZOGZJdNvdTzIlbZGF5meBMz4zzNLyi4Xdff8zvlgL/PX32PU2P+T9D1v+IYsltt0JEybH4hn7nX3hzeb56KqLT9hkwzXCBFmeffFFe7A2HBlxNf3s/94ISyB81XX3n9rnOgK9VndjWrZHn5jm1QgxTz83KDpSsfP/Jf0wLtRjPjMOQiR678NpVnyzlKmfWdY2NaNiOpiARKIOBq7TiYAIdDQB7y4nfKoMK4G3EeahWAyeic3Fsu2yXDq2BoRnmWUWixk2bBiaBZO8TjrpJGKYGHXLLbfYIYwLYqewqVJUIN2DrmUMP3lGNUmFyP79+4eHbDaWmREhQBx99NHh0Va1Isw43XD4FB1bP97n5ewoKbYbW9Pd2z2dffbZPj2Bf/75h08aa2+00NqYMWQJcE7EumAW5tNQE8BuKzToYAIaxho8mXvv3aQh0jLGtDm/qFmq9GaHwAt8y8sny9WZGIcqt+SSS1o80k+o++yyyy4mL2JwdNlll/m8BJieRvf5uXLE+IpZsWFihTMQaNF/FunDFYXTpQmLnXnmmcNdHw7LIRI1sMWUYbJwOqQvJxZo0TkXacJyYlm0KwIiIALlTODvMeOt+SNGJb3nhDQmTXLSyZgx48Nv0SlTplqacePdiMJveMyx8Ph/JvhIAnVNLib9+ly4HLrlzqR/yTFjkxWwLDY4efLZgXP03GjVdfdG69lm52P3OujMk8/s+/Jr74XFnn6SGyiynXj61S+8/I6F+WRS1X6Hnv3t90O9n2l/KBbADzQ1scgHH/lfeJSm7bz3yWZGdMj+Oxz/nz3Do4SzPDsLmZ1/1uGW98jjL/n+x+YXLY88/hI1N7/USy+5yInH7E0yvFOHzfxnwsR+t7pXoUx2O2jf7a0c/HkjWln4kP9cEBpS+VbEZrdlWVsr009wG/9PctFYi9dnBxCoZjmbnJ+mMVHRyD9tIiACIjBdAolEZWVevi5YeQqLAOYx+UlkzzzzDCoA2gHuhGOPeTi7Qd/BRAjLlHvuuYeZTcyQuvHGG/F7wnJdLAfGIx/rmjOjBM0IGxPmH+Ec12xnhg8fjtcSMjK3hSXPiMR5jZnMsDKXWSXgLvfLL7/El8o777zToj9dOJGYquLF2S+mTmK88FKTV199lYZgtUSjOPVtt912xBFHpKLNphWpudLFMA7DFcugQYMQd7zQhhrC7DlkjlQHPcy9Gj16NL6ZaDLumUiAHIP3X/wNc4q+ffv6hiMAgQKYdmp6BJWH1cSQ3jgjMhwkMcuCPJGQ7969O/6DbeYXJDEJQcgjATIZHogxO2L1NIqig5j2BUCT6mCFgkMJVBhTIwCaZQc8qSpnpI84Fx6RvT9sOhFZh3Ph0eaiiy6y6qHHMYeOS4LzMr/PrJzOOOMMjuKsepVVVsGIjAqzAhpGRlQMWyrELBQiit12221TK0afcnbEiDnmmMNOkdvPX38d/udff2E2X11TjXhHM2u53GsZG7MRUcOpqTkb9uq25bYCbSutuqqSGqXm5Vq6//77vVsrS8C1gR8rmmC7pOGmMNnRl4C0h/hLA30afBuFE9CIx/fQ8ccf77NYgCskdf4g19Wcc85pCTgvsm+q8nv11VczO9LSwJr7l+szVjg3QjaSlsuV4OGnWbWMlaNdERABEWgzAX7fKxvHVxbGNwxLs7/x9qeIIAPf+Mha9Mx/X+dHiwXpF43WzBoybPhjT716571PcRRViIlXCy4wz9xzdf/2+yE33T7gtdc/JB6nznPMPuv888416ywzoW5c2+/Bjz/9lvifhvxK4rnmnG3mmbux+8vw0Zb+1YHv//jTL8+/9PbRvS+fbdaZzCf0hx9/3a1bl86da+ea01ncLLfMYv976W18LXNSnBkN+3nk9z/+/PmXP7z17qf3PPjsqNF/bNO0SPzs3Wdh8TIzz8HD0UeffP3jT7+ikhx2zEU//PjzwOdvWaLJ0Q/FxjYW/Hrj7U8uu/puqzBHKf/rbwd//+Owl15979Kr7zr+lKs+/eJ7fGzfe+v5Rx++Wyw7u9mfnalk77z/2eCffoXhXfc98/Ovo97/6KuTz7oWXGedcvDpvQ+wwtfutSINp8mPP/3qiissseD8cyP07H/YOe998CUT6x574IqFF5rfV2PZpRfBjOib74aMGv0nxkd4MsKk6ILLbrvxtqQjvx9+/AX9a8LEScsts2j2tZ04cfKHn3x96dV3/zR0OLm+/uan+eebq7q6cs45uvtTF0Jg0uSp3w3+nWFVNNxyI67m8ZYbcXEkGnFFgy0q7Mck+ap8Fb6iWhhKteF0laEc24b8LWapb0hMrW9s8ZAiRUAERMAI8OXjtsaGqsq8fF1stdVWtnJ5KnDiUxdiJxlyBk+e3pCHGIyGsBCZb775COPOlkXQfWlrrLEG2g273bq5kUe4IUmYi2WeNg8//HCvUiFAIPQcfPDBYWIfRpxqUfohAaIGTn946N1ggw3CKWY+bxjI3IowZebw1KlT/RNvasrYA7lPgGJCK0JjGSrPA3wIHO/U6G4+CwHUHPPVgr6z7LJJd4zEY53kV51/6623UIUQa3xGRCUMdugIi6GENddsXpXWIjH8YdW2nXbayeeyAH1HRgSgmLkWZaKLpcbHsofNR3uiYiYeWTKEQjSmPfdMvu5rsWJcIfmYJUcF3nvvgx8GD66tqa3rVNe5U2ea35VrtGu3Ll27dmH026kzQxgvFRWOSFRXg6zV8siGW2/rrbdGgjS8qHgIvt63tEUiL3LLe/Mx0uBMesUVV7Sj9omKxx3t06A0EcNyaWEawghSTCRkYTIfzwXMDFO/SwClmDThpDPky9133z1MgwS56aabhnPQuOyZuxqmyRRunFCRSL4Mz5RMx0RABEQgawLJkVdjY9XUkVUVzjZnhm9H977s+pv7t1iNxLgPiN9575MGPOmGW35bfdVl33vtnrU2OsBPH7ND/zls176Xn1Q1y+o+pQVQQHA4TRjpYa+Dznj86dcsHsnjjJMPOvm4fQ884ry77n/aIu+4sc8Be29HmGlZTz4zkKXNSLbE4j2xasGaiUhLxucTD125/dbNw0K0HlQhvyo8Cagn9em1+go+S2rgjnufOujI81LjicFPNsIKpj0brb96bIpZavosz87cOhZ3O+v8G30JtK7PqYf0PnYfH0MAXeyiK+489+JbwsgtN1vr9hvOTrWKwuQKNef0c27wiZG0rr7kRHyEE8McN2Q4GoK65BNMt7YITyuttYdPb4Fll170y/dbvlRiKTts9++xE5556Wu0oU6dOjHEYsTlxlu83sSzd5fOnTq5F3QISPZqjlrlXSSqnlUiUYf1vk4kAiKQFwI2UsmfSNTmSvMsynMdxgLYp2CH0uZyfEYsDhBNWH2M0rztgz+ap0DOW5F9PRkuYFCD5dSss86KvZW3v8i+hAwpIYnmgoCFOZgZEGVI3JGHMFHhsmFqHgoRuljMVK0ja1J6IhH0EG4w08NYrHPnzohBLa4kiLyLuRmTB9HEWFasRYlzxIgRrDKGRSHmPAhP6Yx6sD7773//i3ctSttoo43o0NQepMcxQ6NilLbxxhun2taRhQqTBh/bfN3hPMsvQZhaWgsxEolagKIoERCBdhEoQJGoXe1pU2Zslwb/NHyRhedjZXo/KsPaBduZHgvOM3t3HrMrsAPa80BnMnzjNacduM92mIf4Uz084IXd9z+d3eOO2vPqS5KTrfxRZod9/uWPU6fWLzD/nIsvmvTr7I/mO5Dl2Znd9tPQX4YOG4nhFcqLLVWWWjdm7X31zU8/DP65Z495l192sW5du6Sm8THoSig7v/3+9yorL41dFfHIasxx8wlSA1nWNjVj4cRIJGpdX8iSqHW8lFoEypJAwYpEZdkbanTpEChJkah0uif7lkgkyp6VUoqACGRHQCJRNpxQN+ZeZBMcRWME9PYrd6Zm6bH0VqyShnh0e78+qUcVUz4ESlgkSs7nL5++VEtFQAREQAREQAREQAREQAREQAREIJXA5ClTbCmx1VZZJvUoM7bwn018rzUyzSNLzagYESgiAhKJiqizVFUREAEREAEREAEREAEREAEREIF8EWASFj6eKR1nSYPeTLrTtpPh1QgnSkhIOAzyK8Hnqx4qVwRmHIGaGXdqnVkEREAEREAEREAEREAEREAEREAECojAg3desOFWR+CoaP0tDmXS2corLolyNHzkb088/RoK0eab9Lrp2tO7zzZLAdVYVRGBnBKQSJRTnCpMBERABERABERABERABERABESgaAksu/RiP3/z7KA3P37uhTd+HT76x59+Zn1Q/DefderBm23Ua6UVlizalqniIpAVAYlEWWFSIhEQAREQAREQAREQAREQAREQgXIgwIpmLDw/3bXnywGF2liGBOSTqAw7XU0WAREQAREQAREQAREQAREQAREQAREQgTgBiURxItoXAREQAREQAREQAREQAREQAREQAREQgTIkIJGoDDtdTRYBERABERABERABERABERABERABERCBOAGJRHEi2hcBERABERCB0iFQWVk6bVFLREAEREAEREAERKAgCZTSeEsiUUFeYqqUCJQNgURFKX2jlk23qaEFTGDylCnNN1VlTCKq1A1XwF2nqomACIhARxGorO6oM+k8IlCyBCZPbgjaxhDLbS6m+EdbEomCnlVQBERABERABIqcwJgxY2x44kYrUVvcWCXaadot8haq+iIgAiIgAu0jkKiobV8Byi0CIlDx19iJjLhMGvLv55qEouJ+KyeRSNe3CIjADCbQmJjBFdDpRaBkCIwfP/6vv/+mOSYMOZnI/Y3+lEwj1RAREAEREIH2EWis7Ny+ApRbBESgYvjIMU1SUDTSig+3UFqKVWwp1nrrqhQBESgZAo2NJdMUNUQEZjCB73/4kSGKsyBKDlea33C5WDswg+uo04uACIiACMxgAo0VnRor6mZwJXR6EShmAmPHTfx5+F9uwBVsbvRlw63K6B14ZcJbGBVXWyUSFVd/qbYiUGoE+CLFLVGDrIlKrWPVnhlAYOzYsV9++ZWNTqJRSmVlVVVVcuzS9H9ULz+emQG11ClFQAREQARmMIGqisrElMRMM7gWOr0IFDOBT776dVqBiLGVH3TxfOPusiJViOgWiUTFfG2q7iJQ5ATc02xkpjm1vjGR0KyzIu9OVX9GE3j73ffcfcTAxNShprFKVTBqccZE7r7TJgIiIAIiUI4EopcE7tm1saLL5IZu5YhAbRaBdhP46ruRg4f+0TTOcsMsN9aKhl9OK4pus+gxp1lsiXbbfeKOKqC53h11Rp1HBERABFIJVE6cNLVR9kSpYBQjAtkReHXgoNGjRjNCibZqPvlXXV3NPxeKtmkHLq7c4hqyZEdCqURABERABKZLgMfYxOTGmSZOlXOi6bJSAhGYhsC3P45656MhjKCiV3LJIZYfa7EfHYqMicgX7UyTvxh2aoqhkqqjCIhACRLgO9Osh+zLE4Fo3PgJnepqO3fWJPlC725v9kXfFXpdy6B+o0aN+uCDj/7866/o3VVylII85DbTiRiwVE/zeqsMqKiJIiACIiACcQLB0AvzbX4XGidM6Tp5amLmzpOrZTkQp6V9EYgTqK9v/PCzYV9+P9INsJJv4qprogGXfbqRV/RmrpLZZrbFyyiOfYlExdFPqqUIlCoBUxlsckxDReXYcf+MHT++c11dl66da2v0BVVA3T506NCePXvGKiS1KAakI3cnTZo0ctToIUOG/vILs+IrnA7kBiz8rWGLPmpqarmNampraqMBjBu4mBE06e3W68gK61wiIAIiIAIFQcC94OEXo5EfAv6bNLluzPhEp5pJ3TonunVxVhAFUUlVQgQKhgDD3d/+GI+b6u8G/zZlagN6ELcOIys33mrabCfSiCKVyNsTFecNpWewgrn6VBERKFcCkc7OI2v0kFtdPXnSpHHjxk/8ZWL91KlT6+unTJnM/w31bA2NDXi4dt6LeP/lPpwXI3ky6ojrBto33dTv8MOPzHwy6Q6Z+eTwKDfF5MmTnUuvygreYTGij+bCNw1ZkIVsi8Yu0UuuGp4E2JpuNz0D5LA3VJQIiIAIFBMB95Phll7iNyHBv8j2oXrchOpRf0ycOHFSorG+furkKVOmuIEXW6PbEm4hWgZg7rdDA68O6+xowNvC2TTcagFK3qIaGxr/mTglknrcGAppKPpMjrjcy7jkoIv/bXPv69yQyxkTcbu4XHmrXb4KlkiUL7IqVwREIBsC7ovTbXyTJkcq7vu1gQdcNzRhXMIHwxSnF011KhF/Ek4nciKRqUTZnEVp2kMA0r///vuggQO32Xb7Oeecw0l00270n48Iwz5SgXwQQAei2OQqZu6/aKBfVWX6UF201dbVcS+58UtkBh0NWZLGROqpfHSKyhQBERCBIiDAD4AbeDGcckIRGz8R/FDU1dcy9Jo0qbG+sWpqQ9XU+sr6+oqGhoTTiJzXSIYDbgAmmagDuhjWr7/+1rrrrp3hXPodzwAnt4cYSUVaT6T3RA8t7q6JNsZZnTrVdWLQVVvn1CKz3Y5uKwQl10dN8lJuq5Tv0iQS5ZuwyhcBEUhLgK9OJ/WYxu6+c3mb1Yi5Zq0Tg+rcm6umo9E0GlQiZCNGK0S7jYzun9ukFxmH3H8a52eeepKin37qyUMPPdxiwjPZMMUPVnwgTKNwLgk4Ua75H8AjjaiyaapZjVOGGK8wbDGpKJp05t4VV7nxiksebT6Qy7qpLBEQAREQgQImwDd/9DvOC4OEe2ngnnWrGhtrnD5UVxsOvfjNqK+urm9wgy+y2Ba1LBqANY3ACritxVo1UL828I3Hnnhmo402aB7qJlszzU/3NDvJBPovxwT8oIlyAe7uGjd93002Y3jFgMuNttxfgk4lYnMjrkghIn3ze9Qc1yu/xUkkyi9flS4CIjBdAvb9yTCFH0W+Vflu5VVVJBC5AQhH3aMtw5SaGkyKOBAds3dZHJc8NF3A7UpAp/w2evSgQQMp5fVBA3fbbfc555wrLLGp+/gRJCj1IWST57CD7Yg77myRkoovIm6hpEjkBi2MWSJjomjKWfRmi+GN2/JcORUvAiIgAiJQoASiXw9etTmFqKo6UZ2ora5prOVPpANRaX4j3BGGXtGWHHq5kVcoD0klyn3/+hegjw548rfffn/rrXc23HDd8DT+5zs1ECZTOKcEkrDthZy/OyL7O2exzTAr+VrOqUSRQlTNHYSZXlSL4hxxSSTK6SWkwkRABNpEgC9c/53LECWaS5ZUiNwwJVLrGajwlovNjWGa7J5J2aYTKlNWBFxfVFQMGPCIT/3YgAFHH3OsxRMZ9RufSd0h2jXpQhqEZ5bPQBNxBiMEGZhE94pNOGPUwh+2aMhio5YmN4r5rJPKFgEREAERKAIC/GzguZr3cKhENYmaikRg3B0pRPxuREMvJv67oRdSEa0iwFYEzSvOKhrb/73w8ujRv9GCh/o/tsWWmzrojLiiFvmffZQHwtZKHyjORhdBrYHtp/dD2yRUbhBebKMLOZHIhlt1dWZGxG3FZqNkOqkYO0giURFcl6qiCJQygehbl58/+84lwHNuIlGDt5UoJjLpxLyoviYSiJxPIm9JJCOivF4YNlIZMWLESy+96E/0yisv7bPf/nPPPRcDFjc2MX0o+i3kgy6zLTqSHLv4vArkg4CNEqMRi+mpvPpNjlqc3bMTiJwxNJHWS3RQsnfUP/noD5UpAiIgAkVAwAlEfuhVzS96tXNyV1FRx28Ex3jhwFsHfj/s7ZwbejHVP2loJIUoXx1s4y4+77+/v51j1KjRAwe+sflmGzdNOrNXQsmxlh9xFaUIkS+K+SrX60RVdEI0pGJk5eaWuRlmbrQV/XMDsGjE5TqHWylftcl/uRKJ8s9YZxABEUhPgO9ctB6+SS2J090r3PeS/fJFj75u/kw0Jd78VkeWRPyERlv6gnWkvQQATBH333dPrKCHHriv90mnJF9qJcUJ7FfoOvevqePc/7GM2s0HgRA4w/rI7s7dMm6c0rQxXomGLM29Q03ccEebCIiACIhA+REwr0T+ZzoaemElFOlElYkmM4lq54yIzbmJNH1II6/8Xis27nriqWdHjBzlz3T3PQ9ut+1W5oPT/eIjUTQNvfwAgMS+N31GBXJMIBo2GfNowOtGvsnRVvRyzsZc0YDL3UPWI9EnjzbFJ60mDQtzC7G+ITG13lkkahMBERCBbAj4cUdkJeRMmp1xc/Jf0yDFvFZb0ugz8kdUfF+72QCZ4WlspPLrr79ssdkmqZV58OFH551nHuLd25Sk/hD9n2qukppZMbkj4N9rJUctblDiFqmJesXNPLNeYbBimx+yWCB3FclBSXU1VFi6VUCycUJFYkqwr6AIiIAI5JJA6tArWsissb5hakO9G4G5tUIijSgYefH6SGbcuewFX5aNu/jccJNtfv11hI8ncE6fU7fZenN7f8rvfPROzi1o6oLNb3/0Axoyy3XYxlvWB5FIh1bnRKJo3Js0H3JDLtclYa9Qjw4dcVXPyglz0nhZEuUEowoRARFoFwH7AuWnkS9W+5kkprKRvUa+fm2KmROOzJ01KdwoJTJ0addplTktAaN7y803tZjinrvvPPW0MzEVoociGaL59YlFuO6LthazKzKHBNxYoIk2/ztrLttcqHnPd4cP5LAOKkoEREAERKDoCPBzQJ35uefXwn70sTBqaOQnpY6RV7hxtGmqmd7M5aufgczW/5HHYwoR57vltrv/b/utCbhf+WBzP/PR77x1pX3mq34q1zqgacwFfIDzyUafsHgsXWExfNrWlKMo2cmSqCi7TZUWgdIjwE8jjfKfBBig8GmBpjAxloZol7z0OBRCiwzuz8OGrdVr9XT1eeTRx+abb36b3GTTsZuFIhuzRIs68DOZrgTF54iAMU4OSBixELJRiwXsAJ+czsI5Om+Oi5ElURyoLIniRLQvAiKQYwLJsVTTAIxdNicP2Ris0Y242OOs0ZHmcVqO61H2xYEXBqBedY31f/7511Qe5597BpPOIj2iyg+3Iu83TiUKf+hT8yomJwRsHEVRnjYBB59VzJxANE28JfZZclKBrAqRJVFWmJRIBESgeAikfpMizNughK9gN0aJfkL9MCVomSyfAxi5CDrIFYlrrr4qQ2F33HH7GWec5dxJRT+LjFB4jWKOcNwblWijT1O7NUOZOtQKApHmE6Y32iYFuVFLsJHMOsI+w1wKi4AIiIAIlC2Bln4UsIuoxLKosbI64QyMEC+QjJJWBYmKJnciCb0ByuVV40AnEvc90L9FhYgz3XjzHc4zEdRt2FVVaQoRglHTiIvf/eRvfS5rprKMAA5UYV9ha9pHA9/mUZbzrOo3l6zptVxRw5MlUVF3nyovAiVIgJ9JWhX7jO2WYLMLpkmGeujQof9aabnMler/6GMLzL8AM7GjdT+THyzuYKbQoU6RuRwdzQmBcFBigxWKjUXm5ER5KkSWRHGwsiSKE9G+CIhAvgikjrKIQRsyhajpMzx7oxuracsFAUOdSDQsu3yvYcN+Tlfkueectv3227glS6OFtBh11dS61bXML0403VwiUTp47YqPBNGkPGQFMTGzAvshvLxHG5E23PIBv9uuE7chsyyJ2gBNWURABIqCAF+sbmCSlOFdlaNhSlI2inY1MsljT0aDlcTll1483XPccdttp595VhWr4trEwCgD/eZsb5u2pn7UK8fp4mxvAj8iaWJuBSbJ+6PtPY3yi4AIiIAIlBwBfiOikZcZCrnnYRxDRq/s7NnYWXZP2+jqaXe113YCNu66+95HMyhElH7zzXdut82WuOvEQZRzt4AzKXSKCgy/zB0hfZjc2l4V5cyOAPPMooTedstuGXrFKUfZlVHoqWRJVOg9pPqJQJkTiI1LYrtlDifnzTe8Q4cOWX7ZpbIpnGXOevToweusTnWdOnXuxP/8q+HFljODrmG0glhEOQSyKU1p2kkgxjm2287C851dlkRxwrIkihPRvgiIQAcRiI21YrsdVInyOI2x5WXbEkuvOnRoWjMig8EyZ3iwdoMuN9pyQy7MtyMXRclXc9HvfunoFAV7CaSOr1JjZkzlZUk0Y7jrrCIgAh1OIPza5ac03O3wupTLCS++6IIsm3oXnonO6sPgJjInarYpsjeO1ll8WiDLMpWsPQSEuj30lFcEREAERAAC4U+Jhl75uySMLZ/33Nt/ugoR1bj51ru23WaLhmiLlvxNLvDiLO6b/eBoqJy/Hpum5PA2meZASezIkqgkulGNEAEREIFcEGCkMnTIkGWXWSL7wh7q/2jPngt1xo6oM2+2nDGRmycfvNiyH9HS/inNHpdSpiMgS6I4GVkSxYloXwREQARKigCDLtrD0iyLLbny0KHDsmlbn7NO2XGHbRlpde7MqMuZFJlnoupqPEIy1Epu2RSlNCVIIHeWRDahrgQRqUkiIAIiIAJtIHDRhee3Ktddd9zBKMcbERFmcx6k4v4LWlWqEouACIiACIiACIhA6RO4594HslSIYHHrbXc3NjgD7mhrcgrpRlzOqshg+UDps1ML80ZAlkR5Q6uCRUAERKCoCDCqYFGzoUN/cpIPuk9DQ319A3/efGPQtddcbU1Z+V+r7LPPfhg5k9gZN1dVsrpZjx49F154YWdH5KyJMCTCkohJ8tWso2uz5MnLu62igqHKdjQBWRLFicuSKE5E+yIgAiJQUgQYSrEttsS/hmRnRmSNxzPRTjtu7wyJomFXkyvImqoq/rK5VBp0ldSFkn1jcmdJVJP9SZVSBERABESgtAkstNBCPXv2tPdTTiOqb5gyZQoikW81Ss+/VlmF6fC8vWIMggjExDJUoWiBB8lAnpMCIiACIiACIiACIjAdAgMHvnXbrdcnEgyseDfnXs5NnTr1iiv7vvPuB5bzwAP2XnGF5Xl5h+7jFjKr4d1crRlsuxXOzCtRciHg5sXppnNWHRaB6RGQSDQ9QjouAiIgAmVKwIk+NrvdA3BjlCq3FK75RXS2QtWRxVDSZqiqCuOiZCbLKuXIw1NABERABERABERABJoJrL/+2vZmrr6+MRKIpk6ZPLX5MMOwisp//WtFhl1EMuBCI3Jv5qItGm2RQN5jQmAK54aARKLccFQpIiACIlDsBBhy2Cgkqe5E/6H6sDU3LXqLRQTvrhi4oBFhScR7LTabXIZG5GQibSIgAiIgAiIgAiIgAtkRYAhGQhQfN+gKxl2VVWhD1UnzbV7MMZe/6bVcNEyL3udJJ8oOslJlT0AiUfaslFIEREAESp8AYw4vFTm7oCqsm5tfUjFuwdtQQ2WVs3xuEomcTmRCkRu4uPQmLU2jLpU+ObVQBERABERABERABFpHIKn1RG4eK6sYYU3zqo0RFWOsRjeuqnBjrGgjxllys58cbznz7mQ5rTu5UotAywQkErXMRbEiIAIiULYEmkYa/M/ww02D9yiIYTJ8ZaVzXO1eeEU+iaL17p1Q5DY3YnHWRO59WDRbzX/6QhQQAREQAREQAREQARFgiBW9mWPg5IZbjKAYSYXjLiJYCwTfQ4yqnCFRTbVbGSSy4Y4GXNG7OeetCEOk5tGawIpAOwlIJGonQGUXAREQgRIkwACFjfFHIjHNYIVIRiiMQxjTWAIGKtHfpC1R+GKLBCWIRk0SAREQAREQAREQgRwRYLCEQoRKlEDwSVQ1VqEHNQ+fGInxKs4NuioqEJDcCzk36gpezDmFKLlZjdjJUdVUTPkSkEhUvn2vlouACIhAjAADC1N/iLcRhzMKsvVUo6QMPBiYMPpwL76il1qRRpQctpAySu5mqVl2Kyd2Fu2KgAiIgAiIgAiIgAgYgWjIhCl2fcIJRW46vyczrUjkHFdjSZSUiFjyvtoN0him2aCLT59RARFoDwGJRO2hp7wiIAIiULIEkgOOQCGiqZEfompsmll21XwSRRPMGNnYPDP3qZFKyV4TapgIiIAIiIAIiECOCDBeCt7MMd0MmyDmlBFoPgGjKiShaLUQZ0mUNCVyAQZeqETNClFzHoVEoN0EJBK1G6EKEAEREIESIjDtkCUp+DS3LzkHjeGKE4Pc4MReYkWhZOpgdENMc16FREAEREAEREAEREAEUghEIyhcPfISztkF+eMMtZyXouR0M4Qh9tw/U4h4NeeHXjbi0rjLo1OgPQQkErWHnvKKgAiIQAkSYIThZpM1zThrHqpEThEZj9hLLj8uISYapfiRijN7tuwlSEdNEgEREAEREAEREIFcELARV9OoieGTMyaaZtwVvZBDOiLSvY8zu20XcoqSH4lxECNvKycX9VIZ5U5AIlG5XwFqvwiIgAhkIOAGHMEbLZfSRUQaUPPghN0oJhqt+HCGYnVIBERABERABERABESAoVP0Zo43bQ3RMCo5pjIyxDhBKNHIrnsnF+2yhGyUMumyOlKIBFIEckkA0VGbCIiACIiACExDgMHHNPvBTjQu8UZDbsBispGLD5IpKAIiIAIiIAIiIAIikDUBBldxa6DoFZwfZ7nRF6/ioq06KtbkInI5A3BtIpArArIkyhVJlSMCIiACJUXANJ/IpWKsXalaUGpMLIt2RUAEREAEREAEREAEWiKA9ONFHuSeaUdVbjzmpCEz1EYiIujsPEwr8mlt2NZS6YoTgVYTkEjUamTKIAIiIAIiEBJwr7W0iYAIiIAIiIAIiIAItJ6AG0Y5UyD+pgypmoZY/G+W260vXjlEoNUENN2s1ciUQQREQAREQAREQAREQAREQAREQARyTSDT47lJRqmz0nJdB5VX7gQyXYXlzkbtFwEREAEREAEREAEREAEREAEREAEREIGyISCRqGy6Wg0VAREQAREQAREQAREQAREQAREQAREQgfQEJBKlZ6MjIiACIiACIiACIiACIiACIiACIiACIlA2BCQSlU1Xq6EiIAIiIAIiIAIiIAIiIAIiIAIiIAIikJ6ARKL0bHREBERABERABERABERABERABERABERABMqGgESisulqNVQEREAEREAEREAEREAEREAEREAEREAE0hOQSJSejY6IgAiIgAiIgAiIgAiIgAiIgAiIgAiIQNkQkEhUNl2thoqACIiACIiACIiACIiACIiACIiACIhAegISidKz0REREAEREAEREAEREAEREAEREAEREAERKBsCEonKpqvVUBEQAREQAREQAREQAREQAREQAREQARFIT0AiUXo2OiICIiACIiACIiACIiACIiACIiACIiACZUNAIlHZdLUaKgIiIAIiIAIiIAIiIAIiIAIiIAIiIALpCUgkSs9GR0RABERABERABERABERABERABERABESgbAhIJCqbrlZDRUAEREAEREAEREAEREAEREAEREAERCA9AYlE6dnoiAiIgAiIgAiIgAiIgAiIgAiIgAiIgAiUDQGJRGXT1WqoCIiACIiACIiACIiACIiACIiACIiACKQnIJEoPRsdEQEREAEREAEREAEREAEREAEREAEREIGyISCRqGy6Wg0VAREQAREQAREQAREQAREQAREQAREQgfQEJBKlZ6MjIiACIiACIiACIiACIiACIiACIiACIlA2BCQSlU1Xq6EiIAIiIAIiIAIiIAIiIAIiIAIiIAIikJ6ARKL0bHREBERABERABERABERABERABERABERABMqGgESisulqNVQEREAEREAEREAEREAEREAEREAEREAE0hOQSJSejY6IgAiIgAiIgAiIgAiIgAiIgAiIgAiIQNkQkEhUNl2thoqACIiACIiACIiACIiACIiACIiACIhAegISidKz0REREAEREAEREAEREAEREAEREAEREAERKBsCEonKpqvVUBEQAREQAREQAREQAREQAREQAREQARFIT0AiUXo2OiICIiACIiACIiACIiACIiACIiACIiACZUNAIlHZdLUaKgIiIAIiIAIiIAIiIAIiIAIiIAIiIALpCUgkSs9GR0RABERABERABERABERABERABERABESgbAhIJCqbrlZDRUAEREAEREAEREAEREAEREAEREAERCA9AYlE6dnoiAiIgAiIgAiIgAiIgAiIgAiIgAiIgAiUDQGJRGXT1WqoCIiACIiACIiACIiACIiACIiACIiACKQnIJEoPRsdEQEREAEREAEREAEREAEREAEREAEREIGyISCRqGy6Wg0VAREQAREQAREQAREQAREQAREQAREQgfQEJBKlZ6MjIiACIiACIiACIiACIiACIiACIiACIlA2BCQSlU1Xq6EiIAIiIAIiIAIiIAIiIAIiIAIiIAIikJ6ARKL0bHREBERABERABERABERABERABERABERABMqGgESisulqNVQEREAEREAEREAEREAEREAEREAEREAE0hOQSJSejY6IgAiIgAiIgAiIgAiIgAiIgAiIgAiIQNkQkEhUNl2thoqACIhAbglUUpz7p00EREAEREAEREAEREAERKA0CEgkKo1+VCtEQAREoEMIVLKlP1GGQ+kz6YgIiIAIiIAIiIAIiIAIiECBEKgpkHqoGiIgAiIgAsVCIBKKEIvc/9OKRlKJiqUPVU8REAEREAEREIHCJ8A4i8FWwlc0GnfJzsPzUCAvBHSF5QWrChUBERCB0iVgtkROH2qabuZGMBZbuq1Wy0RABERABERABEQg7wRaeuFmAy0beuW9AjqBCMiSSNeACIiACIhAWgKp2k/TOMVpRFG4qimNG9VYuCkmbbE6IAIiIAIiIAIiIAIikJmAvY5LRCMsUtpIK3MWHRWB9hOQSNR+hipBBERABEqbgBuT2EYITShRVVmVYKRS6fShaTeSEdGUXP+LgAiIgAiIgAiIgAi0lYC9kHPyUGVy1OUGWm72mX22tVzlE4FMBCQSZaKjYyIgAiIgAtMQYIhSjUBUkUg0RuOVqqqkUDRNKu2IgAiIgAiIgAiIgAi0lkBM+ok0oqqqiujVXNNrueiFXfK1nZOPtIlArglIJMo1UZUnAiIgAqVLwA1JqqoZq7jRCpZEmBS5j2m20m29WiYCIiACIiACIiACeSUwrctgXs5VVSai+WZuuFXl7LWjLRHJSS6Y19qo8PIkIJGoPPtdrRYBERCBNhGoRCSy4QvmRNEoxQlF9s+NXtpUqDKJgAiIgAiIgAiIgAjECTC0qqquTkQqkRtuYc4dvJvjzR0ZNPqKU9N+uwlIJIoj5CaMR2lfBERABMqPQJovw0gRqmS6mSPCuMSNWKqcNTS7abKUHzu1uPUEuHj08zsNNnCIyDREtCMCIiACJUvAfgIjLaghbKQbaGEyxB/3ks7rQ24QRpbKykYzMgqzKJxXAmUiyUkkcldRbGQa283rdabCRUAERKAwCTSNV9xA5N/rrpf8okwkGKE0NjJicbWORCIbwExjQxQNXLCOluZemH1biLXiatH1Mk3HSCSaBod2REAERKCUCTT9BKYMnJIW3JHFUHKuGTP+k1PSmnKVMpmCahtD3pB5CQtG07QzV31Q35CYWt+Yq9LyVE5TBzdGzjWiG7J5fJpyf+apEipWBERABAqYgH1P8mlbYyMvrBL26Wwc+G2MNnuzZZ+0hjj/WcCNU9UKi4CbrDiN0lhY1ZsBtUnUV1QU+lBqBmDRKUVABESgFAkwvqJZNtzacqttm/Yq1ll7rd69j7eHVOcGMmnB7YyK2KJRmAZdub8gsJinN1CEqirjhl3JkyXHLDbdj8T0RQEICNWzMgzPCY5yFIncTZhg4IU85Lo/JxxViAiIgAiUHgE/ZKFpNnDxn76xNkAJPzmU/On0iRQQAREQAREQAREQARFIT8APumysxTs5ey1nu+RjcGXCkJeHbPRlh9IXrCPtIlBZ0VBZUc/fimjSXyQGOUmoaawbyUNNO03/t+uMbc+cO5GovKabuXsPeSiBIihtqO2Xn3KKgAiUCQF+6vja9J/Watv1YQL2i8inBcoEjpopAiIgAiIgAiIgAjknYKMplCBKdk+vwRYNtab5CA4qmBcCiYpq/lZU1FU0TqlMTOEckULE8LjaAkRgdeQkpGjYHCXIjTlPXtqTXaFlJBIxSaKiEePtae607CgplQiIgAiUKQH7wfOfRoHdEIft+kgfCNMoLAIiIAIiIAIiIAIikI4Aw6fYm7lUnYg0bJTgAxZOV6bic0cAGahTorKusX5CIjEZ/lWoQlVMM6uurGJWGgpDcmzMIevH3J16BpRULiJRorGhwk3v1yYCIiACItA6AtP9tSOBLzEM+0gFREAEREAEREAEREAEMhPwI65QZbBIMtoQK/z0kZmL1dHcEaisqunWUF9dP3U8S8uh4lWhELl/bvE5usb3TtiDuTt7x5VUFiJRAgMiN8VMmwiIgAiIQFsI2G9e5h88S9OW0pVHBERABERABERABEQgUoLSDbf8QCs1IHIdSaC6pjMdNXnSGNxaow1VV1dHn04tYg4akhGVoY/S9WNHVrXN5yp9kUgKUZsvDmUUAREQgZCAH5SEkQqLgAiIgAiIgAiIgAjkioANt0KJIXUAlhqTq7OrnGwIVNd0qus064Txv+FLvLamBp0okUAequB/t9IZclGR60QlLhJFs8xkQ5TNpa40IiACIiACIiACIiACIiACIiACM56Al4FQi3xtfKSPUWBGEaip7dSpy2zjxv7W2NBQXVNjUhEKESu+VFc0uqloxawTlbJI5DxVyw/RjLpvdF4REAEREAEREAEREAEREAEREIF2EJAw1A54+c3aqfNMkydPmvDPX3W1tY2NjehEiUQNHxUVtcWuE5WsSOQ0V7eWmTYREAEREAEREAEREAEREAEREAEREAERyCWBWWad859/xk6aNLmusTHBX2f2VVtRMbXYdaLSFIlc92BGpNXuc3kLqCwREAEREAEREAEREAEREAEREAEREIEkgVlmmWPkiCFYErE1zQ2MdKLKmmr0CDftLLkyXREhK02RyHWAljMrostQVRUBERABERABERABERABERABERCBoiLQbaZZa2o6TZo0EYXIuY+qrIyqX1tZ2eBClZWseVaRPGKHiqB5JSgSyYyoCK47VVEEREAEREAEREAEREAEREAEREAEipzAzLPOMfyXH10jKlnbrHlzK51VNibcemfuIDJFsXiYKkGRKOoB5pppEwEREAEREAEREAEREAEREAEREAEREIF8Eejefc4hg7+x0ivd3DK3sb4ZW0Mj+w2JRJFNOis1kQhfRJErIolE+boHVK4IiIAIiIAIiIAIiIAIiIAIiIAIiAAEkIS6dJlpwoRxXhtCHqqORCJiGp1uhEaBTsR0MyLcpLQC30pNJEIjcnZcBU5d1RMBERABERABERABERABERABERABESh+Al27zfT3X38wu6wadai6eUMpwqE1ZkXVlVixOJEo+lvoDS45kQjgkV+oQgev+omACIiACIiACIiACIiACIiACIiACBQ5gc6du02ZOtUJRDVOIaphq3f/EY48JvMRGRNhVVQMLS1FkcjNONMmAiIgAiIgAiIgAiIgAiIgAiIgAiIgAvkl0KlT5/qpU6dWVyELOYVoak2t04nqGyKjosZG82eNMVEVUkXh60SRo+38Euu40p1AJzOijuOtM4mACIiACIiACIiACIiACIiACIhAWROora2tb6hnmxr9i4L1DQ0NzDVjSyTwXR0ZsvBZDHpFSYlEdmEWA/ayvoXUeBEQAREQAREQAREQAREQAREQAREoDQIoQJgNRX+dVOQCSESBSlRRgVRUNEJFqYlEEXlNNyuNe02tEAEREAEREAEREAEREAEREAEREIECJ5DAYsh0IeShpEbkoiJLokaTiCqLwowI0KUmEhX4taPqiYAIiIAIiIAIiIAIiIAIiIAIiIAIlA6BRIVTg2xDGGpwglFSIXIWRDbLDJ9ExbGVjkgU2RAVB3TVUgREQAREQAREQAREQAREQAREQAREoAQIMJXJK0SRRtQkGEX/RzJRZSKR9Fhd+MJF6YhE/toqmql+vsYKiIAIiIAIiIAIiIAIiIAIiIAIiIAIFCeBSAlKNLo/bkv+z39NWxE1q6REIuNfUSGfREV0BaqqIiACIiACIiACIiACIiACIiACIlDEBNAgIjkicj8UqUTN+pAdqHDTzQgWfiNLSiQqfNyqoQiIgAiIgAiIgAiIgAiIgAiIgAiIQEkRMIsV9xmpQ00SEW00YYjpZhYo/FZLJCr8PlINRUAEREAEREAEREAEREAEREAEREAECpRAkyWRU4ncZtObnMfqIjAdijGVSBQDol0REAEREAEREAEREAEREAEREAEREAERaDUB04fcp5eKWl3GDM4gkWgGd4BOLwIiIAIiIAIiIAIiIAIiIAIiIAIiUMQEIoOhpN2Qsx6KNKKmuWbF1S6JRMXVX6qtCIiACIiACIiACIiACIiACIiACIhAARFIzi9LU6NE5LU6zcGCi5ZIVHBdogqJgAiIgAiIgAiIgAiIgAiIgAiIgAgUEYHQ+9C04SJzSySRqIiuOlVVBERABERABERABERABERABERABERABPJFQCJRvsiqXBEQAREQAREQAREQAREQAREQAREQAREoIgISiYqos1RVERABERABERABERABERABERABERABEcgXAYlE+SKrckVABERABERABERABERABERABERABESgiAhIJCqizlJVRUAEREAEREAEREAEREAEREAEREAERCBfBCQS5YusyhUBERABERABERABERABERABERABERCBIiIgkaiIOktVFQEREAEREAEREAEREAEREAEREAEREIF8EZBIlC+yKlcEREAEREAEREAEREAEREAEREAEREAEioiARKIi6ixVVQREQAREQAREQAREQAREQAREQAREQATyRUAiUb7IqlwREAEREAEREAEREIEOIzB8+PDPP/98/PjxHXZGnUgEREAEREAESo+ARKLS61O1SAREQAREQATKmsCHH3543nnnvf3222VNoWwaT3fvu+++Cy+88BJLLNGrV6955pnngAMOGDNmTNkAUENFQAREQAREIJcEJBLlkqbKEgEREIESJvB9tJVwA9W00iDQt2/f9dZb79JLL91kk03OPPPM0miUWpGOwH333Ud3Dxgw4LfffvNp+vfvf8UVV/hdBURABERABERABLInUJN9UqUUAREQAREoWwIffPDB+uuvT/PfeuutlVZaqWw50PARI0bsueee0yVQXV09//zz9+jRAwOH7bfffu65555uFiVoP4GGhobrr7/el4OCcPbZZ9fW1vqYggo8+eST11xzTTurNNNMMz399NPtLKRIs1955ZV9+vSh8ocffvihhx66yiqr+IZMmjTJhxUQAREQAREQARHInoBEouxZKaUIiIAIlC8BHrat8QTKXCSaMmXKe++916pL4bjjjttjjz1OPfXUxRdfvFUZlbi1BOidX3/91ecKrUt8ZOEEqF5rr6XCqfwMrwkdbQoRMhmzC7t163bvvffus88+VrF///vfM7yGqoAIiIAIiIAIFCMBTTcrxl5TnUVABESgQwngCPbWW2+1U95zzz0TJkzoyNP//PPPDzdt33zzTUeeusVzLbTQQjzbDxo06OCDDw4TLL300l9F22efffbUU09dcsklc801l0/w4IMPMvvpxx9/9DEK5INAly5dDjzwQF/yfvvtV7BmRL6SPrDFFlu89NJLuF7+6aefuOzRPvyhM844Y+jQocz4xP8OplLhIZ+m3AIXXnihNXmzzTZDISK84447fvLJJzfffDOUMN8rNyBqrwiIgAiIgAjkhIAsiXKCUYWIgAiIQCkTCCezIBg9++yzu+yyS4c1mKc+/9iP8oIW02GnTneirl27rhpt33777euvv27J5phjDvQjCy+22GIbb7wxznSZBYNgZJFIS1tuuSUT92aZZZZ0JSu+/QQwKllwwQUfe+yxXXfd9aCDDmp/gR1Twl577XXLLbekOxfXzJxzzslR5jByC2Amw1bOy3iNHDny7rvvNlxrrrmm54bvaja/q4AIiIAIiIAIiEBrCciSqLXElF4EREAEyo7A7bffHrb5zjvvDHfLObzUUktlaP6ss856ww03hEYfTJDBqVOGLDrUfgLdu3c/5ZRT3n333RNPPHG22WZrf4EdUAK6z7XXXpv9idBBYndl9nlLI+UPP/zgGzLvvPP6sAIiIAIiIAIiIALtJCCRqJ0AlV0EREAESpzAd999F1tKfODAgUyHKfFmZ9e8qqrp/IzOPvvsRx99dFhYDGZ4SOGyJXDZZZcxUa5Vzd9mm22YwNiqLKWUOPwKCnXYUmqj2iICIiACIiACM4TAdEa3M6ROOqkIiIAIiEDhEPAuq8Mq4WEn3FU4A4GYtdH777+fIbEOlSGBNdZYg8mJbWg4jorakKs0soSWRDPPPHNpNEqtEAEREAEREIFCICCfRIXQC6qDCIiACBQoAdaKwgsslcNXLpv3G43zlJNPPrmmpqB/RFgNfciQIaNHj1500UXnmWeeGYWYaoSnNs8yYUyL4fr6euamjRo1qq6ubskll8QLUovJUiNxK46Rxd9//43bbFzzZJ8xtaipU6dSFCuyZTCY4nTUE3dLtAvOWV4Sf/311+DBgxsbG6khXUP5LPL1zz//bLDBBpWVlak1IaYNWVosJ7eRcKb5fOKOaoEFFkhX+XQnXWSRRdZaa63//Oc/6RJkjkdd2m677bJc6z2b3sTJEb7Vx40b17lz57nnnpsWVVdXZ65Di0fpWS5dfG/jqGvhhRfOshCueZxz42yIa4kLA1/UXFdffPEFbLm0YifivvYx2fsmHzFiBJc009OoVYar2pecLjB27Ng///yTQtIliMXzRQqNP/74g6sdqqm3Cd8SNJxriduW9raqbm27B2M1TCQSdD0er9rzjRErU7siIAIiIAJFSqCgx/dFylTVFgEREIGSIfDiiy+ac1yWDZo8eTJOXqxpPLy9+uqrm266aYst5an1ggsu4Ino999/59mehx/Sb7TRRt7+CL88Tz75JAk4yrMWR9l4LGRNIl/g1Vdf/emnn7L7yy+/+EjMmsI0K6ywgq+ST8Mj01VXXfXaa6+FE7uYkLL22mvjAHvbbbf1KTsmENafMy6//PKZz4tWwuQjnPLCxKfEB8266657zjnn8NTtI8MAD5ngxbF3OA2HBORK9dhy1lln4Vr7yy+/ROyDPx1hfcEz6o033oi/7XfeeYf17J555hl6HyHj7LPPTnVVjgB30UUX3X///WE1cOfNNKgTTjgh9TGYZKgAd911F9dG2DS6ZqeddjInxMTHnlGzz4LMRGW4ovxFNWbMGNa9Yll0q+GZZ55pV1RYYQtzXeFAijAP81QmNUHv3r3XX3/9MB6H5VdccQWLkflIGkLzWfOOm8VHZg5gQNQ2GyJfrL+n2tObXHKsH4j/LK8CW/l0PZMlWVQ+1incYlxCXDlsnjariXE5od2gJqMs2/eGlcMac5dffrktQOZrHgaQJ0499dTnnnsujEQCY5du5RCnI/z1119feumlliY9uHc3AABAAElEQVT07cV9gaRl8YiqMf/fyB9cA48//jhZwlqts846W2+99VFHHZV6reJs/vnnn6dpdmvwyZWJB31uw4ceegjm1u8IfFwDK6+8MuaBLPuIVmjpEchIz6XOXYPIdeWVV/bv39+qxycyEPfp7rvvbjF8PUKMrzufgADO14877rjpimvZ34MZugz1igrAh9ufaxhf++eee25YGYVFQAREQATKjUAlv505b3N9Q2JqfWPOi81cIA1h4+VVRaKhWrPoMsPSUREQARHIjgAPOTy52bpLPP/07NnT5+NJ2D9++0gL8HDOG+lYJM/Y/iHwuuuu48EvloAX7Pg/8pF2ar/bYoAlwwcMGBAeQgXgiZSVwi2Sp1xme/G859PQFp5XTRHwkW0OHH/88f6JlGfOF154IbUoZKlXXnnFx/P8mUEXwJKCNbl4sCQ9D2xY1vCk+uabb1p2Hi8feOAB1C5fmgV4KMWixHIRQ9fgC+m///0vT32xlLY7aNAg5AxWqeNcsQToa+Tdf//9w3hqQlHhszR+qchrj9xAXmWVVRApvMTAwzNPyKh+YSFIh+hHXrmjAjTnjTfeCJ/baX5oadWqLDylH3HEEeEZCeO1BznSItdbb71QYQxTDhs2zNQ3lFCaHx6yMJd6KP2EFzAaAYobSL3yhU508cUXx4SV1DKnG4PViYeDOJLZ4KjNvYmqyCVq2iIiCFcXl1N4y9Bw2IZGUmhDPXr0iNWfKxBxkNvWcwgToI0iq6HghJEWpoP23HNPC9s1j66KIuNTIlShqrBLCdzyPj5dAM3LH6IyRx55pP/moXwuAzQdX0muQ1yA03CfhcBpp53Wt2/fMIYw1yoKEXpKGI+kCBxExsMOOyyMJ9yvXz9MnA455JBYvO2iiu68885cNhDzvRym3GOPPW677bYwJhZu1T2YrsuYschd6WnYKeCz7LLLxk6nXREQAREQgQwExo0b+/x/n6itqe3UqQ5r3K5dOnfp2rVbN/e3S+fOnYjtVFtbU1ddXYmtKD+p4a9qhmJbd6ia110tm2O3rhxKQVhpbZ7pppdINF1ESiACIiAChU9g+PDh9uzEEyMGKVT4gAMOCF+J8x6b5/zUhqDXszY8zzChmU8oEvFQxLwPpBzmrHnLl5hI9PTTT3/22WcUTjleJeGBfKuttvJnxJKIR1O/S92ooe2yXBTGEUyVYpcnfw7xhtwOUWfWoQ/FCF9CawPTFYkeffRRRCtfLM9j1MrvxgLUCtMGe2JEgsGyw4QGXvXD3z/Iffzxx0xA83lpHbm8+PK///2PxdE5irqEcYeXRVDHmMZiubCeYNkvMuLYhbXqsB7ypdELJi0BFj3Lx2NbBG3bRQCiBAvz9O49c7/88su+OygH0SoUBZAF0VbIxVPxhRdeSALCPM9jWOQfyL/66itfSY62Kgu2EqhUSGPYN1nd+AxFIsByUaHg+KMEMKDAYiVcBI1pWTTE2xNhAXfNNdcgA1kuRk3IAWY/heLwyCOPIDpwiHiEIdplyab7hG/JMn+2SiRqW28ybYp73C457ixEELNe4WLbcMMN/b2Jncuhhx7qa0tjOYT0eeyxx/pIaFg58ORmx26Ii98LlyRDNAnvBcuIDdGKK65oYQRf9FObO8b1jLxiFSAXeUlDrbwmi8jiNVBkLO53KwT916tpXE60wmrFUaQibg0aSP3RQZDG/CF/11ghYEH05EIK5V3EUOrDtwdXi5ehSY8mjgEa6TG+Cw3rAGvJuJZWWmklZBouJCvfPk866SQEa8Lgsi9YbkbfKOKRpf71r3+FWXy4tfdgui6jQCBwm4Q2cSjFqZqXP7UCIiACIiACqQQkEqUyicdIJIoT0b4IiIAIFCEBZkn06dOHh3mevc1HBnO40CN8U5hqkWq74Y8SYNYJxgUWE4pEPg3Sgzer4UShJZFPE1qIMK+EJyt/KAwwzwUVw576eJDD6CBm7EBtmTZlWfbee2/ztRSW0IZwZpGIOmAs4B9EaSAxPPm3eCLmi/F0bcY4PLM98cQT4VsmZsr4yX1mvOALCaUx/zhtR3nSpigLZ5Atdthhh9AGiodbZEGeKk1is+xUgAddwlh5eFfcTEthHpYlsE8myvm5Kkg/Bx10kMXj5sbPekN8jFlyISbedNNNpEQmW2aZZdqcxTKylvzpp59u4VAkshg0x1BnjKkDloZPbKkQgNAFeFAPJST6BbnNkvFcjc2Uz4I2iirnZYX2m2O0SiTy1WhVb4YmMEzNQzLz5YQXDxJGaFvk09DFGN34XXQiTK4ox2IwBOOq85cWxkTvvvuuT2wB7mgTSviiOP/888OjXj+KXfCWhm8evhkszNRXm5sWZqc7qIkXT+k4fwdZstAuiY7m2uPdb1gCdy7ioL9/OYQadccddyA1MgXPUtJkb2THLUMC314SIGqj5pjUzi5CUqyefFPRBabqkgBhF1XLK1DIZDFdyU7atnvQ8qL3Me/SwvbJnGLMx6iqPy/f/F5SD1MqLAIiIAIikI5AiYlEmpeVrqMVLwIiIAJlTYBHLJNReFDxXlR5VjQDEEOTeTYEaXr16pUZIk8mmRNkfxQByD/O8SY8phBRDkqEf1rjwYxHxOwLb1VKnIygRGDOwNQYXyVMnD766KN0ChHlI0n46Vp4YAkVIo4iRvA8adXA4MI/zhHjp9IQ3nLLLS2NfYa5cKQyceLE8KgPh26SeFrGGAdBZ7755jPrBpLBzZsReTsdHo9TnyR5SPbF8szPY7Ptfv755z7eX04+BgMcSmM3nCjUhixWYCjc+FP4AGIlpkx+l6lGPuwDGIYAgV2ExVAhwsjIP2DTubET0a5w+h4XoS+wIwOt6k2MAX3dzGzH76655prWKcRgvObjw4A3ArJILLC8QkQMmgvWVT49VkX+evCR3CkWjl3wRCLQmAei8KrwGacbwGTPK0RcqDGFiOxc3v4Cpu2pcgzNNzMxOxdWcihEGDqha3syqGB+GiZN8LcJWbiV8Orlv3OIWW655bzZnZWJ9OYVImK6d+/uLzB2Yz1iWfhs2z1o2WOmSUhaNn2VhvjyvbLsYxQQAREQAREoKwISicqqu9VYERABEciWABqKTXzwDlbJyUyNcNYJogbmEhlKDGcbtZjMP1+1eDT7SFwRebMCcoVPqr4QHuGw6/G73uDFx7QzwJw4ptiw8XCLrQozR6xArI2ghCsT/2CZeiLUB4y2LJ6nytVWWy2WhspvvvnmPhKTBB8OxZRUEYonVZ8yXDXcRxIIF2lC20IesqM84qJAYQqB82BTdjD1Mg/TJMCYIrVFGB95MYvJQX4JKj9Xjow2dchOYZ+oCeaVJhQR2pDFSvMVCE8RhkM3MdhhhSeyZLQadQ90MWUBoc0/t3tbkrBke962GCxTwkMdFs6+N6kSTq98xfxUQYuhx73JGDRwSeZT+kB4vTGVMtSnLA2zwMKLJBU1tjOWkvsXEzNfsgVMc0SwjsVPdxcjJhw/+2T/93//58NhgDr7XTRNZpn5XQt06dLFxzD50abCYQeHlRNCM36gYtJSOFkSWydEH5/dAuGtDXA/S84nW3311X2Ys/iwD7T5HrQSwi6jAnhSs/hTTjkFOy/uTSa3hiaE/rwKiIAIiIAIlA8BiUTl09dqqQiIgAi0ggDSAKlRW2ImOeELZxLwpNSKQvOWNNSqePIJn0vDc4Zeb7EyiC1OH6bMVZia4Dd3ul5gkW+8L5LQGCGshtduiAwNQGaZZRafjGdjH7ZA2EbmfMWOpu6GBh1IeGZ348W+0PzKKwixQkLv5jiitqNho1i5iQXUYguNYbOD05bwCbkNWWI1SbeLlBM+nOMLPJbSHN8cc8wxseWlQr8toYWIzx4+gWPtFcL3aToykLk3qQlmLPQps/PQO7xM6WsY1h+XTz6+xUCqgVhqslRbNuyVLBn6Ef2CYZc3viMe//eoSBjZpRaVOWbw4MG+HO7BmM2Xz+slEosJDfR8Gh8IG0iZTOsLJTafzAdaVMBDd+ZhgT5XKHGmamoka/M96E+RLoDGx3zVFh23p8uieBEQAREQgZIkUFOSrVKjREAEREAE2kOAx3UsLCiB+RGxh3kimXHmFQ1mnPm5Qu05Yzvz4ifbl5BBkYm9Ice1h735R8vIkMtKRkrA44w/S2qAZZJs5hdeWpiWYgl4UkUQYVJJi0+MvpDw6fSxxx5r8YEc5zg+vRdfiKGPsPSxQ4hN4QQZTDBYt8vn8u5+fExrA6HTKFzJtOinxrvKpnAImxOWRRddlKdf/9DLjDk2lBrgMEUL/Qs5JqbItCFLls1BOmHWj/e9jYNw7Kf82Wkjc6BQAfySW77Y0IALA7GZZ57ZH7JAzOYFQ6pQ2oslLpBdVqZjCyvD7Y/PctyZh26nPZ8wZTZhxER/SYSileVFhfRCM5cHwhwbSjSOn7iSOakXKLM5l08T3lDc2unuPgpnxqtfSY1c3MW+kHwEpusv34yVMpy6zfdghjJ1SAREQAREQARCAhKJQhoKi4AIiIAIOAL+1T1eTtkyQ8GNa8y8KHP6fBwNn97DV/Gxc8X8JSOphNNDYolju/ipicXEdpkzhbJAJI5UcPPsHQxhsoQPkVQzjTB7+OBHfIviS5i+vr7e7zJ5yk9tw40Uzo/8oziWL16XwYoqdfKLLyTLAMtF+ZQIhV4r9JGxQFhP5mrFfJ2ACBsWNoy/mP0XLtlm5bQhS6wC6XaZeMj8GjM2oRV4m/YzywwmVK03fQlMCfR9SqRfcc8nSA2EzU89WmgxTLbiwkO8Y5phat1aNHtJTdbamN122w1v2aFfLUqg39kQo/FmzWp06SSeDOcKbyjvMb3F9OHRMFeLiQshsj33YCHUX3UQAREQAREofAISiQq/j1RDERABEehoAjbdhofkdIKL98xCzZghMsNFovDBCa9A6Xh59cQSsGq4BWLx6bJnGc+MEh5xQwexyEZ4yWXdonQlYHHjD6GkoF/43RYD4ZQuFh3D4ZEt+43pBw68EVxoEQ5NLJIS6EpWLGqxqFZFhv3OA3zMT3ZqUeGUMab8IEDgKtjrVj49ditsl1xyScytbxuy+DIzBwCCmnbddddZMgziTCTCR7JZgfl12Xw5sWqzWvwcc8zhj6YG6ILYVM3UNAUSg7UgvnXMeJAqAQfXY6wQj37nfT+32ZIocxspFlWOaylcPN6yIN7hbJ7l0ribwgs+c4F2lOlmPlmGLwTShApUqk8iX0jhBNpzDxZOK1QTERABERCBQiYgkaiQe0d1EwEREIEZQIC5S2YxwVpFqZ5orUJMMfMr7PAYyTSNFl20dFjteYb0z/DeFW7q2UO/yBzlYdjSLLjggswmi80VimVP59Yklsx2MYpBd8AIwh/F//dnn30W+qzxhwjge8Xv4hMk9H/s4zME0DtYZwqpjudqxCD0C4D4x3u6Bg9ToT/jDEVlPkSx/hmV6WCtrSfWTNh8oSoixIQTguykOAam/NicvjZkydwEfxQZyItE2M4wL4+zM9cP8yIsm0KH35YlNlGILk7nlcmfovAD2DqxnJbnwB3B7oEHHmjCSuiTKE8iEYg4Kao0NwsT3LxQ5dExF4wLm++i2Pr0PkGLgVDdzvCFQN7QQjCz6tfiiTo+sp33YMdXWGcUAREQAREoOgJyXF10XaYKi4AIiEB+CZjLalx1pFOIOH241De73qtIfmuWvvRwKW6vFqUm//vvv8NI76KIqTRoE3iizbCF01LCQtKFebLde++9/VGkBx6Dw6duf4hAKEmwulB4KMswkk2vXr0sMVIRChHP3pgvoRnh1ZvezLKczMlCKXDEiBGZE7d4FPUBpzM8+eNiCfuR8GGe9CeddFJqrjZkSS0kNYa2bLTRRj7eVsfDJosY1qXy8T6A/5qwm0aOHOkPFW+AJb28QkRf0CkYc3nTm/ByzdN0M48O31WYFLHAGRpibHVCrpYnnnjCp8wmgKMunyxzT4VLqoWXt89eaIGwkm27BwutRaqPCIiACIhAoRGQSFRoPaL6iIAIiMCMJDBmzBhb4zzVa29YLR5UzCGxRZIFjy1hgjyFw6fW8BThtKZw5a8wDeHY42K+nQpfddVV4RMdjm/SOXgKzXzQd7JZhixsGjPLcALNZC5UIUx1eO6lpaNGjcLFDNO7pusKNywqcxgpyicYNGiQD083gPqz0047hVYbTMdDoWCe4MUXX+yzI2/5pdbbkMWXk2UAx0M+JVrJq6++ynw9SILRx4eBsDe9oVaYoLjC0GZROV9nDNDCBhLv52MSDqdl+SztDHz88cdMavMe0CgNr2HY3OGlCK9eoQ9p71s6yzOGfuhxPZbue4PSwq+LojANa/M9mCU6JRMBERABERABiUS6BkRABERABJoJPProo7azzTbbNMe2FGKxZB+N8c6LL77od30gXJnIP/z7o20ItLjsF+WE63alWx2MZGElsVbIrSui1OZgkeGXObOjOAx65513UlPGfDY//PDDqWl8zK233hqubkY8U9vMBzOSEHoTT9qpC2/57O0JhBZbLMUduoKKFUt9kF2sVhxCIEOxYtJQLBn+mzAs8lMXOeoFsjZkiRU+3V18KnlTJqpq1zymNOkujFC2uOmmm0LNK3YuJmyiuWSewBjL0vG74cKF2J2Fsq9VJnS8nQ9LIlQqejkUqjwEPG3hpsr3DjKoP5RNwBsJkpiefffdd1vMxbJr/hKFwGKLLdZisoKKbPM9WFCtUGVEQAREQAQKmYBEokLuHdVNBERABDqUANZAZuqCQcF0l/36v//7v7ByTBIJdy0cmupgo5H6Pj9cuj7DI7cvOd1ULJzjhDOqQjHI5yUQSjb4XgkP5SnM4uKxE2EoEbqptvMi6zD3yteBSU8TJ070u2GAeTfHHXcchhKhXoYNkaW59tprmTGEE5bw8T7M3s7wBhtsEAolfqZSarHnnHMOPoa8R3ObwQSK0DjF5wqnF80222wW34YsvsAsA9hYHXbYYWFilIJddtkljAnDuHP2uwijHruPtABXMhIqPo/SGY7F0mezmw+9KZQascVLlYHCzko9mk21M6fp1KkTCfhm8Np0mJ4rwS+Hh6Ou8NB0w126dPFe20mMaVKLWfBE5uO5OJEs/W7BBtp8DxZsi1QxERABERCBQiMgkajQekT1EQEREIEZRoBnfnNLHAoB6WrDIxwTiPxR7ESQJ/yuBXjo8rYAxITzSthlogcLYPssPHUz2c3v+kC4bj1LZbfohpa5MOZNxnJddtlloYZikdTQO0vGp1I2bfR1SBcI5Z7QuUmYvnfv3qGARTPxf/Tnn3+GaQgfe+yxPoZ6kibmQYmjH3zwgYkaZ5xxRvhA66fJ4HR88803xw830BBZ8JONY6l11lkHX0usHeab709kgVCQahGvT4+JDcZQfhc/PihBqdofzmVwQkwy2m6Jzesw9jUXXHCBz+4D3poDpz9eJGpDFiswlDZ+//13f5YWA/vss08YjwtwE6fCSB+ee+65w4XncDIVu6RJiTyHLRLCB3pTrHBfTjYB7gWPhfQUmE0u0mTfm6Er7s8//zy8JulTVhbzTsopNjZV0yozadIkX6t0poIsGOfThC0i0kQiAkcddRSOw30yH/BlclX7SAuEzUy9U0iD6OO/fLhQUy9+7Ji8M7UFFlggnHvozzXds/iUqbXylQ/ThAW2eK+FVy+4UtXeNt+DVo2wy1qsQFhbhUVABERABMqTgESi8ux3tVoEREAEpiGAcnFWtFksiz0xWWb06NHTJAp2WCYMo57wgYeDPMgx1SvmnAjDGZ8P2wqKxVcOT7w4VMa5bPgUSjJmS2HdEDOaCG2aeGpiIfkbbrjh6aefxgoAdzb+ERQfN5jY2LnwYMIjXyheMMnLS1o8vYdKh69eqwJUEtUJ0crnoi1MBIs1n6OYqzA1yScjgFaChdGTTz4ZPhDyxH7ppZf6ZG+++SYmAyhf1BzUGBChIq2//voQYFpQzMFzaIXkSyBAYmoFjRdeeAEHQGhVffv2DRMQ5qExbAUdFHppiSVmd+ONNw6nIiIs7rzzzjyE4wuJ53C8nmM9ZEYcxx9/PBW2ErDssAB+mtC5QgmPq4hLz476ALttyGKFME3JAnxa2/1uagBBjbXMfHzoa9xHhgGahqDgY/bff3+uOi571lzHww4LyeMM26QHlDJEJZ+yVQEcEqPRhFlYIR7ps0UlJUzWqt5kSpfPy6WCbSC9j3Efdxbh2EV77rnnpmox3Ia+BK5YnDr5XQt8/fXXtlSi7WLKF96VfjoqZ1999dWZwBhm56JlIwbpMLQ1I4bvkNdee80nvvnmm1NXr2fGpSmVJKN8dNJQteHLbeuttybeCqHjUldPQ/YNHW/169fPp/enDgMx+GCMfb/xtRlenAMHDvzoo4/CEgjz3RvG/D975wEYR422YfeE0I4OAULvHCXUo3OUg1COfvTe+/3HAQGOFnrvvZfQQ01C7xw5eu81EDrpJI7t9f6P9M3K413bWXt37d31O4S1RiNpNI9WWumdT1Lc1in4d60OWvR4kQGcPIRk5RABERABERABI1CZth9wXrg0JZKNTc15SSr7RHgQDje0SCaqpX1lD04hRUAEej2BNdZYoz07BfQURimMSeKQGOSHN/Bxf3MTBfuRoGIw0EpbDTcehWkmSAxxH9zbbbfd7bffHjxp2Nl+vr0cfvbZZ2HQzlt3BntBAGJsiZzBOiPoLIx+LUFkC0aqnd2qLGQGBwN48tzBSrqsfMxkK1bkjcc688wz4yvvhEsoPvGhNcpRx0uGDxo0CPUByCEFczDaxHQimyEfOo7NqMJyhKJk7zMkwrTUeARmtMVLIR4AzshzmCbFPdPcZAYjo7C4D3eMS1HknwdB1yMP5McywJ5i8eVpuhCFO9ri02mZ4RtIbjfbbLM0fztlpSTTibC6am/xmnhEtBIkyPjjxK+am/lNabpGZphMHxRSSp+FljsQI0DH3TMNsrpWmhg9xedgxrPEWlHM9ooraHb1vffeo04hjSExxAUgu8o3h1Kg7ChWmg6Uo3iauLHuwcAKyRI3sto666wTD0B1WG+99Zhchk2c7WjG86LUBFs5jOmIS43ORIQGiu5zwgknxBMcPnz4vvvua4FJilrJJoBkm5bHvnW0HuRz1VVXjcdi2Wy+4eQh8y5YIGLllybhdQAfOz60Y5TuwYMHjxw5MtOgiUfmXuQKRfjee+9lmaR4TnDTjiGvI7nG/btQB9srMkqEmoh6y43it5BbBERABEQgewKTJk18fORDtTW1ffrU8dah3wx9Z+jXb8YZ3b8Z+vbFcrauT21tTV11dSXTt+kdhQ5S9reYfsjqWSsqKqcfLIsQNVmEURAREAEREIFyJtCe/sIzM0aKW7sYhTYnngRAROE9fzjt378/I67ddtst7aU6g08GuvGVYhmtMVzBoAabghAdB7+mLMyMHRDTQ+L+DK723HPPMKOES0w6Q5/aZJNNDj30UEQc7hhfNIchIhY3jO5y3KeJ/HSgEJENhqDBvilkmPsyNSlziJi29jPjTxJnmM3cvbQBKkO4Y489FhEhLf8MFxmuk3hQiBDCqqurKThMG7CwQNWKJ4UtDFYVJMKblfaUDh4hPpMuPIU5iIvJD8WE6RMD6bSrbA1G/jGDivubWRB2TEgMtsw242EOC4OIwziZZaRzjILE0+aXGeztTQbkjmSV7x7frrCCUjwbmW4mxLGyOM+CDpJZoNgi8SXsQBjNTDD4TPerRUiKsk0Tv66VJtoZ5jxpRkN801BaTUlkGabrrrsu5BBQNs+Rzd34kgT/4MCT7xunLDWdqRDhjzSDLmnhbboZ2hxaFTmhwvJ1in+j0A35LsWnxbGu+dNPPx1uF3dQcQYMGBD3wY1sxFeCio+1F+ju8kcIw7RT1o0KMxyDPzogK2qH07gDESezcDuADwRqKCkQMfPbgj/Pa2ZQ2HBlKkQEAEvmt7oLdbC9IqNEsNiyTMafVG4REAEREIFeS0CWRL226PXgIiACItB9BFArmHjCgXLBOJPNvMKm7+gpjBXThI/MnDGNi5ESRhYEZijI0fFatkwtYZkVJAlWEWYUytQ2JhYV5L1NZl7z4YP9FINDHgEHig+4eIRMSoxmGQYH0QpjBJZ5ii9XZHlhDgvakJlO4EP4zIFu13INXoy5mGvGrDpkOPbnjm8sFdLkC8AolIyhg1CUROHRKErEI4RCVInMR+tClHC7zjrQPVEQEDQz0XWcFLH4WqLaUBBYi2BHwzpQHUcpwqtMMOQpEHf4VmCPkyaaMDcQ9Y2aSzFRc/NYifhukzhFb1O9+H6SDRbK4UtlX6SO63inSHIjvqU0CEjYPAVtAl/UzG9dp9IsksBZ1sEiya2yIQIiIAJlSWBSeVkSSSQqy2+pHkoEREAERKBXEGAFa2bY2aNiTMQcrvYem+3nmEBkVzHhQVpqL6T8RUAEREAEREAEREAEsidQZiKRFu/JvugVUgREQAREQASKiwBrGFmGmHbXgUJEGEwzQtYxmQluOURABERABERABERABEQgEJBIFFDIIQIiIAIiIAIlRoDpTlnmOL6iE3NtsoylYCIgAiIgAiIgAiIgAr2KgESiXlXcelgREAEREIGyIrDhhhva87Cey+OPP97es7HOS9g4bK+99mL9oPZCyl8EREAEREAEREAERKA3E5BI1JtLX88uAiIgAiJQ2gTYpyw8ABvAseXWhAkTgg+ORCLB1kVbbrml7az0l7/8hb2u4wHkFgEREAEREAEREAEREIFAQAtXBxRyiIAIiIAIiEDpEbj55pvZuSyebzaoYve3GWeckX3fP/roo7CpGbuzs9N8HneMit9UbhEQAREQAREQARHonQTKbOFqiUS982uspxYBERABESgfAl999dXw4cOHDRv22muvZT4VO5djcHTwwQfPP//8mVflIwIiIAIiIAIiIAIikAsBiUTTp9eUSDY2NU8/XF5DJP3R3NxckUxUaxZdXtkqMREQAREQgZIgMGXKlPHjxzPjbNKkSX369JlpppnmmWcePksi88qkCIiACIiACIiACJQigTITiWpKsQyUZxEQAREQAREQgUwC/fyhHe4zychHBERABERABERABEQgGwIyucmGksKIgAiIgAiIgAiIgAiIgAiIgAiIgAiIQJkTkEhU5gWsxxMBERABERABERABERABERABERABERCBbAhIJMqGksKIgAiIgAiIgAiIgAiIgAiIgAiIgAiIQJkTkEhU5gWsxxMBERABERABERABERABERABERABERCBbAhIJMqGksKIgAiIgAiIgAiIgAiIgAiIgAiIgAiIQJkTkEhU5gWsxxMBERABERABERABERABERABERABERCBbAhIJMqGksKIgAiIgAiIgAiIgAiIgAiIgAiIgAiIQJkTkEhU5gWsxxMBERABERABERABERABERABERABERCBbAhIJMqGksKIgAiIgAiIgAiIgAiIgAiIgAiIgAiIQJkTkEhU5gWsxxMBERABERABERABERABERABERABERCBbAhIJMqGksKIgAiIgAiIgAiIgAiIgAiIgAiIgAiIQJkTkEhU5gWsxxMBERABERABERABERABERABERABERCBbAhIJMqGksKIgAiIgAiIgAiIgAiIgAiIgAiIgAiIQJkTkEhU5gWsxxMBERABERABERABERABERABERABERCBbAhIJMqGksKIgAiIgAiIgAiIgAiIgAiIgAiIgAiIQJkTkEhU5gWsxxMBERABERABERABERABERABERABESgQgURTU4FS7pFky1AkSiZ7hKRuKgIiIAIiIAIiIAIiIAIiIAIiIAIi0LsI1E+r54ErK1ueurU7dqElSPG6ylEkKl7aypkIiIAIiIAIiIAIiIAIiIAIiIAIiED5EJg8eWJlRUdKUGVFKQkvpZTXLL9EsiTKEpSCiYAIiIAIiIAIiIAIiIAIiIAIiIAI5EJg/LixphFVmgWR+8TpZKPIJ5fUuz1uGYpEMGxu1pSzbv8q6YYiIAIiIAIiIAIiIAIiIAIiIAIi0MsI/PrLz+GJkYa8ROQ8OjYvClGKzVGeIlFCIlGxfdGUHxEQAREQAREQAREQAREQAREQAREoLwLjxo2dOHECz+Rsh1JHZEmESmS2RSX1yGUoElEKiebmkioFZVYEREAEREAEREAEREAEREAEREAERKDECHzz9RfOesiJQW5+mclDVS1qUenpROUmElnZJJOVjY2JEvtyKbsiIAIiIAIiIAIiIAIiIAIiIAIiIAIlQqChoeHLLz5xwlBFRZVXhtyn/UvpRGl/i//Jykok8gqRKx8cDU0SiYr/66ccioAIiIAIiIAIiIAIiIAIiIAIiEBJEvjwg3eamhImQaBCVPkj+uvEIqcbVVQmTakolScsH5Eoxh1nJXucTa2fVirFoHyKgAiIgAiIgAiIgAiIgAiIgAiIgAiUCoFff/35k4/fd+qDV4f8HycMVZtW5P74i+4DnSjaXIuTIn/A8hGJ4qCtKOqnNU2b1hj3l1sEREAEREAEREAEREAEREAEREAEREAEciHQ3Nz8xmuvmvLgxaCqaqcKVTuJKFKJ0Iv8UVlt09FyuV13xi03kcgKCYI4KKqJk6c0Nkon6s5vlO4lAiIgAiIgAiIgAiIgAiIgAiIgAuVM4NVXnh8//ndvQ+S0IFOI+Kyprq7hP39EGlEVK1pjU5T0UlEJMCk3kQjkkZiXmgE4dtzEBulEJfBVVBZFQAREQAREQAREQAREQAREQAREoNgJ/G/Uy6NHf+0kB3c4LcjJQ4hD0eFVIvyqq91lH8h9FPtjRfkrK5HI4PNkzuFVO0qFmX+//PL7lKlTS6RElE0REAEREAEREAEREAEREAEREAEREIGiI5BMJl95+bmvvvzUKw5u9hLyELKDCUS1iESp/52/FyW8POEXJPILXBfdI2VkqCbDpxw8TC1y8wETFFhNU2PTmB9+nn22WeeYfbZyeDw9gwiIgAiIgAiIgAiIgAiIgAiIgAiIQDcS+P23X19//b/jxv6WUoi8PGTWQ7WpA5XI6UToEDVeI3I6EgJFRYUz0CkJY6IyFIl8AVRQHs3Nft0oSodiStT+8uvv48dPmGfuuWaaacZu/CLpViIgAiIgAiIgAiIgAiIgAiIgAiIgAqVKoKmp8cMP3v3ow3e9PQpig61DFM0vQx+qs391dc5lshGmRP6oZE0idyQrS0Mjqig7kQhpLrLkioqturrZiXg1FFyivr7+k8++mHHGfnPNOfucc8xRqt9Q5VsEREAEREAEREAEREAEOk/gpZdeWnfddZkukRmVEUymp3xEQAR6ioDqaU+RT7vvhPHjvv76iy8+/wSdyAyI7NMtOOTnljldKCURoRDhRCXikgvgdCK3ZrU3I6LhxZiojeY37Y49flrZ5pcvx2w1JZKNTc05JtLl6DyRHWxKl0gkmhobWbi6oWGaO+qnoRNx4Eomm2fhmHmmmWaeqd8MM/Tt29fpga1/HUmhy9lQRBEQAREQAREQAREQAREoKgKDBg0aPnx4B1lK6wx3EFKXREAECkSAwezZZ589ePDg9tJXPW2PTGf9UQDSoiAgNDQ0TJ3yx8SJE8aO/e2XX38aP26sV9Ch7g9siCqZZcYy1U4G8gpRXR9/9O3bB1WBT3c43YgJTZFQlIpcSC2+etZ8zWYrO0siX8iUAX/5dGZgCHzJ5mRzbXNzSj3y6h060e9jx/7008+NLFnU1MS3oTmBKBQCofClXrI4sS/lTvsS6VQEREAEREAERCBnAjXObLuQPaecc9jdCSQbKpKJ7r6p7lfWBOgHf/Lp51gSnTHk5KWXWsKelQ5u6zekEQLrS5c1Dz2cCBQpAarqw4+MePiR4UsstoBl0QaimVVV9bSgRWiKArdgoWPc0LbDZpCh/dhkpZRIVNe3D1JRnWlDTDfz4lA1qxGFrc0Kmtv8Jl6GIhGFR9UCky9FNCIEnmTSCUWpI5qQ5tYtcqsWNfgVrlGJ0In8gZERgQnl/uOIPvyf/OJXau0QoKgyr1CgmZ7yEQER6GYCmdVTdbObi6AsbyeRKL1Yk80VrF2gQwTyRMCa7kceHUF6fC637P/h8L0telyhFQ8Od9dWJ85DhwiIQMEJWFVFIeJOjz46cptttsRhnqFKBgeX4u6CZ6433SA+7vSQ+fAGKKYguO3M3LJD3lqo1mtDffr0RSFyGpFbkqiWy4QhSksZlVBhlaFIZN9eKwMKkVqFjEfVqnUXIunBlTFFxsG1qiosiZwxkZudhkqUiOlJLrxVS0tWn4Um8Ouvv8w551wd3KWEalcHT6FLIlCKBDpuDFU3S7FMiyfPNa4jJU0kViDuZVW6DXzsspwi0DkCNOAfffTJJ598RjQ+P//iy2WWXhK3k4h8Sr4Nt4Y8as7VqncOsUKLQM4ErKN1/wMPW0oPPvzYDjv8PZ5qvIqGGhoc8ZBy54VAAI7DDr8UtTMSwlQIcyHWInKLEXlxKJphVlfnFKJqpplhQoTSEEXMS366LZHyFIkoCuoYn3B0WhBGYhgURYfzTilEVW5nuuoaZpwlnEoUjIkSROfgl9N9SidKsSvoX1CjED388EOHHno43B12f79o0BCTc61kC5oZJS4CIhAnQPV84fnn8Fl/gw1VPeNk5M4XgRq3AUi+EiuLdPgJ1HSzsijJYngI680+8OCjITMPPvjoCicf73tbzo9OFp2rcHgf34uO9b5CXDlEQAQKQcDqKSkHkQj3Qw8P32H7bex2oZ76AW5LDaXmFiI/StNzNbrYlwQbE2dk4jQEN9nM7Y3FgfmQE4tSNkQ218ytexNtatZSWKVCtTxFIuhTjlbTXIG27nji4/xcfxSRiOJtrG2qQSFCJopsiZhtZosTkZBLxf2no6AErLAeHPYAA9Hdd99j7rnnCQ0l96XA7O6ZjoLmSomLgAhAwCrj/fffh/tvm20efAxOZq0MPhZAnyKQDQGJROmUMCOSSJQOReddIWBt+LvvffDhhx+H+B9+9Mlnn325/PLL0M21gVDqdTe9Y1pxd1jg4Ahx5RABESgEAauqt995Tzzx++5/aLdddzI9l0rpq2aopNTVaJSkehqHli+3l3Y88wi8UxWQELwdkTMj8vunuz/enAixyLn9LDPMiLwGkVIhSq6AylYk4ssRLwxK1L4u1CWn6vlSYy5hY00TEmBTU23C2RE5Y6LUskR+YaLU6CguWOTra6d0AgHD+/NPPz3zzNN43nvvPf865tgUe8oRP9ckRn+8w9x86hABESgoAaueTz7x+C+//MyNXnrpxY032VTVs6DMe2fitZpullbwSZZUbErz06kIdIGANeN33e2E/vhxz33DBg48ldegNsz0404/APKdZNfxSnW94rHkFgERKAQBq6d83tlaJOJe6ES77rojDqqq03BDNWU2k/dxl1Ljo0LkrdemGWsCnTwEZD7cYkTelKjFmMgJQ854yP2t8RqSaQ2p+KVYOuUsEqVVGNOJKCQ7OG1yBVyTSNSwv5mfamYSkdOJqKKsTEQKzhGMcXttFSnkgwe8Q++8w+7z1JNP7L//gfPMMy/4vU+qzGJ/LSQehcya0haB3k4gVM87br/VWNxx+21bbfV376/q2du/Hvl9/toa1/fKb5qlnVoz0+QlEpV2GRZD7q0Zf+ONt9955/20/Lz//ocff/zZCissZ92r1EIbdJDpH7vhkB3EwpEWV6ciIAL5JUBV5bju+pszk71z6L1777Ur/pg5oFD4KhrqKQ5XU91V1dNMdjn7OLgpvKb8uB2vaCSRiKoQEvysMycaucPbEGFBRBl5AweLXJrlUuYikX0xQtGmSoq/1KiqqkRVc6K6KUGJ1iISsWQ1/7mZZmhE/B8JRDYQyvkrpgTaIUCDyJUxY8aMGPFYCHLbbbec9J9T7BI1i/JKlZl6LQGSHCJQcAJWB1kp7Mcff7Sb/fTTj08//eSgLbZMVc+oWfVNqqpnwUukjG9Q6/pcGojGSriZ6WYSiWJA5OwSAWurb7zptjZj337H3ZdcdHbUxap2izD4/9xox96b07YTkQBtRpenCIhAXghYPeXzuutvbTNBrxPt5kQKr06kaioVFD0i6ompnraJLndP4+uGo242knV4HXjXUHpN3f/F5cQhf7gY3LekSyRauCd3fPEUmhLJxqbmuE+Pu0Pdw8ER6UBOEPLzy1o+nD5kYfj0ixF5kShalUiCUf5L0mgPPu7YBx98IJ76o4+NnHe++fAxkcjqnOu1eIXPVb7Sr37x55VbBIqNgGsDvTXlRhuuP2bM9yF7/fv3f+SxkXaVaug6J75+qnoGRHJ0gYBEonRozVMrko3pnjoXgc4QsIb61VGv77zrvu3Fu+yScweuvAKtOK9MeSmeWlTDjX3ciMgPQIlrna72EpG/CIhALgRsNHTJpVdfctnV7aXz8gsj6W+ZjGv1FLdXKlwnTMOi9rh10T/W5AW2OKxNdMTjh5eHoubSBXIH97XPLmaga9GqZ+W2XYuaFqtXWBLxzBQS1S8UGAXX3Oz8KF8nGFW7jxovHVkt9T+r/sPPeNKEs7TvTb5ODfF3341OU4hI//rrrj319CHgd5ot1Y4BqD8oMv5SeDisZPOVGaUjAiIQJ2DV875774krRAT44Ycfhg9/bKstt8ZtlZPKaB0VVc84QLk7RaBO083SeLk5772lk5b26DrNFwFrxi+7/NoOErz51jtXWWVl38uy/ZzZrcf9l+pz0a6ru9UBP10SgVwJRAPOZLIDhYh73HTr0AP228tVVbe/ulsx2S2A46RdjhZrolxzo/gxApHcEikITkng8KzR0JEX3CctpPlzWolnShvCM5ZS6Tl7iyWRlUyohJziTp22EodsIx+7ZO7SK9XSybEvhORRRx5+7z13ZeZ6+MgnsVlwqrlZ9LkW0ZpC6qQ7rPqVeiXMfHD5iECPE0g1j8nVV13pu+++S8tP//7zDx/5BJ6p6ulrpqpnGiaddoaARKJ0WkksiRrSPXUuAlkTsGb8pZdHbbX1PzqOdOXl56+66kC6WG7/5tgmPX7wGb0dJwV1tzrGqKsi0DUCNho659xLzj3vko5TePW/T1NP67AjqnN7rqfs/uz1uXuDjgGE6mnHDLtwlV2vKgAbtYFBEvK8EYmcGMRHizEKt+ixUpAlURcKOLPAKFNMhJzs57SyaGKFObyI1LWbKFa2BAz1t99806ZCRCrXXH3laaef4UrJz/OjviEM+S6L18y9TkSwHquH2T6owolA6RGwWsdy8pkKEQ/zww9jHnn4oa22/nuqeia9SZGqZ+kVdPHkuLaG709pv3bLM8zmJtdH0SECXSVAM85x3vSGnSR/w023r7rKQBxurOMtRKmMvJSzRVjtnZwfD6mGdrUwFE8E2iFAJeVKc3PFdBUigt14460HH7gfDjQJ98/ZcbuqyoHT27a4mtrOreSdC4EWg8pID/Kg/YddigakZcO/d1kSha+GVUh/GjlTPqm/UokCrII5YM0KUIcectBdQ+9s7yaPPDqi//zzO8NKZ1ZZW9enjr8xeyJqYkulbS8R+YuACHSKgLWDVM8V/7zs6NGj24w7HysTPTLC6ba+TlI9ea/FYSsq+v6Kqmeb5OTZNoE6iURpYJqnyJIoDYlOsydgbz5fePG/m262bTaxrrz8gjVWXwUroj59+2ChUMeHm9FCp8u/kTPb7bIZ/WRDRGFEoFsI+NFQcsiZF5x51gXZ3PC1Uc+6CurraJ8+fVzHy807i4yJ/NxQvT7PBmSnw8TaP2c35OJHXnZqA9KefrUjS6JOF2zrCLFiRm11xWk+VNQgv9owqXU8neWNgOEdPfq7DhQibnbtNVeffMppOOifVLN2VMItIBWKzMvoFJ078pYzJSQCvZ6AdVmG3jm0PYUIQj/+8AO7nm219da8eqZ6VjVXVTfXsO5/RbVrTv3Br2Z09HqiAjB9An4kqpY8DordzVynU4cIdIGA62VVVp6R3bCT9G+46bbVVhvotm7x27d4KzY/w8JbK9jSGwSjTe9CZhRFBESgTQJUOOoUdS5LhYhErrv+lkMP2T9VTYMkQW3FsCh0wFRP2+Sdk2e89TMbBUvON4oAD2WR012KJ7LWRGz5wbOKGsom/lUInnLkiwC0Oc45+6yOExw+/NF99tt/wQUXxF7B7URXQ6tokwRdPMrIDUO9bK7y6pikropA9gRc5WxuPufsMzuOcsMN124+aBBh0IgwHWJ1N1c/3c+k+6UM1VN1s2OMumoEJBJlfBMkEmUgkUfWBGjFn3/hlRdffCXLGG+//d6bb76z5pqrufY/NdxxK3G4eS0afGZJUcFEoHMEfG2rGHL6udlHu+HG2w45eD9XTzl8ND/7KWnv5fgltU6Xul7ZI+1ayLInLJGo5YtR9oXd8qg97aJZgzarEQ298/bp5uWG66/9z8mn0uo1JaqqE0hFiWRNdaphdCNRUiA1jukmpQAiIALTJWCV68477xg9+tuOA//044+PPfoIKxM1VTW5uul03Gb/FjoVL1UrVT1TRPS3XQK+FVczHuPjqo+AxIDImTUB62WdfsZ5WcdwAa+/4dY11liVN3Em9dv4M5UCI0/1tVIw9FcE8keA2trZqnrtdTcfefhBrrfmK6vPi5mdmqrrPNTvyl8R9dKUeumaRL20tIvmsWnXOA46cL8775i+SESu77nvgQEDFmLmbXTU9WH1E1ucyL98lmpeNEWrjJQ4ASomT8DnssssMfrb6YhEhJx33nnvvf9BpsfbQhZWQ331dGueqnqW+NehW7OvNYnScWtNonQiOs+WQGjJEe4R7xNNTY2NiYaGhnPOu/iii6+0VAauvOIlF5+T4MWbf2/nmuzaGteG19X17cu6RM5VW+eWgWRpIttT1oadGnxmWwwKJwLTI0Dt42DV6ubmpqYENZWq2jhtWuP2O+w+6n9vWOx999l9zz12oS5T9dzy1CwVllqQiJrK8mF+mzPsuVkU0i1lzUFE1dPpsS/T6/lbk8h0xzLFpMcqSgK0huSL8WeWChGBb77xBgyIOHxnh3aSwzerqQFtUT6oMiUCpUrgjttvy0Yh4vF++umnEcMfo3oyDKF+OlMid9DjcTWUAPZZqiCUbxEQAREoEwKs55h+mHEQ79kYVbodKv0Mfje2DBZsbtNnHSIgAgUhEOsg+eqZqm5ptc5s+Pw0MmpndJhdX5CCWtv9FSS3SrS3EZBI1NtKvFie98wzT88+K48/PpItt230mRp+uiGoHdmno5AiIALZEDjrrCHZBLMwt9x8o9VNP9HMS0Spusnf7NNRSBEQAREQgYIRcDbXMfmH0WUFtgccVWYm5A0Q7MMPQ11G/A4+GikUrEyUsAjECEQbZkVGQC1KEVU1VjtbnJFcxGUdIlAAAlqTqABQleT0CHz77bfYKayz7nrOzMAfSD+jXn01xFtxpZXxditUczgJveqmm2489bQhNvs2ihMbf+LjOj86REAEciaAGdFCAxZigqdVT2cS1Nw8alRH1XPEiOF/32bbqGL6aDnnQgmIgAiIgAjkgYDvG6EQubkq8Z4SPSsUIvpYSb/irROLolllLaNQv2p1yrwhD3lREiIgAi0EqI90nDj3VZOa6pRcNnOurEzExzRY+jHFzM1JI0S1c1NVkXadwmsxY58tqcslArkRkEiUGz/F7hKBhRZaaMTjT2FywAwy5t8yA5ep8gsPmD8ktvfe+yy//J8JgI9rHJloW1sXewMWmSdEg1IpRAGcHCKQM4Hddt9j191299WTuplgevyLLz4/6h87hoQvueQyLlj1ZDBBf8VVT3o0biwS12pb6qm7qkMEREAERKB7CYTBoxN+GHvGmmKcrDdUVekmBzPUZLzp+lo06BxuBBodIQXLeDyF7n0U3U0EypMAdSqSiqoqqpqpegmn3saqKlWROplsZn97Z1KEQkQNpZoiGDmdyA5XUel0uT/liUlP1e0EJBJ1O3LdMEaAlsyas5gA5C67Fi/VRNJ3wU1TmJos71pA2sDUP38SS1NOERCBPBFwXQ1f0Vr1OdKrZ9RBib3Qim7fKlaesqRkREAEREAEpkOAjhHDTvv0XSqUINezoh8VYnKVcWZllduS0lkvMPZ0S1T7AShDz2jjAScfEZJY9hmiyyECIpAvAlQuDiobQpDvYjXHh0VUx9raWnszF6+nSEV2uKrt6ymJ5CtLSkcEJBLpO9CjBHxr5hvGVu1a1Op5VZy2L9UMur+u9XStIZPkidIqVo8+iW4uAmVCgE5Gyv7ZjQo43Nur2MHogddVVEL8MPTj1FVM/vPV00fw0VKROInFllMEREAERKCbCPi22LXkdJwwFUIlCjfG04lEfpcB3PSu2MnMjBR8Z8upRK71d+YJ6EQhnhwiIAL5J+CrqlNrk1UV1a7etdyC7hbdrKTfs4xa6XYcTB1Rv8tJS1GHjXSIaZ8tScglAp0nIJGo88wUIx8ErDXk0+k99ENoEWMHnRnaQNvBjADu3ZYzf+Zw1pX+cBE5LFJwxNKQUwREoOsEfPWyWkb9bFU96aCgGsWnm7lxhauh/HNikcW1z67nQDFFQAREQARyI+DbYVYjcmuXMPjktCU937mqTCTcHBW31olvyH1Py3W1XGvuhqy+m4ZRUqtfgZZE5BIBEciBAFXSjP5IA3dVFWeMgVzFDaniSx/LBfNmgSbl2qDIRkR8ugixKCGuHCLQZQISibqMThHzQsC1iFVJ1x2JJ+e7KrXYQLMGLgHcCNQNQnnJ5Q73PswJS1GbqGYxjk5uEcidAHXKGxP56un6IC2dFRKnKmII7aqnsyfy0+P9C+ioerrayf9EcbFUPXMvDqUgAiIgAp0lkGrGXSPM4BGpnxVyUX1COjTj9Kc4tzGq716lPrA5cg0/LXkU3WK5hHSIgAgUhoCvqgxuks6aKFbXXKequspNC/WdMqffumGT62xFh8X0n2SNv4XJoFLtXQQkEvWu8i6Gp6Xxsh4JDvdqyzVqrpWL581JQrU1zlTB92loCjn1lgqMQ/lnraKLyRGPKLcIiEBeCFjl4tNXtlYaLtWTW1QxdZ6+SBVW0K5u+v9dTY00XFe53ZGXzCgRERABERCBzhKgBXZyv2uJ0fT5rI4vdELz7LpeftdYrjlt3w898cRsiCsphcj1w7g1YTqbAYUXARGYLgFqlg2LbBkxTn1VbYnHObUyyYDJTfHncCpR7PBVXNWzBZhc+SEgkSg/HJVKFwjQ6vkeit8xG9U8dtD8MepMVCbwc82hO5w85HQiJxGZ/XMrSyKXmg4REIHcCFCPrLNCMr5fwikDhlaVi4oYn27mKqarnna4910cxA2HJZVbvhRbBERABESg0wRoh2NNOs16PAWadiy53diTA7c13E4essWqY404znhMuUVABPJIgPrl62m0PZmvbS01zo2WqKrutTljIldRQ1WN1VGGUURxlTmPGVNSvZmARKLeXPo99uzWGtrtcTOkTCZbmSq4UWa0uxlzc00kcupQXDy3lrHHnkE3FoFyJ+C7GvRG6HO00nARhEJHhOrp9KEaewHt9CE31kgd5U5IzycCIiACxU7ADRx9Hl3DHFeJOPEHF82R+nQLorjJxBXW8vNpCRT7kyp/IlDiBFxdQy9K03msprpHS9VZV1VTK1VTVX0FTo9V4iiU/Z4nIJGo58ug1+bA90Lc07vGrnWLiErOcBM/DKWdZB4ZVrKIojssvEWyiGnRey1SPbgI5E6A2pR688xfVz9dVYwdrhI6Vdd5Onc43NKo7sTXTVcprWLaZywBOUVABERABLqTAIPPRAX7lMXacpyurXa+wd+f+XxFV+IRujO/upcI9DoCMTW2dVWFBP0wtyaRY+I+fM0lfKq75fzd4aqtDhHIEwGJRHkCqWQ6SYCGzA9AXbQwmAxpuOaPpq+Z/91cCmDGuwAAQABJREFUF68T8cd5x4/QVoaIcoiACOROgFoW6UMm9LTudrga6Vatdn0RVyvtf/+p6pk7fKUgAiIgAvkkQAPeviWQb91bNfE04+l3z/RJD6FzERCBnAjQ7fIme/7VXFpKvkamumOcZNTQtPA6FYF8EJBIlA+KSqOrBKwv4pdqa9XkpYaaLt3Y5JVIJbI/Xb2n4omACHSCgFXGeAQqIDsqIw7h6a96qcjCpT7j4eUWAREQAREoagKpppu/5DP6LOocK3MiUMYEXP+qvcM0W0Qlq6ftBZO/CORIQCJRjgAVPQ8EfOekdTpeMPcvv0wyd0EIEYXUS63WtHQmAgUiYPUuPXGri/FlLsKgwl3SIQIiIAIiIAIiIAIiIAIiUKoEOpIqS/WZlO8SIdD2+NNnHo3IFCGzqQwCkT0Zp14tij5K5HGVTREoJQJWuyzHmcqPq5L+nwm2oS4Hc+hQQ0vpmZVXERABERABERABERABEej1BGRJ1Ou/AsUCIHMcGuUsNQpNnWoubrEUmfLRSwl4SchJtf75nRzkFaNohkIvhaLHFgEREAEREAEREAEREIGyICBLorIoRj2ECIiACIiACIiACIiACIiACIiACIiACORGQCJRbvwUWwREQAREQAREQAREQAREQAREQAREQATKgoBEorIoRj2ECIiACIiACIiACIiACIiACIiACIiACORGQCJRbvwUWwREQAREQAREQAREQAREQAREQAREQATKgoBEorIoRj2ECIiACIiACIiACIiACIiACIiACIiACORGQCJRbvwUWwREQAREQAREQAREQAREQAREQAREQATKgoBEorIoRj2ECIiACIiACIiACIiACIiACIiACIiACORGQCJRbvwUWwREQAREQAREQAREQAREQAREQAREQATKgoBEorIoRj2ECIiACIiACIiACIiACIiACIiACIiACORGQCJRbvwUWwREQAREQAREQAREQAREQAREQAREQATKgoBEorIoRj2ECIiACIiACIiACIiACIiACIiACIiACORGQCJRbvwUWwREQAREQAREQAREQAREQAREQAREQATKgoBEorIoRj2ECIiACIiACIiACIiACIiACIiACIiACORGQCJRbvwUWwREQAREQAREQAREQAREQAREQAREQATKgoBEorIoRj2ECIiACIiACIiACIiACIiACIiACIiACORGQCJRbvwUWwREQAREQAREQAREQAREQAREQAREQATKgoBEorIoRj2ECIiACIiACIiACIiACIiACIiACIiACORGQCJRbvwUWwREQAREQAREQAREQAREQAREQAREQATKgoBEorIoRj2ECIiACIiACIiACIiACIiACIiACIiACORGQCJRbvwUWwREQAREQAREQAREQAREQAREQAREQATKgoBEorIoRj2ECIiACIiACIiACIiACIiACIiACIiACORGQCJRbvwUWwREQAREQAREQAREQAREQAREQAREQATKgoBEorIoRj2ECIiACIiACIiACIiACIiACIiACIiACORGQCJRbvwUWwREQAREQAREQAREQAREQAREQAREQATKgoBEorIoRj2ECIiACIiACIiACIiACIiACIiACIiACORGQCJRbvwUWwREQAREQAREQAREQAREQAREQAREQATKgoBEorIoRj2ECIiACIiACIiACIiACIiACIiACIiACORGQCJRbvwUWwREQAREQAREQAREQAREQAREQAREQATKgoBEorIoRj2ECIiACIiACIiACIiACIiACIiACIiACORGQCJRbvwUWwREQAREQAREQAREQAREQAREQAREQATKgoBEorIoRj2ECIiACIiACIiACIiACIiACIiACIiACORGQCJRbvwUWwREQAREQAREQAREQAREQAREQAREQATKgoBEorIoRj2ECIiACIiACIiACIiACIiACIiACIiACORGQCJRbvwUWwREQAREQAREQAREQAREQAREQAREQATKgoBEorIoRj2ECIiACIiACIiACIiACIiACIiACIiACORGQCJRbvwUWwREQAREQAREQAREQAREQAREQAREQATKgoBEorIoRj2ECIiACIiACIiACIiACIiACIiACIiACORGQCJRbvwUWwREQAREQAREQAREQAREQAREQAREQATKgoBEorIoRj2ECIiACIiACIiACIiACGRLoJKjgn86REAEipqAq6rxmupPNIQv6jIrg8zVlMEz6BFEQAREQAREQAREQAREQAQ6RcBJRDb8bC0WVVYmudCppBRYBEQgXwTaqnuuovrK2tbFfN1Y6YhAioBkyBQJ/RUBERABERABERABERCBciTQxsjSeTHuNJ3ID0ErwrggOMqRhZ5JBEqHgKug5Db1v3eUTu6V05IlIEuiki26cs84erl/jRW1jeX+uHo+ERABERABERABESgIARSgZDI+YcWrQ/h6PycUud4WnwTioP/FUdU6QkEypkRFQASmQ4B6ydFSZd2ZVdJUVZ1OArosAl0gIJGoC9AUpXsIWBNoPRWnn3PgZQ59ioAI9CABKmLS18VQI6O66TxVSXuwZHRrERABEUgn4AQi99rNv3pLXaSldt0s34jziSDEv8rIksibEfnwfhSqVj1FTX9FoPAE0qQf04isTroa6w+v4VIxqbWt6nXhc6c79BYCEol6S0mX1nPST6Hlc6NQ907LvdyyzkxpPYVyKwJlSoAKaXWU5/NuV0N1iIAIiIAIlBKBqsqqiir0I5OInEaUOvCiC6aWvZRKU3ktIwKtJ3tSLauqKqioaEJU2lQtdZU0UnJVVcuo8IvmUSQSFU1RKCOtCPgm0HdQfDeF09Rl5wgnKU/9FQER6C4CVjnpm3BDpxU5R+p/1c3uKgXdRwREQAQ6RSC998TAs7rKtdlOJWIQGh0IRwxF/b8oeRdRhwiIQA8RQBWqrnJqLvdPVVPX9eIIVdW7eyh/um2ZEpBIVKYFW+KPFenkJhJF7aCNQmkQ1V0p8dJV9kucgK+R1FH3GOa2T5OKSvzhlH0REAERKFsC8f4TbkaetN5xkYhTvLBa0ByWsv0S6MGKmAAV0Gu2Cf/qLcoontXV1XGRCA/EXPyDMVERP5OyVqoEJBKVasmVWb5p5+JP5KwTUMubmW3GC67wdsu3h/FwcouACHQ7AYYVyWRV0q0sX8F4woyfrbcS79Z0e750QxEQAREQgbYJuNGkrSQXrvuRZ2Uy4fV9pxZZZ8v3tFyXLDhCDDlEQAQKTcD02figiI5WmkjkqqrVz9ajp0LnTen3KgISiXpVcRfjw9LKkS0TyEP+rKvCGJR/bggatYb+lZdvFkNIOURABApHwFVP/1YrfouqKt5oUTeb8fSVkzdaqd6KqmeclNwiIAIi0NME6GM5Rd+JPkn+X3+9td0pva5kkpFnVTJa/YTGGwOiKprz1PDTR9KHCIhAzxBYb721bXRED6u6hjWJvHBUmXSjolg9te4XWcTRMxnVXcuUgESiMi3YUnustKbNNYjVVc2+vfN2Cl4osobQe6aFL7XHVX5zIpAmKeaUliK3T8A4O63Wz4QPAal91Mqk3wQnLg8RgJAcBOAzhJejmwmoeexm4LpdewTUDrRHppv9rSD4/M+Jx5x0wr9wNPsDh1P8fZtN38peyJE3fNWMF7qMSqihdt8SHd1CIKB++smHqKOcpqoqUyz8mznX63Jbmtn3J4TvltzpJukESqgWp2c9i3OJRBEkVbMsvi35D2LY+TRHuAG1zr/Lct6uIfQ9F1whABfwTosVrsrRBQLw7EKsbouSVtZpp92WjV51I4OciRqFCAs/poJCw9dO9xH//hCF08yIvYpejzyslUKcfLxceiRLumlvIxD/+vHsaae9jUbxPG9aQdAy0LFqbqYNZyDqGmxa9XgvgPDON/VZPA9SBjmxZjleIuZTVI8Wzx4ZSzstqqyWU2aMM5/m4NH4blBVvUe1P0368VGrHnsIXE4oiv9ZrIUM+SzCWhzy1jVHbxSJVJe69l0pRKxQwdKqFi1gdXWNbxNdN8UZE7EJB3/8UYicKM0260VauXQzpViW6MW6m7f46L1W4QvDaPPJq6z43ZxE5IcUeLoaySezGQhDGbm/Ttl1//zleES580jAVwhLr6WzGCqsOSiEUFHCpTzmQUmJgBFASaiooOZT/VmtDLebj5q61AIp5dfiI1e3EUg1BU73SR3cnDJxG5xZ0TRTjq7P5Rt2a8N9I99tmSzHGzmmPFfqN9M9YmiNUw5m/FkJhJ/WniFhFZnMJJtZqcplia9KlBV/FrIVvIOPHPkiYMytkro0rXPlOlruQM5NJljWGldqeXlfVfkupYrKh9NHvgkkWSw81Sq6tB1xjzzyRciLqnmrYPnORnem14tEopaWLtbqxT27k7vuFQiE1vD4wSfiGTWLVsNSn6m2MXXVRyYk11WCgWQeHSnwLXjNJ4+3mG5SrmTdT2PUU4l+HUM0Ow+nchSCgJMY3IiPuWWDBw/mDpxy1NZUeiNod0t+Mb14y6f7R43Ex/+M+qFG1PEtROaUpiPAuNz9S4l41FOrqubwXRYXjFMKzi65cx0ikD8Czc2VTc1ViWbe66hdzh/WAqREI2CpunY85jZP1z64QY7/TOlGdlqAvPS2JJsrk01VlY0p1O63Ejd4HeEKt3a4P3Xvw7xPD/BxwlBiYmXij4rkNNXkHiiA1C191XRfD3Pwaf9F1+li+epp3xPf3eqpr0wqx73mb7KiprlyxkTljDiwwUy9MHXarv8XqUbGowxKpWUQmMcibkokG5tSndY8ptulpOyXcGpjZUMi2ZRwReqa4C4lpUiFIBDvqbjC4vADUOfwI8zUOy2qm7cpIhPeaX8LkaVekiY/QXQGmTlUU5XsU91cy2ZyqZoB4IA35XYewbPQiJzpSnMTlbXQN1L6HRNwtdBrQ/bpa6ebJM8RIvrq6D6CCXTqO6OGNkAqrIMms6GpGRsuWyIqaiJDwXgHOSjycqmrwYBU35nYV6V5SkWyIXZejM6GpuqmhJsEoaMkCISmO9Nh7QNPkekoiUcrhUzStamvaG7wTXL4oN2mI2bjTOdpDxIc3fNcyaaJlY2/896he26nu3RMwDpehEl1tVJ/rSMe9cYtjW7+pnSc8d5ytSE5S1PFzE7qpevram2rAwqch8/uhlI9a/Q1yfnGZS4S8Ss4aVrlpIZW2l7O0JRAnglEnRX7w6dz+I/UfYJOhIereD1Y91JZKr+/WIf0q2mqq0pEDZtr8Yy3c3FE8FNtX4EI+MLHgAiFSEdREHAl0lonMp945uwb0m1fkvit5Q4EptY3NDU1+w4Lep3rt8Q/i790JBKFoowcRS8STWusSTRHe2OlZ17nRUwgsw1Py6w1F2meOs0LgUTT1OamKRDmcC21O1zPlj/er5v6WuFZ+DJUNo2taBoffOQoEgLW+bLMtLyXayUA8JUpksz2umw0NM8wtWlmV22xo69kRRS38L9V4fAJlB4oofyJROU83QyDprFTqxqw4tRR3ASoQq7LYn9c3WJI6k5iuW4lUeCvZjEGJz/OpmTVxMa6vpXT+lZFr7n8KJOCaGn14nfy5RT3yJPbTTGTQpQnmPlIxlXF1NROK3TzCWkHT3zi7hBAju4hMEPfuomT/mic1uwXcKO74tZxY4trKxeKhlMryu7Jj+5S3gSkEJVu+VpDTf5d1yt2BP+Yn5x5JlBdM0Mi0dTY8AcNMgfmk1VVWFFG2hA+lEJ3NtSVTeOkEOW5jPOUnI18SMyNkFpZ1qum5glxDsnUVU1letKUhhl9Pabf5YSicFjC3VyXc3iatqOWrUiUaE7+NqWqaCa9tU1fvoGAa/A6+lUMTWXLO5YQV448EqhP9kk0NfepmJp6rRVaPC8ZxbovHRVXVzPkOqxuESIdxUUg/M61Weiht2KOcFpcz9A7cjNjv76//Daeaoo2VI1IVF3N7rk1NXRdXO8FN5+ulqXkvN5BRU+ZfwKNTdWyIco/1m5PUc11tyN3N6zrM/O0+imNjdNcQ81R01zNkl7VFTbflkLptoY6mZjiRCIdxU0gDIGKO5u9Lncz1E6rb6iYNq3O12JXhauqk9V+GweqsOGgOrfZcy4JWOUpElEe46aykmJJFIEymSLgeisdjF9MHiKwc+goHIHGyhmaG+qrk677QjPn2r5qBpbOzU1D98UVV14PV/apZarzmrASywOBtOJOO7UbtOmZh3sriawJUFf79qmdOHFydY0d1cmk2yaypgZhqIYqbDoR6eGp8sqaqwK2IsB3p1HrELVCohMR6BwBdKJxv4+pqUXDr65J0FzTAWK9P86Q+Fva54I21C5xKUSdKzeFFoFWBGbqUz/hjyRdr5oEmze4gyWtKyqw4Hbv5CwofS0zx28VsxROylAkotWb0lhZ35TnEWwplGYZ5DEatlCIaWKQdPTuLN1EzSxNk8c4U4Rquiz2v2sEyUMYZ/oyiqYX5S1vzDXTUcQErH5a0cezKbkhTqNn3TPN2O/nX36lp1JbU5uorWFN69pam1HifhOpvwWpuT37zLp79xJg5avuvaHuJgLlRqBP336J5oqmqfWupUa89waefnhJt8qNLW2EWbjhJaPWCreKdn25kdXziEA3EmC335rKafX17P6TaE74fZec2lvLaznTiXwV5p1cy9ZA3Zi7XG9VhiIRSP4o9v1Aci22so+vMWcPF3FVdWNFXeNUZ49QW1vDKNN2tLJc2Tgzv2XEwJVtP1pPuu5hBrp9ewTyW/Tt3UX+XSNAheU19NSpUxNoRM21NvQgKUoNqZ3/TSSyxJ2XDhHoJAGmLXYyhoKLgAikE6ip6TNhwqS6plrGluxNSbvtQrCXdjO7a0dTVGiuCza8bK5ITEnPk85FQAQ6SaBPTdO4CQ1Nibq6OleNmU5KAlRh1F7+D+bbnUy1KIKXm0hEe9qYSDYk1IMpiq+XMlG6BCpr+02Z+Kt7xcVIs7kZmYhnCSNKGr7waHF38OySw+wduhRVkURABFIEWJOofurUZoyfY6Z51l+hx0KFzV+dTd1Sf3sNASfnuzUXdIiACOREoLqmtn5qfcr6wC1N7FrmyiRryrEgLm6vEBWyriX1Rj2nElRkEYBAn9qKqfX1kRWRq8f8q6uqTGARSC2OzLep2n7KWWkRKzeRCPqNMoQure+gcluUBKrr+k2dMrWprskZUDIocAIOzV3LQcPHST7zHmwe8pmo0hKBXkeAoUV9fb2fweDrbQXdFNdTscPqMFDyXH97HeZe/MDS83tx4evR80agsso11LTXfuMqGmQ6VbTSiarGysq6Zq8TMe3MiUd5u2VLQlRi5pu1nMslAiLQJQKs2lpfP80ZA7o6RX/LVWMW6KAuI0hEHS1qeX5HTF3KamcjlaFIxCxfHSIgAjkSqKqumdbY6KfY+j6MG1IySd5bT/quDDbQ9por95ddro+kQwREIE8EEk1N06ZN8x0WP+agq+LWF6tOJKzf4pYlso5LcOTpzkpGBERABEQgKwK8gKuf1mC9HxpkxpQ00FEbzR4DyUpaaj/XrKXFzirdLAJFnS51vbJgpSAi0DEBxkj0uNx0UTc48t2tquomLxJVVVOLqb9uBFUIqbfjjOV+taxEImv11Ojl/rVQCiIAgcaGxoQTglKDzUo30mS86W0Skv6Ku5qXps/uIuwiIAK5E2hKNDU0NPBKixdaXh1i3MFK1k017LTMVsusKOOXr85X5c09w0qhVAiooS6VklI+i58ATTENNWNHOlFOyY+a6RqaaY5kc7UbXdLF8oPP/D+OBkv5Z6oUeyMBKum0aW7mpjcg4g07/a2mJlQijmY0ogTbQ1stdtW5pMSishKJKCEKgGLqjV9SPbMI5JvAtMZpXgCPDTWbavyrLteDQSzyvZe8NXkF6gjlm4rSE4FiJ5BIJBqbGv0LrUanDjXWJGqb8AyGge6HUiOEYi/GIs2f72UVad6ULREoIQKs7tXU1GhTzGpqqpua3MgyQVPt1oF0FtxW1wo0qilQsiXEX1kVgfwQYDXkxkZeoTdWN7qNZWupx02JSOylKrtJGNyI6lxaChF5LjeRyBWDn9ybn4JXKiLQiwk0NTZVsuMYlkNeEHedGNq/mhoGm3gk2eCmyhkZceTe9vnOUJSapalPERCBrhGgNjHSaKpq5FWW7634gYdXifzYww8/8lFtu5Y9xRIBERABEaAhZizJGkQ0042NTTa2RCNyEpE/ovdwBXqBpvcE+gqKQD4IMHShe9WI7RD/ceCqbanG9Mf8UZITzspNJKIkKrTvRj6+9EpDBGjrKpL0YKqaqhuRh1y755axdj0Yt7+NO5w8xFFy6rgKVwTKmAAV1Cm5/MfBKITD7aDjDqu47mVK6lD9TZHQ36wIuBY/q4AKJAIi0CEB1HzXpYpa6FQz7VprV8vcUZCJEaTbYbZ0UQREoDMEkpVWi6NP6275PhcbzPqKTJUrSF3uTC67ElZbxXeFmuKIQG8gEHVeGGa6kWaTO42GmjR+kUCUO4fQX1G/JXeYSkEEIGAarqlC7pOK6w/qmht88L8fg4iVCHSKQGirOxVLgUVABNokgFQTNc/WtfINNY2za62pbKnD4nLWZiK5eRYizdxypNgiUGoEkq4epw4v+dpQKarBtoegPym1J2NvxXI5QgOq6WblUqR6jh4m4MwOUq+5GGU6jcgfUcPnZaIezqJuLwIikEHAxh421jBFiIprYw+nDyEixSyJMmLLQwREQAREoPAEIltsk4QiYci11RnjybybFPk7VEoiKnwZ6w69goDVWdfPctXXul3ujx2owYECPsFd/I7yEYlgXVroi//LoRz2cgJUKN/i0WmJ5KHg8o2gG2imWsCcUKnm5oRPkUUgjYDrhFjVpKZG3RZfy9yHdVFSl0upv5L2lDoVAREQgVImYM1waKx9x8r7Ba/U07UMMlM+uf9lJkzuiSgFERCBUF8jYSjIQxgZsQZO6dYzrUmkL7cIiEDbBFxfJRLEzeU7L36I6T5srNl21E77knSn4yhCDxH49ttvf//99wn+mDhx4lprrbX44ov3UF6i2/L90cJYsSLw9SlVpXxlpYJZJUv5xkLLKQIiUH4EfvvttzFjxtBE01TzueCCC6677ro9/phqq1sXQdQ8gyU6/OXQTPPLph+31sR0VhQEvvpmzLhxEydO+mPS5CkTJ07u06dux203Loqc9UQmQjW293PIr1RnN0qyZcVKVicqN5GoJ74bpXrP7779asL4cZMnT/pj8qTJkybU1fXdfOsdSvVh8ppvkUnhjBo513dxs1Xc4Vo+Pl3jl+eDpPOcopIrDIFdd931nXfeCWlfe+21PSsSPf744wcffPCAAQNuvPHGJZZYImSs1zt8XQ011VUvVbFe/6UQgF5D4JJLLrn44ovD4+622249KxJ9+eWX++yzz08//UTGBg0aFDLWax00x9algoD1qqwX5LpYvvFOkcGMqKymfaSeK9e/7Mrw7Xc/zj7bLLP9aZZc01L8ThLYfNsjPvtidIi06MLz92aRKNW3cjXYVd/UuedD/S3VKiyRKHzDe51jv122+ObLz8JjL7jQohKJjIbIGAcbVFpfJfRaXAPojvDFKU/HY489dtVVV2X/bHPMMcftt9+effjChfz6668PO+ywTqV/ww039O/fP/sozz333Mcff7zXXnt9/vnn2ccqXMgTTzzxV3/cdtttQ4YMKdyNSirl1nXUVVn/n6/Vra+V1GMpsyLQmsCOO+74xx9/tPbr6Ozoo4/edNNNOwrRXdcKnfPTTjtt//33P/nkkx944IHueqaO7nP99de/+eabhDjzzDMlErUmZXpRaz+dtUPg+ZfefPDR515748NRr79vQWaeqd8G665y6AE7fjfm57vvf3LksMvq6mrbid0z3u++/9n/DW5RbDvOxHlDjlxl5WU6DtPjVz947d6vvvn+wsvuvP6WB3s8M0WQAT8wiolDYZxU0qMliUQ98NV6/qkRN11zUeaN/77DHtvvshf+fLf2/cdmrBOcFmbAwoudceG1aZ5dPh3xwnuYzNx49UX33nFDlxMhIhtf7b/rFpm5bTPN8IxtXi0Sz3yRKZLH6Xo22mzbgqdvErueeHHHxEr/hRdesDz+9a9/XW655fr06XPNNddMnjwZz+233x67FWz47733XvOZaaaZCvpA9f5gRtWss87a8Y3IT8j50ksvvcEGG8w444zPP/+89c5XX331ddZZZ8qUKc8880yQeOwROk42frWurm7FFVc85phjDjrooLh/T7lR6OzWc889d0/loRjvG4lC/AmVlmzG3cWYa+VJBDpFYMSIERaeRninnXb605/+9M033wwbNgzPueaaa88992xoaHjvvfdCq0iYTqXfqcBsA2rN6cwzz1xdXd1x3ELnnAwsvPDCp5xySpGIROHHq1PvJDpmWH5X/dhSrXTbBfvHlKnHn3z5Fdfey+Ut/rb2uUOOXGqJhT765Kvhj7/86MiX+GfRGpuaik0k+tOsMy+/7GLDHnn2+zG/WCb/uv5qqw1cFjfLBk6tr3/73U9fGfWuXfp97ARzFPNnbW3NUkssfOVFx0kkal1MrsfF4TxjmlHrMCVzJpGoB4pqrnnm7b/AgGF33xruPeNMM2+z4+4DFl4k+Ky0ypqvvPD0O2+OCj5/3XTLP6+0ajjN3VFTW7vI4kudes4VOYpE5GTFgWu89NyT77/zuuUqGCVRTxobGr4f/fXTjz9il3iu3HNe6BTySKbQWS1w+pH1gQ0sXZsXG232kl7MBRdccMghhxjnF1988bXXXsN9wAEHmN3+f/7zHzQXFKUCF0QFxjJIVNzl559/zlKQ2m677W6++eaaGtfIY19jIhGv0AcPHoxPY2Mjw6dHHokqZhfyXzyKDFMqzjnnHIZDGDd14UHKPIrvpvSS2lrmRanHa5/AIossggxkejGmjiYSLbnkkqeffrpFuuyyy6zpaz+NPFyhRd1jjz1ICMdGG22UTYqFznnxNNS8VGAxu3Hjxh1//PHZkOm9YdRet1X2n37+zaDtjmIpHC7efctZ/9g+sgf8+xbrH3v0XieeduW5F0ejKqahtZVAT/otNGC+S8875uxTD19t/T1RtcjKrjtttt+ef4/n6YJLb//3SZfGfYrfjVTERDMrlOLPbffksJyqr0Si7vnOtLrLcisMPOfSm3baff+dt4wWEbz1/idXWHn1EAh7gaOOO41/yDcn/cu9qz/7kpvMyCiEyZcDQQRNB5OiLidYXVNz9PGn84+smt40cLW/HHPS2fEEX3/1xd222TDuU/zu3MkU/zNOP4eutUu1eJE2Pv1IZRNiyy23DApRmw9F/3vo0KHrr79+m1fz6Mm+cp1KjVfoV199tSlEbUasra297rrrXn31VeZptRmghDyx8yqSuX4lBE1ZFYFyInDHHXcEi8I2n+vII49ERWL9sjav5t0z+xa72HKedxQhwdlnn52XLuFUDhHInkAi0bzfoUNMjGA22WabrBWPW11ddc7pR3z97Zh7hz2NfxGKRJbbfv36rrbKsiYSxfNv7mOO2mP4Ey8zmS7zUjH71NRMx2SymDOvvHVMQGuhdcyngFfjZkELLbJ4m3fafue9MTLi0tY77NJmgLx4ovLkJZ2Bq63dXjqr/WW9o447tb2rReufLzJF+4DKWMcEwlvoDoKtuuqq2Ox0EKBHLjHFYLoGR0yIwECpR7Knm4qACIhAvggwg2yllVaabmrZtOfTTSS/AUo35/nloNREoGMCN972kM3GYu2hNIUoRDzn9CPN3djYFDyLzVFZUWlZanM/1rNPO5yraF7Flm3lp3cSyI860DvZ5fjUVZXTbwUQKeaaZz5uVFtbl+PtujN6m23fXgccdceNV2G/0J050b1EoGsEBg4ceO655y611FLZRD/22GMJnxZy2rRp77///ltvvYUWs+yyy5JU3759QxhmqMVfNbPgEUZJLOz1ww8/hDDmycpHhGQVIfPHXJ+ZYrhZGIjFhkLg4Jhnnnkw5t9hh6x2KmSIwl4zc845Z4iOg5yzXNGHH344duxYVjUi86QZD9CeO+2hsGOabz7XfMWPH3/88fXXX//uu+8s5bQAPKZt2MxTzzbbbGxVxlpML730Eqtxg3HllVcmVjw1iLECiG3wTMTFFlssZJUbsT5IPHDczaIYaSuGdFxettTI+PHj7V5rrrkmTdm333773//+F5VQW6rF2cotAt1J4NRTT918882zuSMmh2effTbrqcUD07p+8cUXzCOmqaGtI0xYOodgNC9Mj4qHx0iTlpymYNKkScEfT9oiFj+ifTBPAljEqqqqeIIhCo4cc04KzD7+6KOPPvnkE4x0yDnT6/hdiN+iTTc/IuEHxQJktoc0p8xQ5ldgwQUXBAtNKw8SUmuzPeRXg987nprAa621VvznCStkFhcnTTtYN4qsWmrkhPyElNMcNPsEjnt2XF7cyH4RKAgOWmaKhrJgBiKOtddeu83eaTx9uYuQwK+/jTvmhEssY5jbtJfDRRbqv+1WGzz46PPtrZE6YeLk19/86IOPvhiw4LzLLbPoEosNaP2tTkya/Mf4CZOp3OzsvtYaKzCXijlub7z18bjxkxZfdIF11155xn4ztHf3HP0feux55m2tudqfk5PeiCc1ZUo92R4/YeKEiX/M9qeZWQaovr7h+ZfewKhq5plmXGXlpZZderF4+Lgb86tPPvvm9bc+/OOPqQsv1H/DdVfFlCkewNw8LMZN73/4BafLLbMYayfNMnMbfUsLTAX0TD5hfaiFFpxvzdWXz0ww7kP4z774dtTrH5BtUuYfyzOFAFTYSZOnTID5hEk85pKLD5h7rtnHjZ/4zPOvzz3XbOuutbIqbGDVIw6JRD2CvRM3nXe++TNDNzY2TJo4wf2bMD7RnGBJIGrau2/97/NPP2IZ6SWXXm7l1dZqr2pRY7/+8tP333lj6pQp8y+w0IqrrJGZfn59yNikiRPX2WCTVz/8MZ7y1KlTJtPuTaQ9njDrrLOxQNK0afX/e+UF5r7NONNMy6+4yuJLukXd2jz4Dfjqi0/ef/tN0ph/wYXXWGeDGWbolxly8qSJX3z20Wcff8ClxZdadsmll59p5nZ3yuwsGcKzPdw7b742bdpUmC+x9PKzzNrSm3G9osl0I10Z8YALL7bkHHPOPWH8uFdfenaOOedadc112yugzKeQT/cTWM0fWd73z/6IB77vvvv23ntvfOiY2nyu+eef/+677zYtaerUqaGLbLHQPuiR08leZZVVQjp0cNlpPm2NT/rrFmCzzTZrczlSxCZWSgqJdOxg9JIWmM40uxRbnrFFskVYDz30UDbK6devjSoW0mfYkPZQRGcMEwIgObFm0LPPPotPwMIcEFK2gQ1yFaOLEJ7A2267Lcs/xSfEnXHGGf/85z9DGCyhLr/88nDKhnRhWSIsCyzz4WrcweCHNYyCT8flRbDjjjvO1oSyKG+88cZZZ51l657gM3z4cBYIt0v6FAER6E4C//73v7O/HQ1OPDA6PrsQoG6b3aW1GDfeeOPOO+9swS699FJqejzKXXfdtfXWW7NFGo1G8GfKGEd8Lpu1/xagvc3Xcsk5WeXlxK23ukVYQkPNrwzr0CGFhIy16dhtt91Q3uOXEHfCGxFacgxR2aWeACRoK+6xewObYAYJPq09/N///kd4yIQ0+fFiVSa2dzAfdgsNSPHBDWS7xHzto446KkRMc9Cex7cZnW55PfTQQ7vvvntIhDzztiD8xp1wwgkyng1wSsjx6mvvIyVYhjdvPdEs7Sm2//tGiESZvWsmoJ1w6pXnX3ob4ReYf25bPXqTv65+23VD5p1nDkvkn8dfaEti2+m7r951wWW3337XiHALJIwnH76S1YWCT74cmD5tu8sxZ5162ArLLxFP88effuu/xGbBhzWMdthmo70OOvWXX8cGT1bvPvboPcNpcDBt7R97DSYkW7/NOutMPDKOu245a4u/rRPCMIq5/Jp7jj7uwuBjjusuP3H/vbbJxPjamx/usvcJNukPNSeejbQU7JQ93bbc8Wi7NT5WiLdff/ruOw+yAA88/OyOexwX4t523ek//PQra5ObzymDDzz1hAPDVTm6n0DLm4Huv7fumA2Buj59MoNtsf6Kay477yZrLrXd39Y4Yr+dvv36i+02XX2nQWuf+M8DTv73ITtvtd7h++6AkJQZ8b23XyPW5ussf+zhe1923qnsSrbaUnOidGSGzKPP5RecfuNV6RPRf/35xxUXnnntFRYgM+T8hisvePHZJzYYuMj+uww67fjDyd6gdf98/RXntZmN//33hXVWWGCL9VYYcuKR115+7oG7b7XW8v3ZMy4emLbv1usvHbj4bCTOYkn8YwUoTlk1CfkmHtLcnSXzyYfvbrDKIputsxx5OO/043bZev1Vl5zj4fvvCCk/8dgwbrf+ygtvucFKXH3puSeuu/xcaB+5/04sz3TFBaeHkHKUGQFMkBgh0HFnBzH22fnll18QdOhqs9b1Z5+5ujbDDDO8++67oS+LYmLSCd10NBqjQXeWjjXuiy66iASXXz56XXPSSSdxyrHvvvvmnRtru7IME6IMd0GyoXv99NNP8yB003kz3IHmQk6wG+KFfNhbmsHYK6+8EnKI6RDWNzwmnX7eG4PF1szmjocffrgFw6CJxw8LPCGBbbPNNn/5y19YlDp4kjFjaFEYqt1yyy0ADDdKcxAAjCTLoMjWGicAK3bHFSJgdlxeRGErtyuuuCIkjuUCw5Wg6D3xxBPhkhwiIAIlQYD2mUaJlpmqTXOHg93iyfl+++2H4mOPQANy//330wbaKW3RFltsgZuGy3ZJQ4ympdpqq61okGlJ0I8sJEKMa6bPPZcG3Hzy+EkTTc5RiBBxRo0aRea///579HQegRb4ttvcSLiDg005+X2xAMyVfvLJJ4O+j0KEaobiQ+NGe05ji6USd6HpZh1uTKUsVlp7yCV+KVgXHPHIWPHCIz65b8MNN0S+YW/N9nKFqIRsRImwbhRvU0Kw+CuBbMpr4403fvDBB8MvAlmiCAYNikak9qMTEpejVAhg+2NZRaaJ2/5k5n+3f2yOJU7/+Vp1CVCIttzxKBQi1gMa89nI7z4Z8fWHjyAVPfXsa2tvvG9DgzPN5hj8r30QR8zN5zqb7PfE06NOPv6Ak47dD3kFn8++GP2fM64OAfLouOOeVuOXkPJcc8726rM3sw+a+dw77KnNtzty7TVXuOjs/wuex/3nsk8++zpEMQc7jm046CBEnCsuPHbijy/yyDvvsCkazZY7HD3mh18sDKOk7Xb9tylED919YcPYUVN//e8NV7pXjAceceZeB52SluYdd49YY4O9UIh23Haj30c/8/NXT37+7rCBK7Uy7o5HefKZUSuttSsKEVQn/PDC2O+eG/IftwnMHgecfMudj1rITTdac8QDl6E32ekxJ15y5nk3brX5unb64KNRf9hO9dn9BCQSdT/zPNzx6luH7XnAEZbQTz98v83Gq+L+93/O3mHXfczzqREPPXzf0LQ7IWHssNlfsNPZfOsdXv/0V+x6nhr1KatopwXL7+nXX3z64jNtLBU5+xxz3TvilTXX2dBuN+KR+5CHBq6+1uDTLwie5w8Z/NXnn6TlB5Vnj23/+vtvv5xy9uVvfzn+xbe/3WKbf2Czg1T0849u1wMO2r7D99n+zJP+D/dVtz740ff174/+48yLr+cUtei4I/bGET86S+bl55/a+q8DIX/Ghde+9cW4Nz797ejjTyPBfx+217C7o/4ZllM3DB2O9ZDd6NxTj736krPZos5OnxzxUDwDcpcNgdA5Zt1o+vE8F1b3wdolvJRefPHFr7zySpMt6PHfdNNNhOS9DStJ42BYwgvPBRZYADc7wiCjYKuEm+Pggw/mlMPGKuaZl0+GBLb7zy677IIDO396Y2g0vOklfZ6LAVLHN8JWiOlXjJqQwJjWwTOG8JgLMYBhJAAKm3bHuOLAA907ojvvvPPjjz/GgczEKMLeYHOKJsXoi7fTRxxxBHtFB00t/rp+3nnn3XHHHTEvCjeKOxjtnHnmmYxPbHBiL88ZP5C3ECzL8mJaHAZWNiwkLo9Gav/3f66F4WAQZQ59ioAIlAQBppfapgS0qFRt2l7aH2xzaKPIP2I0AXDQeqMI33PPPfZQF154oc0yw5YZ6ZkG/KmnnuIdAHFpkGmWw8Q3BG7fTh9OA553IFj6MAOXZFE9+Gkg80zOZU1omms8eS70/Q5uynsyWlTUHIQblvyPT8KivUXuIS7Nss0FXmihhazl545BO0trD/mlwzYTaKhs/ATYrUmKnpi5udcmm2yCXU97ueJXBvMi0mH2brgLrbcVB7GyLC9+tpDJ4GM3wmgX1QlFz06DZVN72ZB/cRLAIMUytsRiC3Yhh7ffPRy5h4j3336e6UcLD+iPzoIPkkcQLLh0wN7bsumY3WKtNVf46oOHTzvxIKSNt16JVGMMi8K3ugs5iUdhythtQ4dffcP9Rxxz3r6HnB6/FNysCc0EtCsvOtZ8UHkeu/+SYUMv+Ofhuz7z2NV777aV+Q9/vOWFHD6jv/sJlQcHlkeHHbiThZk61TVoHP/933vmGHrv4w8PfwH3jVedzA5xzK3r27eOKCccsy+ePCmraFtIPrFpOvSfrgeI0HbnjWfOPtusuBdfdMCDQy8IYeKOadMa9jvMPdThB+0EVd/AVp/4732R+fA87j+XEwAH89o233StM0524hHH1Kn1o567+ZpLIwl7oQXnNX999hSBqp66se6bC4HFlljmxCEXBwFi7wOPGvbkawccfuxZF99wzqU3W8pPjnggfgssd049zr2x//NKq1141R2z/ml23CyYfeUtrYLFo3TZ/eXnnz507233Db3p8vNPw9apzXRYbmmlVdY89Zzo5Twqz3V3PHrlzQ/sc9A/b3vg6e123stiPf/08Hj0H8aMRuXBZ8dd991t30Pt0rT6qeZ46/VXzfHosKFPP/4I7rMuvnHjzbZmn7I+ffoS5eCjBuP50H13xM2OOkumoWHaCf/cn3R23+8wtqij7eNZDjn6RCaU4Xn+kOMIgIN5betttNk/Bw/BzVFfP/W+kf89/fzoLcT8C7iGUkf5EWCzeR6KPvHf//738HRMGbPOLjMUgiEb4wr2F7MwdK8//fRTtBVe8Ga/UEVIPy+OYJPPqCmeIBMNTARhp3kMguKX4m7UFkIyYhk5cmRcHiIM76JtJgKjpvhKQGGK1vPPPx+SChs2o8gw+gr+vKs3NysBBU9zpC1sFK6GhZl4Ac5rdvNHm4svcpF9eRE9TP1DAWQ0gtUV7+Svv/56U7vCfeXoBgKYPCA4IjWyFAumYXzHMm/K6l3nn38+KiHL0CAEIINmhmElGsai66yzDmEox8xvV4jCpEJG/pj7YS1iVn7hUnAwA5GrhMFAwwbb4VJwUBcwbSAM38+0WT8hjByFJoASgWzNXbAbCvfi1xwtg1OEexb6Cf60VEjV5o+QhMNmSGGz0/Ek3JBCHh38TNgsM5rH+Bpt/KDsv7/rmXBgPmOOzE/mvtkMO1pde9gQBiHGfgUIwFJEwZ/aYe40k8nQHlLLwgpETBkOucKKNiSCI8xWi3viJnyYRs0LEqtcvGzg9yKE7FR58fLAIpIxEucHgofFpCs+ZTikLEfxE3jnvUgkmr//PJ3NLWLE8Se7gcZO223MUkQh+nprDzT3iCdeCZ445p9vbju95Nx/hRWIUEOWXXpR8//5l5apXvGInXWjwmCtg/ISn+PWZiLzzB1NiEPAik8W22arDSz8N6N/iEc8achVdnrkITsH/zBfz1bFZoUgE30wktotpYtZ4P333iaKfsz5IfopZ15rKRx1yC7IScEfpKb7BB9z3HLnYzan76B9tw+XaGBt0XFMnD76xMncdsw375zmuOS8Y1hiCbVu1HO3YAN109WR2psKqL/dTaClpLv7zrpfbgSobHPOPS8GNUhFRx57KqeW3gabbG6Ob75q1SG+9LxTEWK4tNeBRyCahJv3n38A6kZ+Z5y9/87rxx6xT7hFB4455opa/K2222WDTQaFkBtvvs2wu2/l9PvvWg0ILznbWUJyBEMq3JP9c+Gw8ScLG5kcxsZwabvC7bT7ftdcejYhh5x4VLhdZ8mQMWyISGTnPQ/k0w74r/fXv4GREvni04+W/fPK5m/rjuM+ccgltsQSUtEH77w5aJudLIA+y4yAdaPplX7wwQfxR2MVajtl+BF0EF5s8nLVeva77rorfXTegv7rX/+KR+w2t015Q95KW4Sb7zYvyU3PsnVMM7P05ZdfMt5gmI2pfxgthGBh3hkDckY4wR8U5v7qq6+CZ3AwKS+4cbBqtZ3ycjju354b/rxdt6sMD2zIh/CUZoHVqfIK97IF+M18IHjK0Z0EqC9hURgUIgwiWHuYlcRCHnjfi1CLZGk+7733HjMTmSQYZm7ij9JEjQtKDWGY6sL6LGkqJyHRFsOQlTk4jz76KHOUDjvssHA7HIzMWTPefAhDXWCBmPjaNFxiEB4M3wiDrRxPEdTMeGpyF5RAEKZZSjneKIXmhSmx8SWusZHBhhEpHBMbjIkw4UEEDC15QbOaljgLAJlPXEM3nzAtl80B0mLZKQoRppfUAux94gvA2VVUVGuTWSQuziSYTvAmo81k01bLRlSy9pYGv83wcU/m5YXv/2+//RbqFL84NLAhZGfLyyKGjHVqkcFwUzmKhAAqCVO9yMyvv7Uh0Jx+zvVjfoj6EvEMbzVo3S03W5eItnROnz51b7/b8gUO3+qPP21RK+LRQ5/NPNdbe2Xbur7em8DEQ3bNjf3OvntszdrSX3w1eu+DThv1+vvTTWeGvlE30kKustIy5ghWQnb60KPPm4NVos3B55mnHHrW+TfNN+9cG2+4BqcsJm2iz2ab/AUyIRgO1v9mCW1srPjHGtKz/WkWPM3mCMeWqblg8SiZ7meej5opVsWOYw9Z/frbMSuvuFRaxLqU/LTGqsvzL+2qTrufQEsT3P331h3zQqC2ri4oRCTINK4FF1qUOWX1U6fE03/GW9bgs+EmW8b9C+HeZsfdz7vCSTzjxv52wZDBmBRN9y59+7YaEC6fmgQ3rfWA8KmRD1tSrBId0vy/E8645pKzkWPWWm8jPFFqTA5Dtamra9WkLjBgEYMDH9aQnvVPbgzZWTKvvvSM3ZpVsT96/+2QjfpUVr8f/U0QicLV2rqorrHKOP+CvxzlRIB1mm3hHsYSLOLT5qOx5Up8aMHcLiz/MUCwXjW28R1PuW8zzdw9WdXCcs5iPZkZCG+VGdZmjkyYLIYlFKMLhtahUx7PUhhasGJF3D+4macW3O05MnPVXkjzD8tSIGwFcyFeLMdjdaG84tHl7ikCzPQJClHIA8uXvPzyy+EUw5+gEAVPzECobuEUs4WgEJkn439meobpRcEzKEQhLj577LHHLLO4DjQH3/+gEJkPn5gvIWaFSoGZUlCIQhjWssHsqLNf7xBdjq4RQCixiBijtZkCW2LF/bEYQmS0NaFRiChrm9sVD9M97tCcBkOecN/wy8KOB0yIi5ttEoafHkyE+MLzJiBtAGwp8LNlDozdOEKywdHxLLYQrFNfZl4GhPcBrORtP0NoqVgIhgRxdLa84nHlLnUCq6y8zEv/dZ3tL7921n9pB1t3vf3eJ2xbFvdnVhTr3eBj6hIOLHf4Fw9jbiZSZXpm+nTqW50ZvT0f7HrYsIxVe1ZYs8Xqp73Aaf5VVZVpPpyyE5ypPwg98Twzbe2Rey8O4QOWBReYN3gGxxKLL4hCxOnnX363+irLIRWZ0ObWwJ5lphCsA8e770eNCas+tRmMDePa9JdnURGQSFRUxVGozCCIYOFC6hjXzDzLrIW6TUa6s80+5ynnXvHsk49lXJmOR7xpC0HH/v6rqT8IPfEATFu75vZIPCLw119GbdO8/VvspUMiCy+6OAoRp99+/fkKK6/eBTIffxhN6GUl7JBs3DFhwrj4qdy9hwAvQu1hMZUPu7ekPf4iiyyS5sNsl7BPFrYMzI5JC9ANp6H33+bsCTOcIRu2HkdafsIqQiyoxNpDmcPgsMcZ1v5xW4+QTnz+V/DMiwNTEVt5hNSYI8ba2PFku1Ze8RTk7hECGPtk3jcMce1Sm2HCANvCtGlwERZVCbdocy4bVxF9wmJh1NwQPu5gReFFF43mKTB0j18yN3WK72EY3mcGkE8hCIQWj+9AvDsR7pUpwdCqM7HRloVGaslUYULcgjpGj3YmFRyZbXVcFcIuNS1AmCOJEIO+iRFlkC8twWDaybzLNpdSCj8EFj6/n6i6zN4lTSaIheXewi26UF4hrhylTmCF5Re3R3jvg8+xAEqrsGzvxVX2ZV964A4WjNWXWVvH3KZu4D70gB0POzAKYJfss66uZWpF3L873X9ebvGweHOO9w2a10x+se32Uvt+zM92KUypi4esS003mTTpD/xt4hiOMC8sHrhNd8jG+/+7p6qqjSBdmDnYRiryKjABiUQFBlwcyf/84/eWkTD7qdvyhS3P+htvHpaUzuW+LB5k0fvN2JGS/dOP30XB+s2Yebva2siu8o/Jk7naBTIhG4+98G7ab5Xdbp55tYptJvhe4RMWMMbMPqzLMN0njy8IjekBg9vZZ599urHyGyCs6BnGCfH0gzZka2nHL+FmtQ72LGPBUdysW8QL9rQpXSx9alFmnXXW7LGk3aVrp8wSevPNN4nLSjHYa6Ql0rXySktEp91PAFOIzJuGiUJ2KXPaI/5heyYLE+yA4qllerZ5O6KE9cVwtxcmnjLrWMVPgzueTvCUo6AEMHs0zQ6Tw2B12PEdsaMMG4cxhZblkON7b3UcN49XwzSxoHGHxMP0Lr6NaQoRYdiwjCmQWE4hpzI3k9Wd40v4EyBYjCIedXNDjd1WmGjGFOw09Yq8daG8AhY5Sp3An5eNRCIeZORT/42vyxMeDXscrIfMnijs/MXVsA4RYhDr3YTwxeb4+M37+qYWJWACXb8Z+h5z1B5dyCS7tlmsr70pUHspLLJwNE7B8igzzNhxE83TUgsMg/STGSXNZ4nFB7z1zid4zj3XbPnSv9JuodNuINCWvtcNt9UtWhMIq+q09nZn437/nUWXM/075TPf/NEyyUHg6FT0HAOffNZll15/jyXy9MiH/3XI7l1LcN7+C1jE70e3PYXYri4wIHpti+VR5o3Gj48axHnnc01kF8gsvOgSliyrQbHMUOa/7rTVynxA+fQgASxibKzI3LFsplCRVdZAYRVSVruwncXQaGxJ1PaegtfX7V3KxX+OOeawkRJb2ISRRkgwrFcd9poJl3CwyMsyyyyDnY55Mn0mhDefYEnxxhtvxCMW2s1YyHZ6plDCRtS8h2SbZOagcfculFeh86z0syEQljyPB2YqTfw0bVFeu7TttttONwyrU8fD4GaR6fAdDpcQTMNqu3hiUpRpDcTO4nHLQUbpmToRtnXtLegb7iVH3gmEpuztt9/OJvEpU6YwNZimg1bFGnnm2MYX7klLpEANNXcJi2plLrIezG34pqXlh1N0H9p51lSyS4hcafMxmWtsl2yTTXN3zycNtb2fOOaYY8Lyc0wpDSv0dba8uifbukv3EGC62d82dnPHOM696FZzZH4GkaU6ZruyyELzWchXRrVhyJmZSE/5sF9Yv35urMcW9awSHaaDdTY/pMOkMGIx6ezb0dGb9cxEllsmMmn/8uvotXo8DLPM7HTRhd2wiylmJvSQ5m+/t5qHG48Vd4fVrN9820lFOkqUgESiHiu4qupqJn/Z7ceM/qbNfEybVs8i0CsOXL3Nq9l7IlvYVmhM12KdoOwj5iUkhj+zzPonkmJ4dtFZJ70+6qWuJcuObEaMpxjz/SjVXoUAAEAASURBVLftJbLEUsvapdHffJkZ5tuvoslozFnjahfIBJHow3fbmPKQeUf59CoCwVwl7OMbHp+XpaySa4Yt5sniyuytw2CDrZRZLcV6/0w9y1xvJSRiSzaE0zw6GP9YamGJUDtl2oLNhkNFYsJFe3dkIobtEE8OsYdinlcIGZZTvfbaaxlrBX9zYOxTiBfyDNLCRDPsm8IOaKxtwRAo2EZ1qrzScq7TniKAanPTTa2WumO1dbYnj+eHVYdZWzruw4IyaXMhWTgsbsdHYKQl1iSKx8LNArqsUhTXgHBTKeIL62K4wSrUcQ2IMFTk+IqBWNIRKx4GpYklt9Nup9NuIPC3v/3N7kKjlHY7DLtowdIa8COPPJKZg2xlyDS0uCCeKalbaiwRnZZsvk5XXz3qEGIWlJZmWG8rTQyNB2OtH7YFNB9WVf/hh5Z9kbDWMU2TH6n475QFxviIleAzzZfiiXfN/cwzz9h+bShB8YW9WDIs7EjY2fLqWk4UqzgJ0Ipee2nULLM40WOPtz2ICGtRx20zl1x8YVbn4bkwMkpbtwhPlovebNvD27SmyRIFcS+6/M677nuCbdSyjGLB6uuntRn+tLOvx3/22aLV7toM07HnxhtGTcTl10av50P4F195a7tdj5kwcfLCA+Y33eepZ19L032wALI5ejtuu1FtaiXpQZuubYnceudjIbUOHIM2XceuXnldeh4ond32O+mWOx/tILouFQkBiUQ9VhC0en9ZZ0O7/bB72pbG7x96MwFWXTOqbLnklTlfFv3Bdu6VmTiWODdfc9FjD95le7pnBmjPB22rzUsk9cVnH5lc1WaA6Xra0tQEu/2GVr1/fF5/9cXD9tl+0sQJCyy4sN3ilReeTlPEPnzvLVubafOtdwhbvHWWTAh/x81XpmWYtg87qWF335bmr9PyIGBbJvMsma9wwwOy9Ka5sQyi7xv8GUuwCzsTFsLuvCwtgULBK1+LgoG97SBGFNbETbtF0Dja21c73KhNR1gVCEOhNgPgyXJCdok3zHGJh+GxKVPMTYhPYUA8svBBt0KLMXMkVJhTTz3VrvLJ/AgGXThMP4rrRCzUjToWH36HQVfQcSyd4B+Pbpcyc4I/cxbsfTjCHCYAFpJPBh7BjSP78iJwB3mIpyl3NxDgG4VNByN81KKHHnqILZ8yJ2kygYVV1a+66ip2GWNBFr5smVPJWEyd5YRQKgmDYQU2ffEveXgQZlNiHohwgEyArEOymatrsakT2/wxI4kwQ4cOZf2jFVZYIaRgDqRY/LkX30+sCEkHwSstjE5zJBB2XmeHsnhTFk+WTb5MEKHEzzvvvPilCy64gMVxwlxULrFvHQs5I2RYS0W7zfRV/PlKhGbTUghNWdBr4ilP151NzjFPQ7EiKabLxQV9ZCm+ePjzXMz/DfcKzWNoUak7W265JQFokNGJQouK6MmK0RaRFOI/FhiHYiLKpXgNCu1hmiIW/IPD0mxsbDRH+MngFHdQ81m0LixijRoVFlEiWKfKK9w3fiO7tT5LlMBCA+a75tITLPNb7fjPu+9/Mu1B6H6HyVBNMYPrmprq00862ALvvPdgW4/ZTkd/99Nu+56EO74Y89TUlnyTJ7d6oRU0nbR5zdvvduy/Trh4131PvOiKyEYvLWNpp7+PjSxxPv3827RLnD75zKjrb3Hi76yzzhSusl29uSdOmhw8cYR91v6YMjXuf/pJh9jphZfd8ejIF8Mllm3acoejOWUdIrDccKV7do4rrnVrgYXjkquGmpsN0YLnKSccYO7Tzr7O5pHZ6cuvvmNGT4BtaIgqOJd22fFvps0Nf+KVM89v9Ubn7AtvHnrv4wv0nyckHh5w8h+tHiQEkKOnCFTHu/L5ykRzEpuRZL5S61Q6NBMNicrG5tIQv2abY66H7nNvET/+4N155pt/udSWXvbIIx+5//ij9mWO1fGnnj/DDP0yOdxy3aUsSM0jH3TkcfHXlWz1NXXKH/gffNTxIdYyy69463WXcfr2G6PW3XDTueeZzy69+b+Xb7zKvYCdOGHcwUcPji98uN8uW9x7xw1PPDaMn+1V11w3JNWeY9Qrz778nG+4kxW77nNIPEtEYabbfjsPamxoWHLp5bbZcQ9LZNKE8TddfRHuhRZZbPOtdwwpo0/ddr172bXIYktuttX2wX+JpZcbess1nL79xqvLrbgKV+3S1198uvt2G2EctPX2u1bX1Cy6xNKPPXg3l+C2xtobWBg+Lxhy/CcfvYfjqluG/Wm2Ocy/s2SWWGq5Rx4YCq5vvvocpWm1GJlrLzsbyLvvd5iZKZH+px+9P/KR+3Css8Gmf15pVbtjqXx+9+WHyeZmvhL0HWt5VA6UjFqWtKvFA38OVmWioO3I5bn4urLER1t7NeSSan7iYnvCMqXYKQQjfDqvGKrQ5+atctrqCWy7zjiBgQf3ZlxBP56uNgYFLNzDAPLJJ59EMaGTwUY59LnZU4wVfHi1a9oKL3Xp9GNwxMopjDHwZJILtEkK1DZNgJRJk92dGB7vvPPOkO/gIenZs98TY9FgUsGz8D6cDGDUEO/ukwin5I2Ne9CnyAkzyPr27cvLarQtru6+++6oObYIF11wJo4BxJQspm4xT4EpM8zewtSI4THhR40axYQ77mLLGGHo8eKLL/K8yGTINKDgKc7yB6MR5Cd7ELLHOIdX1qTA+BmSJMviMkzr4HltKWJWEQYLWhv+jH/wRJz66iu3Gj2XWP+I0R3556U3Phz7778/4w1G5mgBPB3jPTy5qWUsm/IiPM8CSeLagIoHR5JATYhbhbibFccx5ocfxo0bV4W1ao2vvK7q+rpLzaXu0j30NTdflTdfD11dVUlzkn1qFAEaK5NTmEfT5vJwJMVS5ag5fC0ZWrcXhu+YhcGSooMKxe8gog/fZD7DUDYtt3wnsWAiDLPPqD5pV+2U7wz5IQyWg2mtR3r4JH3uRLpnT5/TVieaayoqOlFS3ZNlNrOnkrIeM91aq6c00TTaNKcUfVDnLTP4UAQYdnEV9RDxnYb62WefRdxHIWLbga222oqQtDy0e4gXuNGGaDQoMiZG0aTQCOOJOkmLzWo+1oZzFzQm/Gm+SJOmDDWQL4xdxb/No1M5J4U111yTxGlOadD4pvEzxCsHVpumWWYqHL87YRk4WlRaTmtRaQPJBo0qzfJ6663HM/Ls/EZwFX8ejZaBqkTjhokrD4XciQqGLQ+WU+itBECNNQk1rT0EHVdpeBG5+K2kPSdl8kkOWe3O5DbSpG3ndwF/fgWomGSbugBwI8mt11hjDS7RjPMgGNjyU0VTbxJ/luXFTxvzB5lcbL9NPDIlQnPHPLs2yfes58SJ48d8P5rGmCbZ9bJcK+0ba/8Ra6ith+U+85hhKnJl8+TK4mth2nvGVVdeZuBKSz/7wutoIg88/Mw3o3+YNGlKnz41v4+dgIHMgUecybLWFveIg3di1lVIZ9mlFyUwV9lR6+bbH/no06/ZAP6yq+864Igz2dtr5LDLbZ6XS+flt1A0THP56pvvubpA/7l//mXsCy+/OeScG0wEQYpCsVpgfqdxYD3Eff+fvbMAsKro4vgGXSrd3SFKiAiiiKAiFrafioSSCiJiEBJigQIqKGKA2N2CooIKKKV0d7f0smx8v7nn7ezdt8HGe8t7b891vcydO3Hmf+/Mm/nfc85IRYUKFrjjFo9+oq3aBv47fPS33xe9+8F3b079SiL/Xrgc0mf7zr1r1m5ZvnLDvPlL3572Td+BZvTguOXGK5s0qktgybK1E9/89K/5ywivXL2pVMmipUsWo65/lqye8MYnCxevJJ7s1aqUL1O6WMGC+blERYg3ZdYfiwij4gQ3RHuff2lK34EvXtbyws/eG81rxq1aNSrt2Xtg4T+raF2xoudQAg2nmRMnf8ZdKLl2bZoTkOPccwqfd27h6TMZTk9/+Ol0xF63fiuC9XssUYF3weIVJ05G1apZifLpsE0b1/v0i59JzyObMXPexk07fv7170eeHIdI0yaPuPG6yyn55MlTi/5d9fzYqZu2GJXGVas3lS1TIjIyvHgxs/d0sBxRp06v3bifccbpxZ6OLF3ZmXFxx6yVZLFEo3zbkVNAKYK5h2/GinBnbZZCFVmJiomNPx0Tl5USMpGXhnCgbXj0VPjxGGYwwXFMevm5F0cNEllbXHblhU2aV6zMBvab/l301x+//YR11Rcz/q5S3ftL445tm+f9MevJh7tKxs7d+3W8o1OtuufDlfw1Z9ZTAz3s74MDhl53813WPGrq5PGjBvcnC8WyS32lqtVXLv3nq0/fs0hBHrW7tuN1He/EQCw6+lT9Ch5m6sqrr5841XDbKR5gPn/u7A1rV40Z9aTsPkaytu1vbHXF1fnyQ1fnijp5atuWDR9PmyxaPO1vuHXcG4bBWb1iyZcfv/vOpHFS7LDnJ7Rud23JUmVXLf/3sw/eFjKIWy+8OuXS1ldZ/aNXxox4ZfRwyXLtjbfXqlt/8YJ5s37+AfTY48z6bwKED6dOItmQUeM7dLyDdwM26o1XXiBmxOjX7rj3ASlBzhlChiyLF8yF8JLGsrdas5aX8+bN/mX6mpVLR0+YesMtd5MmKuokDcS87q8/zVQS2mjA4Gdr1akPgSWVBv557oyPY2NOM9znzZcvP88Syo01UIGC+XGply8/c2VmMjxfM/Y5o1/mWuR0XNNzWXrkCkh2t3379qwiUmwd8eKw2esuGyTBCjHDtvGsZlk8iKUAM2BrgUUCImWWDLo2vQTQ+WfqTBhepkePHm4zNLgPthVL+8eGL+ReH7pt+czj5XO0jZEAiyIWG0zobTyrDlgYdvK2MdxlNm8vJQDtxcdewtgLWHMG8lolJqbvzPvRxXB/3WUXm6FDh/IiSSHJEaDVfNx2f9WXlGwJ169fP9YArPQkxp5ZyaDzZd2g2nh3ADLOrQmS9vMiIwut5Bvu8Ii9jJXcVZzF8PwFCzds2MiiI0/ePPny5svPwq6A03fzF6Anc7AYsSsQs/Lw6doj0w3Pkwtayzczm0zLEFgZ406ExXu+IQeCYIzViMFYfSrGZ3NQH7YLZ9KoDaZY4NVXX40xYPJb0BD0Yrh7ewu6BO7aDnc4uhLGXxLweYDdJxnf3FZR3GLoYwCUNIzzo0ePtqMcPx+Mn3AocjfFcyYkh4WhFkR1F0jzIXTcdFjyEZUfjvHjx5Pr22+/5TODzQ5rX6NGDbmEzWGAdW9iAEHGr4lVaE1xPIT6RyPPen+zJQMFIwxUrMVEbuF+iJ+n5PE2IwFa5LaqO+PzSvG3id/Q5NZz7lrOVnjbts1/z/uDaVReBmomVfnzM8EyB3OtAvnzEptHBmrYc8/XOJ+IaiddEad3R4Sd8kmZ2VYI27E/OWzC+x//KBu9u+vFb9Fdt15zXftLzzu3iDtewq+9+dmwZ96wm50RiTnVuOcHwEpIAjiXPo+YNYL72Llu+viJH8JiuCMJxx1ZIL+bAwaNQ2GHmK8/fun69q28ktnL2X8uvvyaJOsOeyvFwIfvPHPHLWY0Cy/s/XW5T/fb0I0qWuEKr4wvPP3Qo33vtZHf/PD7/X2edrf3/vtuevHZfoULJZlnfvrlzK69RrjBxJ3QtDdHsvO9LcoGvp/xZ5eeI2yZsFEfvP10/yfGQsDhCKlE8fOKFTvnm4/Hli7l4WS3bd/Tve/TP/40z5ZAltFP9733rmslhowNm99p70oAUm/Fgk+8IgP58r8jJ76buYp5LH02v7NYMislpysz48qb13xah0ByiCKzyPH7jCsShtQ3Uyklic7+iwcf9MKIxxcm89SDQkrXnv3LVaicXMQHu96Kgo87vnK1mj/NXXVT26ZYVLnjW7W5+s0PvrcxkClP9OsqZA2RMC8vvf7+M0Mfgd2AOSparAT6Na9P+6pEydLcfW7Yo6Lm89q7X7W5ynxVS/Fw00kpJvCKvLNT9+EvTCSyZqlIr1s0ue/A4U1rFfeKHzj0uW69H7WRv8z4dnD/B2wriL/t7m5PDB8jHotsMlSxnny4m+WtiAelMROmsvO9TWMDGUKGXLt2bhsyoMfvv0y3JQDmY089f+NtnjEaSK9rfaG9KwG8XP/wh/kgEBSHkkRZfEzMiZmzomPPJ1OUdLJYGtnhPvhizBqAJYclVrJebPIScICK5Fhq4JqXT8E+/EljespnZ1rBN2SUOwJKE8fnzys5sNkToyRR9uDs91qUJPI7xKYCCBcUWFAOgiGCKDmDelc6REKDCRUeNN3QMEpO06SjgPQmQZWSTxGwM1TEWO3bulALAhboCX68oHLSK5P/0/n8eflf5JRrUJIoZVzSF4uD56XL1+MSqFzZEhUrlCpXppQoBKWdG7UgNGt4q6tXrWC5jLSznPEuZmuo8KCMc8aU2Z8Avaf1G7cxhatTq0pqEsL7oza1bMUGzO4a1KsO15OGnEzh0Etas25r3dqVq1WpQMmoU/HJOI1ZIspEq9du5knBEKG+ROI0yg/GW0oSZeypqSZRxvByUuM9B0fLsm9XmbIVqtWse865aXXUTFQhWejhmzes3bhhbfWadSpWrkbHhuXhw3KKPXznjq18gbaWWZmu1B8ZsV/bsmk9YlerWSc1CRn7tm3ZuHbVchxU16xTHxYsDUkyhIyUc/p09MZ1qw8e2F+seAkUvoAxjfKD7paSREH3yFRgRQAElCQKkddASaIQeZDaDEUgBQSUJEoBFI1SBIINgRAmiYLGLCvY3pkMy3te0eL8NWzkbcSR4YLOlAFWBTrDbcKWJ0/e1DKVLVcxtVtnPb5EqTL8pS0GnwsqVanOX9rJ5G6GkJEssEJY+aWncE2jCCgCioAioAgoAoqAIqAIKAKKgCKgCAQ4AgHpAiTAMVPxFAFFQBFQBBQBRUARUAQUAUVAEVAEFAFFQBEIOQSUJAq5R6oNUgQUAUVAEVAEFAFFQBFQBBQBRUARUAQUAUUg4wgoSZRxzDSHIqAIKAKKgCKgCCgCioAioAgoAoqAIqAIKAIhh4CSRCH3SLVBioAioAgoAoqAIqAIKAKKgCKgCCgCioAioAhkHAEliTKOmeZQBBQBRUARUAQUAUVAEVAEFAFFQBFQBBQBRSDkEFCSKOQeqTZIEVAEFAFFQBFQBBQBRUARUAQUAUVAEVAEFIGMI6AkUcYx0xyKgCKgCCgCioAioAgoAoqAIqAIKAKKgCKgCIQcAkoShdwj1QYpAoqAIqAIKAIuBMJdYQ0qAoqAIqAIKAKKgCKgCPgcgVCabilJ5PPXQwtUBBSBTCEQn6lcmkkRUASSIhB9+rSJCJf/wjlc991hV7QGFYF0IxAepoN1usHShIpAKgicjo5OfscM19k2SIfrGjD5E9AYRSBjCJw+HZckg51yZWNXTiKA7y5CcIDIttHVd09BS1IEAhGBuNiYJGLZgS9JrM8udNnhMyi1oJyNwJEjR6GI5KfQ84OYsPJIwhflbJS09ZlHIFxH68yDpzkVAUHg6NHDLigSx+ZsW1rGh+V2CaBBRUARyAwCh49GSTaH4HXmXMy4zKTLHJ45mKQItnMIkkQROn0JtrdQ5Q1ABE6fioqJOe0McgnLTKRMnMb4Y+ALj9elRwC+CipSUCEQFRV14MCBRJFtn6UfJ3RlG5eYTEOKQLoRCA+LTXdaTagIKAIpI7B3zx6GYmctaU9mjDYX/J84TPtrpRYXljdlyTRWEVAE0o3A7r1HnF7rzLFM32Wq5ZlsOWXQf/3VhdMtYyYTBqvcaTQ3d0RSva80kuotRUARSAWB/w7uNUOdZ6xzjXc2mGQSk0op6Y6W+VBsnHbedEOmCRWBlBDYsGGjs8KQSYv0YWfVIWuPJHOXlPJrnCJwJgQiwpUkOhNGel8RSBOBffv2HDq030yxHEIoYbz2MEOueVZ8uN++fMeF548Ly5WmmHpTEVAE0kIgOjpm87YDhhgyh6R0WCInKq2cwXAvBEkiNIly6QwmGF4+lTGQEdi3a4sZ7mSsc+YvDIESYeJ8etiR9XRMPIdPy9bCFIEchMCpU6eWr1jldFBnhuJMW+QUYdxPmK7m9GODiQ3kIIC0qb5AIDwsLjzslC9K0jIUgRyKwMoVS+2AzLgcEWHGaTPjcg7PP4ljtL8Wa6fjC+XQB6DNVgR8gcCSlTtj40x/pTCn70pXluWSJz4sPN7HqyZfSJ6eMvw17qSnbv+lyRfhuO30XwVasiIQ0ggcP3p499b1zirSM2vxDH6uSYw/hjyKjzqlnTek3y1tnD8R+Ovv+dHR0cxUIpwjnIWHBEyUsw6hJ8ufmdOYKY0/xdGyQxaB8PhT8XE6Vofs89WG+RUBGKJdO7eb8deM0c7/csEC02GLuHIL4B9lImqKjw0rGB2Xz12XhhUBRSCdCGzdcWj5mp1O3zVTLWe+ZU6mU3vIIuemqzivru26E4jBUCOJnPlveJ6ImNxhKewaEIhPQGVSBAIPgQ0rFhhlBGc1aeYsCfMWZ1EZIfEmgU8PGWdj4+KPn/A4gfNp8VqYIhDiCMAQbdmyNXF24nTcSKYqkebk9C+nJ0c4HTvEwdDm+R6BpLPbiLjY43GxyhP5HmctMbQRWLd21dIli8y0yvmLZHw2I3TiYcZwZ7yWkz/QcEpGa5t64k/GFDnFmkkPRUARyAgCu/Yc+W3uOqGETJ813TnxcGJMP0aNKHh9EoWUMSoPI95R6eKZ5A87gQJYXESejDxxTasIKAJh65b/vX/3VhnxnGFPWCLP2GcGvoQJDGBxyZEV1MjuMjEzpUVHn44+dKRQoQK5c4fUAJUVlDSvIpAGAkePHl2wcNGOHTshhExHpd+y7rCHoYkSVyFOrzU9Vwq0gTTK11uKgEXAjNHmYH0ZH33qv/DI/HnyqsWKhUcDikBaCPz7z4LVq5bTfxJH5ITROpdnmDackdPFOCVa35su56PDlOvY9Tvlm1+MY9GFo2OOFs6nnK+PINZiQh2B1ev3zF24SSZbhuY1ndeczGG6lOnVphdH8EMZaQLOEXSohM4aDPwTl5pcRITnOX04Kq5QWK78QfdUVGBF4GwhsGbJnO0bVzuTFhnlnMHOWWTaOY3DEXkmMb6SUwZQ52xqPHU6Ztee/Xnz5ipUoEDBggV8VYuWowiEGAL79+/ftHnr6tVrzI9ehJmLmKlKLvOf+fOczOojkjjpzWaxIf/7bNURYqhqc9KDgBmuI8Kio46cOH4kd54C+fIX4h1LT0ZNowjkNAROnDi+bdvm9WtXHTt2zDD5znBtBmXXwQgtw7QM1KZ/OYczWvsBMPMjgCA4xjbHsai8R4/HF8x7unBBpnh+qE6LVASCHwF4hi07DsEQsaOZZYNMv/X0ZdOjnQmYiYE1chiiRKo36AAIwV90Ge+YBBuGL+pg9Kk8EXnPicilKkVB93KqwNmKwN4dmzavWXLsyEGz1GRgk/WkWVk6601nDDRkkRNPLxN9BN+KKJ2XGqiF+dKxYyf27TtwOvoUk6T4uLiY0zExsTGxseyBZo4wDyusnq59+xC0tOBAAIU7FIhOnz5NV6Rb0kdk4UHnyZ3L/Jcrt3OYsLmgQ5l+5Xz5Mv3XdGE9FIHMIOAM1LxBvE+x/CbEnz51+L+9e3ZtiYllnA6LiYnhtWSkZryOJwITYjNYc8pMXZpHEQhqBJirwBAdP36MVjDoMpOi+5hJTmSEEEQyPHN2Ru1c3OAwI3UE/kCMSxA/jdTOHM7DEFEXlUbF5Np9KGbTjpMR4afD4pltOQczLjPpio8znZg+nKQb6/QrqF9OFT79CPDyn4yKPvjfSfoCuegv9GMzq3LoISZbzlRLenPCoslMt8wPpSxtzLwr2I5QI4nkGcgQ7Ix6EeFRx08c2RcbljssV97wiNw8W4ZsM9RxYrBL+C/YHpzKqwhkFQG6CX0h+tTxY4cPHdy369TJ45TIgEe8M+4lfuNiiSncuPnXM30hVeKRVVEcwkmKMzMjDjPumv8Yd5mpREVFsW3TKZbFp6OhiixP5ExZnE4sEiSZvWRdKC1BEQhgBJz5Bl0Svgcp6T6JXcchiPIwbcmTJzf/OCwR/ZlOJWls1w3g5qlogYgAbw5iMfCKAoIZqvnLFclvREzu3AzVp05FnWK4xn16NKS+OfiV4TCTLidnILZKZVIE/IwAo68Zoz1THbu2jBQmPw8DtTkMmc/hGaUxVDErTL8R+p6fAWoxhzPnko6c62QUk664U6dOM+syhC90r/NxzvRi57BoSa+2lxpQBEIUAfnpczoLiyTXjIsOazouU62EbixdObEjm47Gr59nnhZc+IQaSQT6nnFPqHozezFr3dMnT0QdPWiWmlFRODzhP0hyPnA5H7kginT6ElzvrUrrcwTC6SpmMmIcDpmJv2HCnaWmM3exg56jP2msWoy+tIx60umyIpAZQZ0uKJ3Xma7E0XGplW9YssIw5RvpDIHFfMUzZaHrOqS+1C6Ub1Yk0byKQHAgYJghM+eQI6HjmJ7Lf9JnmbHk5T+HJ3LWHkLwGhaYJYHNmFCG/qsIpBeBhPctPjI+IjYynFlWbO5ceWJzG42DeKPjKfMwWXmaWZZRRDCHrcAdtpEaUARCDwE6i21UQscxpIz58uZMsfIyTMtI7VBFzprFJGC24+R1lIlchdjSshKgZOmDhu2NMGoR6GojEHOumNg8ojhkOjIfDtErp4MbJW7pxJ6OrF04K/hr3mBEwOmPRnDTM515FF2DA3rXmW6ZKRd/EEZmxiX3TE/2pA/GJocaSSRPTh6eeTQ8JEY9lBESF5tMX8x/ETHoSTMSRooSpaoUBePrqzL7CgG6DEVJx+FsBjfTcWDHEw9Wnk6cGfroWw5NRNrECVAWhZGiOCd03FzQQ3k8n6AdpWizBI4w36ad+Qp3Db0rUxXX8iOLYmh2RSCYELDdRjoOfcSsPQxNJLMWs/rInUd6rtOBZOlBNp/13GCCS2X1CQLm9ZGDH4P4+FxGQTsutzkJD+R8amAZ7IzWHp5fhmoZr0WIRM7IJ0JpIYpA4CHgGWadCVbi2pJJjvkKlysXGkRmjpWwtnQWl2gSYXRm+peTge14/DJWOyKZWvhJiI8Mj4xjhhcGn5snD2RQnEHSrJTMKsrRJDLzMWF7HVVCM/kKPLRVIkXAjwgkrJMSO7KzVHI6sqNJlBe6N0EpkFtimGH6mNOX/SiZ34oOKZKIxyDDlvNEZHCLg81j6HMmL8YwHiS5a8a906dFGSHB0la1EPz2lmnBAY+AHfvMMtJFEjkUkfnOZXQpzVLTwxAZkijh8G3jKJkCWXlA4DJn8fRo5iqGOzKOihzHRC4TBlK4JivOtEXnLr59JlpaoCHg9NcEoRI6otND6MBmxmI+jXj0nx1NIjgjeF/mLKYXJagRJRSg/yoCGUZA3rqIiHjmwfHx5qUzagZMsZyFrdE4lbVlAqPvjNMyVLvGZ1cwwxJoBkUgwBFIwu3QYxLXlgzCzjhttD49PBGTLcPtm2jTeZyBOkkB/mksYlEVPRNaKlc8865cshYyBJEzFUQe58NcjEP2Wo3AZH3ZP+JpqYpA4CBg+rDDnZq+4XQcp68avxjOCim30dxO6MZOJ4bw9fR6kzHJxC1wmpWWJCFFEklD5THIqMdD4iMXH7fswMZdBl/iY3Ll8pBEHj1oBkbXWjMt0PSeIhBqCMjQJ6MefYc+4sxgPJpEDjtueCLP9MWZv5CYAyDknEVE3IUQdpa6ZgEhfdKJMd32NKtf56uWoX2152YRdM0e/Ah4eiA9xJmy0HnNrMXpvc7yI4+jVORcE+982HLSek7BD4C2ILsR4NWRyZK8clTvUD25CfA2moWlx8wfBQRjFywmw0zCmIaZtOY/ORL+9VzqP4pA6CFgRmiOhIHazJcYpe1AbdSznZFaTrkg85ON0477an90FjqrozFkbMoiItFYgicyjluNtOa7nONa+zRTLvxzGCWiBE0iD0GkKybn0eopZyAgXdj2DunI5sfOHI7/VIfwRTNQOjUeIJlw0bPML6aMAEEIVAiSROZhOIcZ9QxJFJ/bGfUkXiJ5qs4uSW5q3JBEQfgEVWRFwBcIeIYxM6IZCsizzHSmL45Gghn45COX2Ufb0YR2Bj5f1J1YRoIURoywMM/o5Fi2OZ2ZgTjG4XbNhMVMWcxcJWG+kliKhhSBnIOA7TPO2oMpi/kvof+KlZmZwvBl2vk47fw2mimLHopAFhBIXF7yRvGTwPLSlOZspy2zLN46CCLjyMQ55Eudh/bXqVYWoNesQYkAmjnOBzX6Cx3EHKLb6Th9NzMts9QkzrBELkVtWZn6pcMkmF7YFRO1UB07IZhlLVLymxHDlAvlbfx1cBifRPxDMmZdznrJL3IF5eNVoUMfAdOFOegb0mVMDzH9OOGbuqGKOHLj/d3hep1uZLqSc/iN6vUv8KFGEvEsAIzhiwAPz4Dnon7MatOMy0YV31GCdtaZZqVp/rcJEz90+Rd8LV0ROPsIJIx7zrcjZ/bCFySmKRxmuHP+c751OVdm3w0zLiaMes546aNGUKZ0QspnJuL0XwYoqYqOizyOy2pn2eFMVhySyOnvSb5P+0geLUYRCHAETOd15ivIKT95/O7RP41hmekxCasQJyjd1ulWnk4V4K1T8QIWgYShOmF0NnOtOHQPwsLyRITHOq9eLKteR41I1pZmcUlzPPMsO9kK2BaqYIqADxFgdJbFZeJA7ejpOCOzM1CjAZqbr2/OuG3mPDJQI4KT1YeieBdF+fRKd42OOqCQRBG5YiNjYXsdhsjwQ67DuyC9VgRyAALSHzlzmDmVLJeYdBlqwcy8pDvjtoO7JkHC13T6WTDCE2okkTwD11NxWCEn1nmgTKChxo0bNo8qQqI+QoIStHmOOoUJxpdZZc4wAoZSTRzCzKhnugn/JywxrekKFJGMfjLqcXayOsR6hqtNKwMSMA+h/ASeyEySuORg4UukcY/KnCVhsiKdVXttWpjqvVBFgL4hTSPgHNJ5pb+YHuNoD8kl9wmQnECo4qHtyjYE5C2SsZqzvFfm9eOIDGdzSmNn5hwyVDNi61idbU9HKwowBBIGXf6lj8hZxmVnmJZe4+glOAmya6CmMronZ4ELMRzR4uB7Ccc60zDpyCQzvdnpxTrdCrC3S8XJRgSktyT0Yq6kH5u5liF5WSiZGIlPSMu/wTrpCkGSiIdhRz0eFe+OeT7OwYOL5UnGopLguLJOYIhITzI5q0pCNvY2rersIyDKCMiR0EvMv8xb6Dtm0Eugi7xWm5Le59JTtXRezgggYRGMS1xZO8rO4tyCm+ZABjn5XBgtUBEIBgToH0ZM6SZGr8gzP6HHJM5UuMulJLNnk00PRSALCPBeMQjL2yWjMRERbErJNCvOcPrskmSGaeeQeghmoULNqggEJQL0EZGbgD3MEO3QMagjMDzLiM1dUrrPfm0wFdElbXX0WREjLtwEuGTuRwKHIDLdGGHkLFLFo0KohyKQAxDADFNaaTsLAXMk68JeHZkkwQtPCJJEPAweiYxi5vE5S00ic+GizRn0PPoIzF4S1RG8B77gfaIquSKQCQRkFONsDseLoek5RmGSGYIhjIiWs5NCUnnmMZmoLo0sFE3ntWdSSr1EEuBsjUMJOeUY81BddqQBqd4KYQSc9QTt86wr6L0JPdT0WfdhErmWHyGMiTYtexCQ18ldlwzRxEfE81+sGaydJaQZtllM4hnXOXRh6QZNwyGPgF1eGqddjscfmmwGZ5aX5p8kh9yy52wAh+rpoHJOmGUJ80v/lUmX6cHmSOjF2oWz4bloFYGJgOnOTke23RmGF9d8Tjc2HcceyE84MFuRTqlCkySyD4YxTZ6QrDM5O8RQpHO2+giWF9eVZjpfG00WkghIX7Hjm4cVsn1HbtjOJan9AYRXyVw60xO6p5mkQBaZf5J+zvKHGFqmIhBcCEjH4ewcyJ4kJG0hKrgapdIGOAK8UXaiJWEEdgZqFBD4EXHGarO2ZLZpfN46R6TnX/1HEcgxCDgjr6hz0g+EHZKAZ2EJEjI+Z/8o7e7FIoZMuujcCEVHdiZdWJvZXqxdOMe8uNrQZAgI7Wt7K92EsHMp57PWkZNJmtWIkCWJAMZ5YB6ACCcMeSYgZLmQQxKfVSA1vyIQ/AhIlzGDnJnOOP8mPUmsPfu1xdRM30wQhc5qZCLGnhOu/CqFFq4IBAcC0meRNaHLSB8W4T39OThaolIGGwLOWM1JDE9YBuPE2gzftMM58a8hjHg3g61lKq8i4FsELEkkA7XsO0C/sPGQR6bjZP8hPxwy6ZKZFz1aZlwI43Rk7cXZ/1i0xoBFwNNVnY4jHRlRbf+1gYCVP12ChTJJBADORMWsM2XgkwDxXHJIQHCSSwnrWRHImQg4g51nkQkCXLpj3OHswUdqpC46qyhASIy7t7rD2SOV1qIIBBoCtqcgmDuc/DLQJFd5QgMBZ2UrHBAzK89XBprmHp/5PBcajdVWKAKZRUCWjqanJB2o5XsY8WeHIbLNEanowE7P5cqISthKq73YYqWBnIyA0yNS68im04QGOCFOEvGQ7NDmPDAhjEyke+6SZCITGg9WW6EIZBwBd2eRsFAzdCMpzJ0g48VnPoe7Xvd8hRLdtzJfgeZUBEILAe0XofU8g6Y17hdPx+qgeWwqaPYh4JlNUaG7s2Rf/emrycqmvTh9gGmqnIuA7SyhB0Hok0TyzBIeoagUmbiEGBM2g6D5Vw9FIEcj4O4UFogUI+3d7A8EmjzZj4DWqAgoAopA4COgY3XgPyOVUBFIGwHtxWnjo3cVgRBGIKeQRPYReo130EPc8oq0iTWgCORABLQ75MCHrk1WBBQBRUARUAQUAUVAEVAEFAFFAARyHEnk9dR1PewFiF4qAoqAIqAIKAKKgCKgCCgCioAioAgoAopAzkRA/QjmzOeurVYEFAFFQBFQBBQBRUARUAQUAUVAEVAEFAFFIAkCShIlgUMvFAFFQBFQBBQBRUARUAQUAUVAEVAEFAFFQBHImQgoSZQzn7u2WhFQBBQBRUARUAQUAUVAEVAEFAFFQBFQBBSBJAgoSZQEDr1QBBQBRUARUAQUAUVAEVAEFAFFQBFQBBQBRSBnIqAkUc587tpqRUARUAQUAUVAEVAEFAFFQBFQBBQBRUARUASSIKAkURI49EIRUAQUAUVAEVAEFAFFQBFQBBQBRUARUAQUgZyJgJJEOfO5a6sVAUVAEVAEFAFFQBFQBBQBRUARUAQUAUVAEUiCgJJESeDQC0VAEVAEFAFFQBFQBBQBRUARUAQUAUVAEVAEciYCShLlzOeurVYEFAFFQBFQBBQBRUARUAQUAUVAEVAEFAFFIAkCShIlgUMvFAFFQBFQBBQBRUARUAQUAUVAEVAEFAFFQBHImQgoSZQzn7u2WhFQBBQBRUARUAQUAUVAEVAEFAFFQBFQBBSBJAgoSZQEDr1QBBQBRUARUAQUAUVAEVAEFAFFQBFQBBQBRSBnIqAkUc587tpqRUARUAQUAUVAEVAEFAFFQBFQBBQBRUARUASSIKAkURI49EIRUAQUAUVAEVAEFAFFQBFQBBQBRUARUAQUgZyJgJJEOfO5a6sVAUVAEVAEFAFFQBFQBBQBRUARUAQUAUVAEUiCgJJESeDQC0VAEVAEFAFFQBFQBBQBRUARUAQUAUVAEVAEciYCShLlzOeurVYEFAFFQBFQBBQBRUARUAQUAUVAEVAEFAFFIAkCShIlgUMvFAFFQBFQBBQBRUARUAQUAUVAEVAEFAFFQBHImQgoSZQzn7u2WhFQBBQBRUARUAQUAUVAEVAEFAFFQBFQBBSBJAgoSZQEDr1QBBQBRUARUAQUAUVAEVAEFAFFQBFQBBQBRSBnIqAkUc587tpqRUARUAQUAUVAEVAEFAFFQBFQBBQBRUARUASSIKAkURI49EIRUAQUAUVAEVAEFAFFQBFQBBQBRUARUAQUgZyJQK6c2WxttSKgCAQvAr//Pvu5Z55OLn+LlpcOGjw0ebzG+BaBCa++/P133yYvM1fu3N98+0PyeI1JPwJRUVHR0dHu9EWKFJHLU85hb+XPnz937tz2UgOKgCKgCCgCioAikByB8S9PSnFywm/o9B8+S54+58QcP34yNjbWtjcyMrJgwfxyeeJEVExMjL1VqFCBiAjVLLF45IiAkkTB/Zgf6NZl+/ZtydvQ9KJmw0eksIpOnjIkY+Lj448ePepuWp48efLlyycxR44csbcY8goVKmQvNRAUCJQoXqJChYrTpk11S3vXXXfXqVPXHaNhPyFQrVr1UqVLf/zRh+7yb7/jznr16rtj/BT+79AhSs5foEDevHn9VEUmimUudcwZcwoXKcI0KxMlSJY+vXp88MF77uyr1qyvVKkyMY8NHPDGpNfsreeeH/1Q34ftpQYUAUVAEVAEFAFFIDkC1atXKV261Acffuq+ddedtzaon9MnjVVrNNy7d5+FpXz5sts2r5DLBhc037hxs701/69fmza50F5qICcgEM5y2uftjImNPx0T5/NitcDkCPBJf8aM6TN//sneKlGi5A033nT55a073nyLjcxpgbVr11xwfj13qzt36TZh4uvE7Nq1s1qViu5bcOXuSw0HCwLup/zhR5/y2geL5KEh586dO6pXrSRteeudqXfe+b9saJftvwMfe2LY8JHZUGM6q/ji88/u/t8dJP7mux+vvLJtOnMlT3bixInbb+34yy8z5dafc/5u1LixhFEyanvl5YsWLuTyqWEjHhkwMFeukPrMkydXRGRkeHJMcm5M3Imw+CRqZTkXCm25IqAIKAJZQ2DHjt3lK9WRMqZNnXT3/27LWnmhkHvTpq0Xt7hSeKKSJUusXbXonHMKS8N27txTrmJtCf/w3afXXH1lKDQ4J7Qh8pywMN9MpUJqipkTHr1XG3v3eYi/77795rZbO8qt3/+cK5+dvVLmqMuaNWt99fV3N97QQVp9/Q03jn/5VQmXKVP2408+v/22m7msUqXqN9+pdUywvho8ZSjRffv20oA6dXP656Dsf4ply5arUaPmunVrqbp2Lc/EK9vE8MfnDZ8IHx+XpQ8kBQoUgHFrUK+26EKeOHnCSoXmFAZnXD7Qvedjjz9p4zWgCAQmAvd16bVt247ksk16bRwf9pPHa4wPEThw4NBtd9yXYoE9une59ZYbUrylkelBwNFVP+5OmSdPLpeu+jF7y9FVL2AvNXB2EShXrnTNmtXXrl2PGHXq1Dq7wgRI7VWqVHx/2uS2V92IPFBFboOyiAgP0fDJR1OUIQqQ55XNYqh5YTYD7pfqmjRtastVhkigaHfV1U8OGiJh7FPcn9zDwz0DHwwRhjMWOg0oAoqAInDWEShZstSYl8aJGMOf8gxiXH715RfLly2D2h71zHNnXUgVQBE4IwLnN6j/33+Hf/3td/u3f/+BZs2aFC6sJt5nBC+rCTCxb9q0EYBb8Ans3rO3ceMLKlYsn9XSz5QftcdDhw7/91+iaf+ZcmTT/WPHTiAYfliyUt/atRvOKVrB/fdQv8elQJQv3PGFzy2XlYo0ryKQDQhc2eay+zrdJRWNHTfB1jjq2RcJY5SnnLLFJKcF1NwsFJ74nj27q1Ty/Oqr8ZR9okxTGl94/qZNG4mZ/tMvrVpdRgDXIc2aNlq1auXE1ybd17mrTayBYESgUoWyokn079IVKBalpwkwhvPmzd2wYT0fA0uXLtO2bbtzzzvPnVGcy/x32Px35OiRiy9ujmtDTNsWL1r033+HYBUvadGyYMGC7iw2vHnzpqVLlmzZsrlw4cJ169WvUaOGvZUvH46G85svkEeOUPShg4eOHjvavPkl4r8GDZEjRw6b47/DZGncpInNaAO8yf8sXrx16xa+WFauXKXNlW1T81t8RjFsmQSoetnSpYsXLyxUuHC9uvVr1a5tv4i6k6UYbtigrmgSzZk7/8JGjWwaXC/b5sTGxTZtehENX7Bg/sqVK2JjYkAGVC1Xa3MRQH1m3tw5GzduYIVTtVr10qVLf/P1V3jeQSTKPH782I7tOy5qaqzie/V+cNBgD4Fyzjnn8vkreaVxcXE8jpWrVlx11dXFihUnF8ZcPET+4xHUrVNXHr08cWKPHD7CE+ehuDllKx5vzsJFC1etXFG8RInzGzSsV9/jgOn48ePR0adgcHr36kHiqe++f2VbY24WER5xzrnn2uwggP84fGnZmDQCSN62zeW8qKT54MNPbrypI8jUr1uLt33mr7MvuaRFGnmD95aam3k/u+A3N+O179y199R3jf+y8xvUW7RgVoqdy7vheu07BPoPGDR23ETKQ4di+ZK5qf1q+K5CU9KDfR97dcIbBI7+twN/t74tPCul1arbFEWSpk0azf/rl6yU8+P0me073Col3HRjh08+ese+2F99/cNNNxvj66pVK8/44QtVmssKzj7PKy8AxS6cP6txo4a2fCZChw8fPXyY6ZmZg+F8h7Fr3l8LVq1amzdvnnZtryhZ0kwhOJgwzP597rp1G5iWXHRRo7qpayRBR86Z+9f69ZsoqkyZUle1a3PeedgBpXBg8/XvkmWbN2+FQK9fv07NGolfr83EMX8S94uIumTpioUL/3ES161Tu0aKc7aTJ08xbbBip1CrK2rPnn01ajc6etQowW3esKxSpfKL/1nauOllVLFp/dJixZJMkl35NBiQCKi5WUA+lkAUikWRWXcy8h05UqxYMZa4J0+e/OP32Sw40TlqddnlWDeI3CxR2TSKZQzfsS9p0YL1c2rtYaW6fMWy/fv2sRI+v+EFF13ULLWUS/79FzoGDqtkqVIXXtioVKlSNmXhwkXsb6oVgDXYyhXLWUdhPVS9eg233qPNePDggbx586W2SrfJCDBuvjLhtQ7tryI84JF+c+ctoMa33nwDkdq0ubLTfV3ciTUc8giwg8Mzo0Y+62yLZu2kaLWXP52Bjz7y+muJ31LmL/hn3NgX3b6Eyfvt9z9WrOhxxyO40a0GD3ritYmvclm/QQM0Przw7Nmrz4svjbvn7jtxXmNv7di197zzis6ePeuaqxKNvVEVWbHK2HDZA3qiV6/u0BD0uOLFS9B5uYWp3fc/zKAum4xAOsWwWT795ONO95rprDXcK1euPPaY1g+OTZmhQNPGFwh5RC4KnP7TTBr+7z//2EKwAH132gcwQTaGwMyZP3ft3AkehGaKsZXcva9zF/oyD+Xxxx616SdOeIU/ufz9j3loU3pVOvPXWR1vvJ7OLml27d7/yScf9X2ojy3hs8+/an9tB+Zb552ThPJbt2EzMttkBBhFH3m479Sp7xC2bw7EzVtvT2X6RtOm/5hotSp4SnZL2R84sP+Ky1uBCd7ivv1++hk9WzP0jX95gtBhyNy23VXPPTsKZHr07B2qDJEbcA2HDAJwwZe1aukhic6v7/WjHzLNDOSGXNK8mZBEtWpWzx6GCDSguQUTlscBBQ4rfJ/Ig/XN0CGPjRj5PKUdOvSf+8W23z+UIfIJ1NlTSMUqDaz/Zti9n6d/devtnRb/s8TW/tCDPcaPfXbuvPn3dOruduc8+vmRAx5JnFdIemabw0e+MPLpF7i0Bm6EkztCgsp57ImnXnl1Eneh0ZcuWyEl2PODfbq/PC5Rd/ijj7+483/m8zb+g0RgXE1/+fn7TRpfYLMQYFLU4frbIH2eGvr4sKGPuW+lGC5VqgQN6dHrYe4+8uigjz54q0dPE35r8qvKEKWIWA6JVHOzUH7QGzasL160CH6aG13Q4PJWLV55efyvv/5SuWJZnPU83O+hjjddz11WiUAw5Z23alSvjGOj/g/3xf0qCgKzZv2WHBqWvqxbWlxy0YhhT40b+9JDD/amWP7c+4VJLpQprr+uffOLm/R9qPe7U6ew9kOGcmVK2j/8KNny+dke9OTjpUsVg9AZP27snXfcitvpG65rD7tk00jg1VfGly9bqmrl8j/+8L3XrRQvr7iizc233MotJIcewtUuDecS8sj+kKeYUSNDD4Gnhg4Whmj7zj1Llq3kLLuh8XKiKGTb++jAx8THucS0uaLVzz//hOni408MgrwgkqU+779NL4F+D/URhgguEl6JHamgXeTWC6Nf5E/8ao8YOerpUc965W3SpCn+ifFD7BUvl0yy27dvB0MEG7t95174I9R2uAVlgGut06dPu3OlUwzJAu8Ao0Gjfp31x5ZtO/cdOHz1Ne137NjeskWzNWtWu4vNaPjjTz9H00dyUeAlFzclTMM7deoskegHffjh++5izYjR4RoaheLMjl37jh4/NW68hwNCVYeUrVpdDoz9H3lUcqHvI8ByrljJqOdQKUyc3KXSVi0vgZW2T+HPP//Al/97738kD1GScYao4nlNmvyWjfEKwEpfflkLGCL4uA2btvLmLP7XMIA8keHDhhLo2vV+ZID2kox3332vCDZ23Mu2KJhBYc0YV9GosvFpBKiub7/+JAAThsSxL42hLQHlqzsN4fWWImARsD+1NmBvaSAbEFDY/QTyE4/1g02g8Fmz/5w1e47Uwmz2ycEjCE+e9LLqEAkmQXH+afqX93frJKLCATVv2ZZvOWNeePq2W2+SyJdfef1/9zzQ4tKr6tSuNfbFZ9te2VriH31syLp15rud+3hy8EhhiPbv2bhm5QLOdevWJgEE05o1690pe/XpLwzRogWzl/zzJ2o7sD+SgFr463jTdTb906PGwBCh3TPnjxl7dq49dnjnte2v2r59Z9NmrVevXmeTEUCPT9SCho94Ljo62n0rtXC3rvc0utCoVn3+xTc3drx7wcLFN1zfXg3NUoMrh8SruVkoPOjUzM1YQGKwgFcLMVsQZQFWSs2aXfz5Z5/On/+3NP7W226HKurS9f7q1au/8/ZbsphBnQETHvd3JxiWCxvW5ws/6zTWe6xdp055u1fP7hTC2u+1SZMtlMeOHWvR/CLK4av7rN//RFfipxnTxY00K597772PlNe0vxa1JgL8pkJXsUEbJjaffPoFjqVZLl55xeUs85DhnyXLrboB36bKlComKgZXtm33zbeJX+9t1ckDdg8mFof16zcAitFjXsLbd/KUGhN0CGTI3KxUifPk5YEeKlq0GI2Fary54w0EeHstfyEgdL7vHtninTeNrdNEcw3WFY/CkuDYiWir6ca7WqNaZeLpSlgbSQKMj955+03CP/8yq0WLlhIp5/ZXtxUSVjSJJJIOVbpkUST00iRatXJl40bnk4a+A50hiSFVYQ0Iu+3sMiSG3RsO3sTuhGg7i7shUmOK59TMzUhMcypXLAfBQfiJJwcPHvKUrFWmTZva/X7zHQxC6osvE5li+F90uC648EJYNlsXhDX0yoKF/1rbLis2BMqzz5nPdO7DYkgkLBU9fcAjDwt5Zw3iXnj+2WGOox/RJLLZ7RP30iR6pH8/KQF6jkdDehQkob8JML7BGUkJsEg9u99P2KtYuQtF1S5hTrlx87Y09DQlvZwh33nfBENigAvQ3AlCLKzmZt4PNPjNzWjRlKkfdu7ai8A9d9/x7pTXvNuYyvWixUuWLVu5b99+VkQXXNDg4mamx7mPEyeijHkuetJHjpx37rm1alXHwJy1Ogs8suB5JzUzEGxA/p6/cMOGTZRWo0a1hufXt/McAoULG71CCkc9BLNUyq9Xt7YYiTBXOXr0OPFGMfvIUb6WufVHRDbWYzD+a9asO3HiZNGi57W69JJqzk+DW3IJp0cMdy6c3SD21q3b69SpWb9e3bJlE/Wy3cmShz//4ttbbruX+Os6XP3NVx/aBIyWNEfsazjXrFENy5R9+w788ee8HTt2li1bpvnFF6VYC1oSDKe0ETXMihUrXNS00TtT3r/1lhuFE8EPEVM1lBGmTP2Aulj0FiliPq7gd79gQcfgOlmlQPHLr7NZG1/a8mJ+JsCQGJAH/5IlSlR19tD0krZ2rRrFixe1bbEBZFu9Zv2CBYtKVmvLAAA7CElEQVT5tFC5csXWl7cqUCAfdxFJHCQ1bNSCRTUqG7/98p3kQipksyXg8BvFVSJtTBqBmb/MFo+/1pRywsQ3+zz0KAzCjB8/V3ouDejO1q3UzM2Qx8wfytUS9ZwnHu8/auRgeYLPPPvSoCEjReCp77x+7z23SxhDWnnJX315dO9e3dwtKnJeBeFooIdEE+e772dcd4PZ/xTdnC6djfo2x/btuypUrkvgjttv/vB9M13keKBHv8lvTiXw+6wf6RFOnDnBLtWuZ7634Ubacjd2vzZ3CaSBThry1CgCkFMYmabzVVy46F/4JnJxMIquWr4AV99yqedgQkDNzYLpaZ09WZnx4IiHBbDsB89i4/MvvoadQaIHH+p33bVXy0bL2Er8PX9xg/PNQpT42jWrsdrctGnjmtWrWZda8VlRyxqbqRKRDDr49Jk48VWUdH5IqtdDSmGa+vZ7GIaIxLiRLleuPMWSmFyFChWyxWLIA0PEJRoEMEQEsIN7/oUxrA+R4b1pU2GvJDFrcmzWsInjMp0OaEjJHkx82Gf9ifAwRFBR3XuYCaseOQ0BNHF44XkPCxUyc1aO2nXqSGDd2iTmXUTy2sgtiAZr21itWnWUj8SCae/ePXapbw2p3K/lxc2bC0m0cMF8L5KoVOkUfnfpUBQoXUyqlnOFikZNhqNevfoSMOEEhzgbN2ywlWZIjJEjhlEOzKmoOEnJdsMyWOMpU99L58RC8nqdyVuqdCnGHLhpyxCR5poEmmPD+vXuLNu2beOSSHq9cDFckvGP3393J0s7TKWVKldmkKFSHhyXQ4cOa3jBBbTLukwqUcLzmc6rKBmpvCLhpIQhwrjMSnXs+DGvZGe85AVgfIMZvOXW2+xrc8ZcRYoUQR2JkZCUtOiqq685YxZNoAgEOwJLl628594HMLvAjCI6+rSs2S5u1nTGj18UKeKZOezatadsBQ9fT3u7drnnlptv6NS5pyQWBJ5/dvjAR72/Br32+tsYd7B+wwZk167dspCziBHJZ3/S9OrziI385quPrutwFYRIvoJJxu1tm1eWL5/EKv/Tz76GIEAGt4FJn94PvDL+eVuaBNIjhs0CbYH6wM8zjXK3tTF5pH+fZ54eYj+h2cTpD0AeYVBj07P63b17D+DYGFaJX3z2Hk5tbQyBDRs2IwxaBoRJYAGsVauGkETnFa/kTl+luplYcqDy8N03H3lV+u6U13fu3P34k8OcJGGYxtzc8frzL7hELjnTzDEvmPX5Za2vhb2y8R++/9Ydt3e0lxKAIrz9zs7gj2DnnFMEMogAKa9t3w7O8aKLr7DpebuKlawil2iLPNK/t4THjX/94UeeINcH773Z4dqrbPrUAoCDpsknn35JgZPemMKnUF4AErN/X1Z+PVOrTuP9igCPrHSpkrw/9LKnRwyyT7BDh6uFJGpxycWWIUISrCWEJNq6bbuXYIxXdFhGsMIO6cxdXAdJmjVrE1V+rDkbpKctAftQIYnmz1/kJomGDnuGNLycHW/qYBPb/do++vjzD96bbGXu17fXueees237jvu7drKRNldqAWzWevXsNvE1Q1fRE5UhSg2onBMfkXOammNbWjLB7OX2O+4Uhkig6HDd9RKAGBKGiEsULG/qeLPE459IAnKuU7eeBGrVqmXjGzcy3/dYCuI2xUYuWrRQwrietZGtW3t+oVevWmUjmXgNGfQklxiFuV26trz0UkkzffqPNjGBN9+egtUPm/sMHjzUHZ92GFZIDItIhlOP5F//0s6ud0MDgc+//Aa7qmUrVsvEGq5z7tw50jSczqTWRvc3RtK0aOl5M/lqbbNUq+55z60HHG5FO7uVE+Dbpk2ZiQCMKgpHfLnFA45k5yv2wgULJOyWPENioNxHCRAWUCqoxti/vPk831StAksmZHZnAW33HAWfSsK2uCUnPVQOZziyenVqoumD/hSXtWvXwQ7OMmLuYtMO20pxHY3q4pVXtk07fWp35/z5h9yCYbRp8Lr96MDH4X3gsm1k2gEQgGbCgK5lwvuTdnp7t3gCpcXjENU2e0sDikDoIcCH8ZatrmLJPfDRvts2r9i9Yw1mOzTzr78XsHq37S1Roti8OT9f0bqVxLBKv+baW1pc0uylMc/YSPgOLxMMdJpgf+A1XpvwEmTQnp3rL7+spZQAPYFlx5BBZoWPUgzf6lmM2eoIMKQs+WfOO29NdEe6w2gKsOU8K8zvvvmYwqNP7pUNg7D7mPbex+6U6RRDsmzduuOCxi1ZcEKEnTy2CxsTyDJuvfjSq2gcuIvNaBhfvD9896m1benz0AAQY4kIuSZWVACFChh6PbZkfjQ73mLsUB4b2O/wwW1HDm1DH0eAEqNgUqJVAZJo1kiu4U89wSV/D9x/HzFelQ4YOGTUs2NQcZLEX375bY3qVX6e8ZWYvUiknEH+x+8/E8Hc8TY8+c13W7fpAP4IgGC8POhW0IQO19/OS1WpYgURQ9Ijs1xybt3a85uOttHQYaNIQK5XJySqxtsqUgzwykn8E4OGQ1ERHvfSc2wrnmJijQwKBPLkyW31xBG4QX3P10Q8WLvlRwlRLnlh3PGE4UOxCFu3epGdbf455y9Jg46hTVyjelUJr1i52kayLJKw19Txx+k/E1+mTGlo9H/+XWb/8iXowe3du98WUqhQgT6970dtOqM2j8WLGy17DvgvvtlJWM85FgEliXLQo8+fL7+7tQ0vuFAura61XGLxIQGsxtzpcZjKApu/zl08epXbtm3lS7ukORmVOPBZFmmty7OJTRAXH2eLXb9unaxF8+bJa5epBNjDSNKgzWQTEyhfvsLQp4Y/3H+A145U7jTJw7BC5yZsM/TCc8+6Jz3JE2tMqCLArzXLe84YWuICGV9d93c1UzoO94RAYlI7p5gSLgPLI7L8/NMMptGS97fffpVAmzaZZCisDCi5oAjDe4uOHh6UsEqzrrXdLpDTLwYGqtAxlL9u3Vosp9x/cEZSL4YWVoBsCFzbvoNgSF1YhGFhxzc0/BYxcc+G2lOrYnXC+IMCmk0D5sNHPI0Vob+Nv+DRxIRNqn5s4ABsMKwYGlAEQg+B776fLisuGUhhV/GUIYwDLIxtL7/pGKBNeMXD0pIFauaLz6Y93K/nLz9/bbdz/v6Hn2wWAiNHvcAZWuT+bvcSYM+gbl1NgCN3rlz9+va4+3+3EcaOCWuOxwcav632QJLzG9S9r9OdbAhtI90BywTFxpohi2kVjmAlwc8zZ7lTplMMyTJ46NNoxKCaNOm1sbKHUbu2raFyuIs78BUrPRMwd/npDKOWhfflUSOHSHpUb9atXjzhldGoX0FyoQRBPFX/u2S5LZA9leDvuHzisf6i1YW/tueeGUbMsWPHJRl2NyDZsKFHCR1FKi75u/46wwRJpU+PGCyJ2Wnhr7kzX584Ti4rVapAG1HPGT/OW/cKq72rr2rj9VAkF2eotAd69CUAlWYNfyhcEsyd9zeWdCKGkGJVKleSS86NLvToOvHj3rjRBZIFxSgJnPGMtgVME8l4CdnKin3TevfqesZcmiCIEHB/5XKLneJsUBIwz7yk+UWc//p74SOPDi5XsW6nzj3kljsXpqN0beKnz5hpp46YXkrKtm1bS4Dz7t17ZWBkb75GTVq5/6RLkgYLTZs+c4GVq9aIL3bJ/lC/xzJXjuYKGQSUJAqZR+mzhqQ2IFIB5jb84cn13Xen4FelVo2q4u2IW+7Fql07sV2RiAUjLpoLmLdgMmZlZY0qYYzO3CtVrP0lfvfuXTZxpgO4QbFyUuOEV82XST1yGgK46MJ0iJcWV+v45HriyUEoFgkI7rc3c7Cg44ZBEMwLK/n169fhoUZ2McMdtejIZK5YybV//z5YrUoVyuBBie3t2Rfs5VcmpCh5OsXYv8/zxQlGeNE/y1L8q1q1WlZkzmheVH6++2E6243ZjIsWLoQRw5m9l86RTZANASxkpRa3hWw21CtVQJZhfIemJ2Z3xMCnjxw5PNtq14oUgexHoF49z0f72rUM7S5HkybmwxVKIriqSYgz/5YqVVIuIW4wKbK3xAEil5u3bLWRGG3JnkQ1qlezA37LFs0lAXtd25QSKFGiuFeMXOJpKMX4CxJoEavtAtkklMSKFatslgyJsXzF6mnvfUTeh/v2sjJz2eYKjwnYrwnrSVt+RgOlS3swfGrI41bpAA4OdSopCi9Itsxt2zxf73797Xcb2bXL3bB4Xt8a7d0UA2wHLvEo3eA6Cs9HUEVoAL39pud3rVgqIGNBk2KBUGkSzxZUNoEsqrl0Q2fvphh4d8qkwYMefeG5EcOGPp5ighQjYYXELTF3IcVUVz1FlHJUJLPNV159o1LVBs1btEXPERVFFIsEgcjIJOtuLC4ZJXhX+w8YjAPst995/9PPviIlynoXXpDo7mPf/gOSHSW7Fcv+SvEvNfdn6USeZdoD3fuRmL3SRMUS3aUvvvwundk1WUgikMsfrQr3R6FaZgAgsGL58meffVpWv3fe+b/vf/zpk48+lJ2h3T/DuBZ6/Y03ezzQjS3Mpkx5GwuLyW9MEs0F3Pq6JxOiRkTLHujeM0VXQah9ZrHd0EyPPvIwheAQ96p2VyAGTn/xDOK2bstiFZo9YBHA8w6/1uwphkIKDIt4v8JikT8+8uAiXSTP+qyuadOL+EFt0rghPBR/FItezJChw2Rzvazgwwt8aYvmwlbgQltcCNmtwdz9jlrSKUa5cuVEpFNRp+okOGbKipA+yUuXxOvzyhUr2Kv+/femSZPx48MubDxBn1SR0ULsKIFL74zmzWL6ZUuXQhLBPA4aNCRX7txsKQAgEye8cs89nbJOO2ZRNn9l16mDv5ANmnLZWhF9FsS1hAVKInY/oJMno8SHtFd78ufP546x+iBWl4S7555bhMUYTNPSZctZDsnIefyER//FfsZ3l5Oh8BOPP8yXf1RU7I7R8xcsFgGOOfszSmkZEuOPP+ZKrqioU1iXWHlohYTXO+63bXxWAvkSDI2lkIuaNpaA27DaGpFhdIYbctR2eF5YZLMrU+aqthO8Zhc15i9zhZDrq689S9n6CTtLEDnq6SHPPPsi5jlXtrk8nSVXqFB25PAn05nYJmP+gOt0ucR67o7bb2J2Ye9qIKchwGzzuhvunPHTLzQcznHIoAG8D5s3bxMcvGabvPa//PxNg4bN2eNMtjlDt2jEsCdvu9XD0kqu8uWMZh9H1KlTqbnklwSZPr8xeSqqcNh+3nhD++rVqyISRfXs3R8TUYzXMl2sZgxqBJIwmj5riU71fAZlABXEaq1pkwtgiMqVK79o8dK33pmKmyGrdhQZEemWFT8gst9Zrx4PnF+/zisvj8OFB7t+WCUjSWzXYIyhLFaTH9VcXo3c5ac/zPZGEEPPPT8apQm7HdKjA/qnvwRNGaQIoHTDnvc7tpsPoey5LgwRO3lhsShzOLswcCsAZ66x7Bnf+vKWOHpnK66Vq9ft2XeIfa/gIm0HSbHY9NhSjX7heaFLxr/8qnUybSX3IonSKQbWmuj0IdKqVStRDExRtmyORGlo9uxZVFq3Xj02el+9dsPb77wrMsyc+VNyYdIDXfJc7pj0lFCtmkedavFis3BNz+HlRyA9WZKn4fl2796VeBxXFznnnAIFCvD0JVmfPj18UkXySjUm8BDIiXMp6CH+0Lh5Z8oHbdreUKlqfZYu8mi8PsKn9rxSHM8ZKm+/rSNZ+GiPUw/JO2uWh91Ij5fi1Kqz8bh9hSHCkccLo1+ud37zZs3bWGUWmyZDYqxa7VG1xh+T28CElZsUePBgoi9IW4VPAl6/LFImG43h6EfCqDhdfsW1laudz95Px46d8EmlmSuEHdkEZ3S43I8eg0R2c8NMz/o7z1z5Z8yFkyn7imINNP7lSWfMoglCGIEvv/peGCLU8eAc055t4jftkpZtoV+X/jt347olRw5tx9jz9ttu8po6Qo6L86+VK1czNvocvW3bdoq3fpT7KByyFZ/xBOCjn35mtM+r0wL9jIDPZg5+IYl8Jp2fUdTiM4RA3wd7S3o+2tSpa3Zt5LDLFfdvM/HsjoQ3DT56L1+5ZtWa9f8dOYELj0aNvb8UVapcxSkmbN68ORLw7RlVJlgtvFb37GXGu073dRGPS1AGYv7m2+q0tLOFQGxMCs6hBw96AnnOK1qU8z//eBb51oE6kZZqcWu3Za4JU955Gy6ycuUqNWvV4iwUTGpFFSni0ZlfunSpTcP2qynaVc2f71kgtWzZyiaOTfB8FBGZhJxNvxgdO94ipb03zcPF2MJxQt+2zeVYe9mYbAh89903L44xHkPkYIlyx513ofDF5b6Ez+YJN82/R48ccV+mP1y4cBFJvGTJv+5cUQkOLNyRTZs2k0s2qsORk/sWL0+3Lvd9+cXn7kjCx1LZ+2zOnD+fGTUSPSmv9Clejh/3EnvVQazDaUoCDPHYI5Iwz2XqlLdTzIU/KZSPkApqfvIbr3/y8UdDBmf4q3iKJWdPpM4ckuGcEyFZtnzVbXd0Ll6qapduvdmIfeZPX3fpfLcgkyJzkQy0VCOeeOzhS1uaz+MPPjSQWn6b9efwkcb3DZsWiZeiVHOm7wYukJq3aFejdiM8QN9wfft/F/8ppmdeugPpF4PtxqRm7LBSNDB54bnh6RPNZ6nYwPvRAQ/Z4nBaxMZPdeo3tdpe9la2BXYloFSoYMFsq9RWxEZ7fR82rlsWLZgty/iBjw9F/c0m0EBOQ2DRYs/UwpqFgkBqs803334XirNKlUq1a1XH33nhhN3QkoNmLUBxRuZ1FzvcVpe3X7DwHxsfHR398Sdfjnnx1T17PFqH9lbyAJPP7j37EY+beYhgSTBk0EB5n59/YRyjpTsXJDjUsPzhdIlbVG1jfpw+051Yw9mOgC+JHV+WlQhETpzYJLY+JENsqCT+g1j9ujcbij4dLe2NzJXEdHH0aMNGs8V41arV2NJeqPTkyNSoUUO2OmLlk3xRioNh9pjEIYvNeOjQQWx53n9/mluN3N71CpC4d68eRI4d/4qwAEwxx433fJDnlntNjlEP6yv7J9YlrABtzCrXpmxeFenlWUGAH11rrrgrme8qaEqxiyzqkESWBpo316PAT/bxY18SyQ8ePOjVBPuCHU/wxykJTiVsaobhgzuLqKVASpYvW/KS5k0hWTredH3n++7BttF6sLbpK1Xy/AzjiFoi+ZHGqEo0hjZt2sgPvE2cJ7dHcX3+gr8lkla/9dZkCR85nMRJR/rFePQxj88FvB1Z32GUiXFBt26d165dW7pMaStDagHr3DpF32HYspHxyJHDtM5dgnjEJ94dmS9fflS9przzljty+7ZtXF522eU20u7V+PPPP9n9dOxdAqlVatNUTACf18MKBgIYxkqanTt32sQYdt162+1yCfni9uU/8NFH8KRWukwZuVuqZCkJ/PD9dza7DTC48Uo8PXI4BomMSzY+xcCSf/8VckeobZtmUMKWjk88PpBNA2y8BKDYLmp64dQp71StVq1Y8eJ9H+pzX6e7P/rwA69kgXzp9e00kEXNJtnCc8RcauPGLXArspPOr7/9wQ7oeOXAcfLypX9Nm/p6myta2RcjiyQRrnB+/P5ziBv0PqjliiuvY5wfOXzQT9O/9NrFMhPP99nnxrKRFruwXXN12/17NrI/fcPz68lInisplZ9+MVg6iiT44sHGJPmfde6TCYEzl6VAgXwwUzu3rX553PM4aZZCoIru6dQ9cwVmPZe1xNm0eUvWS8toCX0ffpxF/oujR+EAe8wLT0v2fv0z4NIoozVq+qwgYL0779qV5KuPlIkxF4HDh4/YuQGXdj7mpRhotyGzXtulEDvbnDPXM2djtjnmpVfkrpf2n8zZvv7mh2IlqzZuejlcT4fr7/jfPQ8MfPypX379XbLI+cnHH5HAI48O+unn3+wt5mx4xV6zdn2Z0olztlcnvHnHXV0efWzIdTfcYVOmFpj0xhTZOq1rl3ttmnPOKTx0sGE/Obp264PfBglzBhyoYf6+/W66fBAtXKgQvreJeW3SW7jAtyk1cDYQ8OW0IcnC3leNCQ/zpYi+kiqEyznsWiiyAmEvJHdjo05FyeWRo0m+vduBz66HJZkd+E6cTFQhtp/CUJdgR7OaNWuRmJWPXRGx5Cvo+owjmh2skMeNfalipYoFCxTEaKJI4SLs0n1Tx5vZhknqolj8tnTpbAame++5C8+1whlxySqoc6d7SG/VLojs2uW+6T/+QGDd2rXYpBBI7WAUe+jB3iyncQ3TqtVlNhlbWfNBHjUiFuQ4rLEGaPny5mMnNXH1ggJU/vz5yVK4SJEJr75CIW3aXHnnXf+zhWjg7CIAbzj/77+/+vILK8bDfR988KG+OHDhjTpw8AA7xL85eZLcFZLoUt6BUeaFYWFPjyhXrjyUBL/c/MLxSr8x6TWIm0aNm8BHYH7Fi41na8n+xBMD2e+8efNLqPSfxYu/+OIziR8+bEj/Rx61O6M/1LcfBWK9RWnogEgaOY99aUy3+7tbV9NEshu6aDm9+sp4vFw3a3YxejRr16yxuW65+cYuXbqRjJg2V7YVt+sDB/T/e9683Hny0HD6lCSGTaDrNbv4Ekw1iUm/GLC3WDBBJZDr+g7XoKjSpElT+JGvv/oyKuokSzUgkiqSnzdsWL961aoZM6Zbkg4+4slBQxqc3/CKK9qQHmdPWKeuc9zSAwg8FH0KWzyGjt9nz5JcxI96esTtd9xZvXoNsuAZmvhePbtv3Ljx7nvu5fKXX2a+99673GI3QysDhnI8CwCh/17U5EL8nR09dvS662/ARVrySq+/4cYGDc4vUiTJlKVRo8YMMjBxPKwmjRoiwNKlSyCMeHlEMMigXr37oHUoewmxkdncOXOoDnlaNL8Iiz9GSNhASkCnEmFEtpaXtpIAb862rVvr1q23c9fOZ555Hus54hckEHyEV65ciYqQJE5+hhm/9eabJN6ujeXSUlRAh4Otjz/53I6WvLG8CTSBWans/Fi+fPmH+z2UvPyAjtGJg/fj8c9nPO9azvL186PHwa2IVrI1pPrhu8/q1TXTDI7UFJblbvrPzHmw7MB99axfv69YoXyhQgVLlCh2xuyyiks72c6de54cPII0uD367JN3YVIkfXS0WVnZ6VNCZHrFqFa1imSZv2DRTTdeK+GzeEYxgV3AH+zzAOQUZ/7QI/jfPfcD6YKFi//77wgel7zEs8/OKz6dl+kBv2jRc1F5YAHP35Yt2ytVSvWXy1YaE5uC6rG9m/7A19/8CKGJ1+oH+9xPLnx4T3rjncX/LPnyq+/Qp2DzuORF7d27/8OPPl+9Zu3x4ydq1azerFmT9z/45KUxz6TobCt5do3JHAJw0GzdBRVi/XnddXc3nLU3bFif3fQoE59BuGPHWpAwLxJbksGYMAShIvfRxx59YV5y3FHjF79ChbKL/1k68bU3RRhmAtPeu7zNFZfjgp0YvD7LHmGYZMLgwHfP+OnXGDPbNG8puSpXqtikyYU4KCBx/359uIsRGbd4c6RAOY8e83KP7l1em/CiXOKXeuKrL4pR2FXXdMR5EI7Dduzc9cWX37KIm/PHT+XLez5Zkf7POfMkFzIjg0xmJMZ9pnu+/8FndtR191bC9js6hXTp9iC7SYrl5mMD+877az7E1mWXtZBRunbtGjdcf+0ff857793JbOvmrkLD2Y2Ab78tsZb2x3EiKkb/sgGBP/78i62O3CQI5lQTX3/j7/mLpXYCbI5j31FWqhs2bT12IpqMrKAknqXFRx9/tmv3/v0Hj/zy2++NmzSReKy0vv7me7yrSFF2YcPKhDLFI69NDI3CzkrbduyWxPi0TsPiBn9GFpwjx6LuuutuqZEsLPZwUitGFqwqd+89aFMitm0ITbbxyQN79/9nW42EXNo0+w4cFqsNKeqF0S8igNw9cOioyMyIb9PjRInInbv22RgNnHUE3nv/I/smnDFgXzYvVpG3jnd74mseLolyIDJoGl5gkpe5cfM29ilLHn/85GlBY8Wqtc+/MIYEvC30QfqOXcBLrk8+/cKNm3jssgXyTuKFhxdeSoDZRDxJz2tpu6rcHfn0M9SLtDY7fuIzJ8bMX2cjqi2HAP1l1u9z3KImD/fo2dudxR2WxEJvueNpEbfE2NMdT8MlC2IwwtjxRNLAwTFSeQnwxZfflHMRWGSZ8fOvpEleKYV4wS5Fzf5jLoOeFQPZKEGoKB4fD44yd+85YOul+1t9IslFFvcoISmhk2QAkTTwbmvXb5JbjLpSI4/YDji2fBsgmZVKAnbkwW7X6xZF2YxdupolCpug2Zjf/zBzRICyMQEeOHkqxh9TkeAuM+50fMyhYP97562J8uredutNyduCTZbc3b1j7eGDRnOQg9WUO6Xddf7Y4Z3u+IP7NjvJzcbn7vgdW1enGP/NV+aHAx7nwN5N7vQphj/64G0p5Kmhj7sTUJfEb9u80sb/+L3n44FXG2kIiS9u1tSmJJB+McSHNyVQzvEju9yFEMZ7SK+e3bwik19CWonArCqT3/32a8+P6bSpk9x3P/loiuRyx/MgkOTQ/i3ulDN+9HytwaOKjb/nbo/+gjvS3k2tUptg+5ZVUjuWgDaSAMJI/Ifvv+WOv+nGDhKPIxV3POHZv/3A3f8ObJV4nj4pWbd7JZNLXgw0pKa+8/qJo7tTTOCOJLGU9tsv39n4eXN+FkmoIvkjAyt5JTDZe+bpoaSRxFs2LrclaMAfCLDrnECd/CzV3dzxeq9bKMpxi87rFU9RcacPekVyOWTwQCv5qJFD3AnoDjgbmjwpcW55X6e7JPGGtf9CEZKYF4OdyyAcxUbVZv/qiw9ssQT+mD3dbqUnaZCTt86dhvAP33k+cyKt1y33pe3mUhSukexdeoGVQQL9H+5t70qv5wWOjT5AJIAgFca8NoEGzhoCscd9OO0Jpyyv98Anl6ei4+L8U7JPxAuZQho2qCuf671aBLXBUorIAvm8lcVQixj42BMlinm8otiMLLzLV6jA7uA2RgLf/TBDtAM2bFh/2y0d+fwu8Sw/WGA3v6TFZZdeYiMXLlrCl3M+/vz9919vTX4DrQ2WRqVKl8IGBE6ar/G2cJZDbIJmLye/8frTI0dYxQTi4YlGj3nJnYZIVA/4IzBl6nu33e6ZhdhCbKD/w31ff22CvWT5N+qZ5+Sy+/1dp02bam8R+PSzL6/tcJ3EDHtqCPZlnTp1ljX8rl07q1WpyNILLQl3Fg0HKQK4lVm9evU5Rc7hLbUmkLyZKKYVLVbUulHPaOtw/oIqDbkgYe/t1NmWTMxnn36CihyBPg/2hZF0l4zrn5WrVsbExFQyR2VuoaJCXi/9EclC79u0aVPlypXRALL+v+gvu3ftLl+hvCgPZk4MykczZcWK5agTly1btlqWXcWLwBk903ZsSfjkDiyr16xGGBpbvnyFFNEAtMWLF+XNkxeNKi/FyXTWy5e3NatX7z+wv1zZcrVq1wZSyqSuNOxZkJD3ZN/+faVLlcbzVIopMctdvnwZIlWsWNGtWYlUaDFs2LChVq1a9vGlU9T0JGvTuhXaVXwwwFe6pEdp64Lz65UrV37dhs3pKeGsp4mICM+bO+KsixFgAsSFxR4JMJEyLM7Yca/1H/Ak2VhuzZvzkzs/n7gbX9Sar+hERh3fHRsbX7CI52P46hULatWqTjzeLtq0vZ7P7IRhf+RbvRSCO5iyFWoTxlvHJx+9I5GcsV+rVvMCAnhZ/vB9z9d+LtH7uLGjGY05WNKwIxXKRKg4Fy9erPnFTXEWa+1ESICODNtXS8rlS+bKQISVB9/wTX4SzJ1pN+Sa+cvstleZr26wBju3rZLBgd2su97fh0hWfRvWJqqXZkiMB3r0m/ymmbHg5OiD996yOkooewILPkSGDhnI3TSOt95+r9sDD5KAJeiiBbO8Un72+Te33m6+N6Ck0LNHF3t32nsf33tfDy4nvTbugfs9HyS63v/g2++8x4r3nbdetQMgbps7d+1Fw3dtX20Ht8efHI4rE7K/NuGlHt0722IlYCtN8S5pGI1z5zNsDseu7WtKly5JYNOmra1aX4NpG+HRz48c8IjBVo7lK1bLZkxcwsFd1+EqiUcNpOnFrdndjNdD9Lmw6BF9jWVL5rm3QpP0WPp8/8MMwk8+8ciokYMlMsUzS6c77urK7ubsRYWnYXea9h1uE+MdGKsxLyQqvB8+fLRmncZosvw975eLmjYiy5KlKy5o1JIAJFHFiuXchWg42BHYvXsvjucZXnjN7JzwxImoNWvXFSvKDME8bnTKUGgiQEfo0vl/NhkxeBTCXoxAv749x75oWCT3cfTo8WXLV5w+HVOubBm7EaQ7AWEcFWE3V7lyBa94n1zSQ8tVrMvL/Ofv01tc0kwGQLjyq68yuuR6nE0EwvOFReTzlQD+IomiT8fFxvmFfvJVy7WcTCDAuLBq5UqWSdi2uOkbtpE6dvQYvjDYhYdi+/Tu+fZbk/mo/vGnX2C/Y5d5zAhhYV4eP5Y06C659SNEmL1796xdu5Z5BpsKlSpVOkUJ8RbETM6tCJBissxFrl69qtEFDciLwhFrPHyI4GsW9ahixYpnrkDNFfII8FZXqlAGngW1F3Rwkre3RrXK0KOWeUyewCcxASKGT9qihWQUgXp1amL+hgEalneSN+hIosjI8Dy5lCRK9uQNSRSXLDY4IuBZli9fhaMKa+LBgqfZRU2YJ0C5bt689b33P166bIU0hu+uBHDJgc0CAYgVaJEdO3axDudTOfYORLa9svU9d9+O05/ixYuywJ767gdjx02U7HAcHa69Ggrp3yXL33p72muvvyXx7055/ap2bUqWNL/gUM84+8A+SG55neFQMEMrnOA4ltlOrbpNMaQiGYzS/+689d8ly8gLGyLNgR14qE93LIww5Th48L/K1RoIk4XyS8uWFy9YsBiZ2X9dDFj4ns9S6o7bDcGUITEgwnB1JLwGmLS/pl2pkiV+m/UHpjHoNE2eNN7Or7yaAys9Z+78TZu2PDX8GSFWSACbhsbEJc2bYS9z8uSpJUuXDRo8kqK4hVLAqy+PuaxVC9ifpcuWP/b4MNmxi2a+Mv6Fli2aw0/1fvBRMbG5tv1VkFNYw82dN3/AwMG0EX2x+zrdaWUQDksu0WAqUaL4tm07pv/w2alTp92V0qLnnhnWoH5dzFVsXgl0e+AhniNhNCz69e116NB/r054AyFtW9DEQbPJGpcNH/H8sBGeb4GQg5SJbDA+vDPffPWBNbexySiWVsAclSpVQqgcvm5G5vGYH2Ix9Nsv33qJZC/ZzW3osFHy7vFy/jrz20IJe4QfP34S0k1IItKPffHZPr27CT8ljADaFr/P+kGKgmmKyF2UsJJEFtucE2DOVrJMDQaN5Oy5gFChcj3edtz2vzX5lQCEZdCQp595Fma568RXx1zd/hZ8PP27+I/UhqMAlD9kRYooGBae21et8xdJFBMbfzomWGc2vgI3Z5azeNGili2a0XZ2JmKvcS8QUOWo4liMY5tmrcy80pzdy0tbXoyDD77Jo41VrUqF+zp3FTOisyuV1h6wCOA6unQpM7PECOulseO95DTfW8qUgEKaMPH1zl3MJyM/HQEihp9ap8WmjQBesefM+XPc+Fce6N5TUuL9uvnFTcoFjyZR7lwRuSLD025mTrwbdzws/nSQNrxazQuFZDmj/Cz+t202bBGuQ27oeJfoFnFJPDYaMBTNLmljI0UHJDzXeV7FQsSMGPZk0RKVveJfeG7EowOMKg17peMsBlKDhRmGFTimYZ22b99+IXdI8HC/Xi+NGWWz/z1/0fU33mkZLuiSN14fD++ArxAoBogPNAJ+nvEVHl7Jgg+a2+/sbIti4Ydt1JGjR9knXiJhl/bsXJsJMWBz2DALRswWTiGPDezH7tpu1ScrtgRwk1SuolGzSn7gZbn/w72WLlvZ8EJvzfFPP56aP38+aCmvXNizsKN8/wGD3v/gUwgUmDubgHaNH/uc8F82EmA7d+3zUYIzF+LxrsJikm2SklcKB7diqceFii0BRYxbbutkt5YHcJ5juXJlr7/RqJDzYpQsUWL8uOdltim5vvl2+v3dH7LPi8j7u3WisZb4I2bduo2du/a2xVLOoCcGWF2nYSOeH+4wTR+89+add9wsxSY/P9j3MRgrG4/tmN1mjsKnTP3A3iLw9ZcfXn/d1QSEn5JFtU1Q5LwKPFYliSwgOSeAZtm5xSrSXgauV8Y/79Vwpo5FS1Th3WDM8cnei17lZ/1y9ep1depfRMeEJG3arDWWa7fe4vlGlfXCtYTMIxBZJCzMZ9/b/EUSYWx26rSSRJl/ysGbE5/Q+HVDfuzX7P7NtjnLli5tdpHRs1387zLrvtreDYQA+yvhPReG6NprOzzYp9eadRszbYUUCM1RGbIBAXaVYvdxKvpp5m+4UrY1YtP02MABuNDGhc3s3+eIR2F71+eBABHD5+3SAs+IQL++D+J8HadOvIHyKW/E8KfYLy+ISCJszbA4O2NLc1yCuKiw+Kgc1WpWRytWroG7qVunttu4DGujo8eOVa9W1ZpcZQgW2AGMfciCAg7GSm4/wf/8u+zq9jdDLiRnKyBoVq1es3//AeiJOrVr8I4iHl3MGlu5ZRAbkNjYuIbn1xcPr9wl/Zq1GyIjImrUqEquzIlBOWidYEa3ecvWIkUK16pZw5bvFsDfYdqCug1GMcCyYuWqI0eOYu3CntmpcVXbt+/asnUrmy6huJRamjRkxnUucG3dth17wNq1avLcqR0Z3FY5ybOje7V+wyaeUZ3aNYsV82YSJT3maewDULFChdKlS1gTObm1Y8fu3LlziepZ8sKzEtOz9yOvT3rbi4hUkigrkAZ73oYXthRVSjxntbq0uW0O/QsTXd4WiOm/5sx0D1Y2TSAE2JWSPQegibHbxehSNOYCQbAcLENEmCGJfHb4iyRCwJOnYn0mphYUPAgcOLC/QjljKYYn2q+//R6vIlZ21IhuuvE69n7COzWaRIGpl4hLlLJljDE85nIdO97i5WDYtkUDioBFYNWqVVe3ayMetTA6O7/hBeecc86unTu//fZrdIiubNvulVcnitchm8UfgQARwx9N0zLTRmDlihVNGjckDUPrle3azfr1V/G8Vi54NIny541Mu4059C5qRCgT6ZFlBNAJYsNmisHddfJFV/eeD78xeYpV9slybakWECBipCqf3vAbAiNGvvDU8Gfd/rPU3MxvYAdHwWy41rrNdaL7hu7hBRc0wIfRzp272RYDHSLsZF+fONZPToV8ApD1dxaw6k4+aWYwFYKhGeZmvjv8SBKhSYQ+ke9E1ZKCBgH2k777f0YlmAOVnKpVq0Ewb9y4gX2jiWE7cDz4WhNxJ1Vgnbp27vThh+8j06J/lsnO4oEln0oTeAjgAOLPP/+YMf1HfGbBM+YvUAAFtPLly195ZbsG55+fbfIGiBjZ1l6tyCLw1ZdfdH+gK6QkMYy6bO947TXtgoUkUq/V9jkmC8SHxR5OFqkRGUZAPBbzZd7LzbAU1PGWe7BEw8fN+9MSzYgyXEc6MgSIGOmQVJP4GIFPP/v6tjvuo1C2hzv3XPO13/pBV3MzH2MdPMUxZ2Mr0h9+/An/azjeKlAgf0U03MqXa9fuiobn1wvwduAbG/NeLM727FyfP3/eAJc2R4gXkT8s3JcPwo8kET6J8EyUI56KNjIZAqyTf/75p9mzZ+3fvw9vKcWKF6/IRkQVK95w402lS5dJljywIn799ZcO7a/CrzbetQNLMpVGEVAEFIFUEOC7NBxl/vz5ixYtFlyOq9UhUSqP1ImOOxYWH5NWAr2XDgQGDBzy4kuvkpA9znv17GrtxfiYOfXdj7p0682txQt/v9DZuSId5WUySYCIkUnpNVsWEMBZe8UqDVAbwdd1r57dNm3eMnbcBPEzpSRRFnDVrGcTAXgixtKzYv16NpsdsHVHFA4L96VSth9JInVLFLBvkQqWNgLMGg8dOligQEGWW2mn1LuKgCKgCAQgArJRY7BoEuXNgy6ROiRK5T2KPxUWdzKVexqdXgSOHDnW4frb7NZpbDJVunQpnA0Rw+ZcaBixC/UVrRM9yqW33AymCxAxMii1JvcNAvhCwru5uGDnlZv6zmvtrr5JHVf7BlwtRRHI6QhEhkWaXRR8ePiRJELKqOjYeNUl8uHj0qIUAUVAEVAEFIEzIfD1V1/eecetpNqybWeJEiXPlPxs3ocdypfHl9++zmZj/FF3fGxYnLEi1COLCKBqh4/qb7/9ce26DVh2UFqFCuWw7GjS5MJ2bVt7OTDOYl1pZA8QMdKQUG/5FYH9+w9GRZ0qV640fjnVcbVfodbCFYEchACGZpib+fTwL0mkFmc+fVhamCKgCCgCioAicAYELENEOhzwb9m2K5B9wLHzPeZmZ2hSDr+tFmc5/AXQ5ocoAkISbVq/NJD9E4co9tosRSC0EIgoFBaey7dN8nFxXsJFRoarWyIvTPRSEVAEFAFFQBHwHwK4fjsRFTRebJgn+A+KECmZLUvULVGIPEtthiLgQWDnzj3ik2jFylVKEulroQgoAllAINLnDBHC+FeTiAp0j7MsPHLNqggoAoqAIqAIhCwCuq9Z+h5tXFjskfSl1FSKgCIQBAjs2LG7fKU6VtA5f8y4pPlF9lIDioAioAhkAAFf72smVfudJEKTCKOzDLRTkyoCioAioAgoAopADkAgT64I1SRK13OOOxEWH52ulJpIEVAEFAFFQBFQBHIOApFFwsJ8b7bv+xK9ngjuBnTTEi9M9FIRUAQUAUVAEcjhCDA3UIYove9AeJ70ptR0ioAioAgoAoqAIpBDEMBltR8YIsDzO0lEHbkis6OWHPImaDMVAUVAEVAEFIEQQEDnBhl4iDikxDORHoqAIqAIKAKKgCKgCFgE/PYNKTvoG6NMZFuiAUVAEVAEFAFFQBHI2QgwLWBukLMxyGDrzddCPRQBRUARUAQUAUVAEXAQgCEKj/QTFtlBEiF6Lt3g1k8PUItVBBQBRUARUASCDQFVI8rwE1NlogxDphkUAUVAEVAEFIHQRcCfX4+yiyRSz0Sh+35qyxQBRUARUAQUgfQjoGpE6ccqSUp/TgeTVKQXioAioAgoAoqAIhDICDAl8JsaEe3OJpKImnKrZ6JAfs9UNkVAEVAEFAFFIFsQyK3KxZnD2SgTqdFZ5rDTXIqAIqAIKAKKQMggEBEWkc+vjck+kohNTCIj1AGBX5+mFq4IKAKKgCKgCAQ0AswEdDKQ+SdkJoXZN3PLvJyaUxFQBBQBRUARUAT8hEAEX4z8y6tk61RDPx766T3RYhUBRUARUAQUgaBAQGcCWXtM4f7+eJg18TS3IqAIKAKKgCKgCPgTAXY79b9acbaSRLgh0NmhP18ZLVsRUAQUAUVAEQhcBJgD6HanWX08ZjeTPFktRPMrAoqAIqAIKAKKQDAiEO5fQzOBJFtJIqpky1vVMw/Gt1FlVgQUAUVAEVAEsoIAv/667X1WAEzMG5E/LMxfu94m1qIhRUARUAQUAUVAEQgoBCIK+NVftW1rdpNEVJw7t35ItPhrQBFQBBQBRUARCH0EUCDKk/ssTDlCFFmMzuCJ9FAEFAFFQBFQBBSBHIOA2dEsm1SJz8KMDSdLeXRnkxzzMmtDFQFFQBFQBBQB/d338TvATmfKE/kYUy1OEVAEFAFFQBEIVASy93f/LJBEAB8REa7zxUB9AVUuRUARUAQUAUXAlwjwi8/vvi9L1LJAwHxRZH8TPRQBRUARUAQUAUUgtBFgz/sC2dnCs0MS0cLIyHB1Yp2dT1rrUgQUAUVAEVAEsh8Bfuv5xc/+enNEjSgTZZfmeY7AUxupCCgCioAioAgEIAKGIcpW3iZbK/MCHAeW6sPSCxO9VAQUAUVAEVAEQgYB/aH3+6M0Pixz+70WrUARUAQUAUVAEVAEzgoCEQXDsDXL3uNskkS0lA+MyhNl7xPX2hQBRUARUAQUgexAgN93VRnODqCVJ8oOlLUORUARUAQUAUUg2xEwDNFZ+BR0lkkiYFaeKNvfNa1QEVAEFAFFQBHwLwLKEPkX3ySls9nZ2ZlEJpFCLxQBRUARUAQUAUXAhwicvR/38Pj4eB82JNNFxcTGn46Jy3R2zagIKAKKgCKgCCgCAYKAfv45Ow8i7kRYfPTZqVprVQQUAUVAEVAEFAGfIeB4qs52KzMrfqCQRAgUGxsfrTyRfTIaUAQUAUVAEVAEghCBPLkjInUvs7P14OKiwuKjzlblWq8ioAgoAoqAIqAIZBUBs9t9dnuq9pI5gEgiJIuLMzxRYOg2eQGll4qAIqAIKAKKgCKQFgLh4WG6231aAGXPPZSJUCnSQxFQBBQBRUARUASCDgE2LTUM0Vk+AoskEjCiT8fFxgWEEdxZfjhavSKgCCgCioAiECQIsM89DFGQCBvqYsbHhsWfDIuPCfV2avsUAUVAEVAEFIEQQiAif1h43kBoTyCSROCiLooC4eVQGRQBRUARUAQUgfQgoE6I0oNSdqeJgyc6ld2Van2KgCKgCCgCioAikFEEMDELhyGKzGg+P6UPUJKI1mJ0hitrVSny04P/f3v3tps4DEUB1Fymmv//22khmW08QpUQGbUUYScLIYqAgrN8HqKtY8fXEiBAgACBxwWy/VASoiw0c+tRIM1E2aJIS1GPc2NMBAgQIEDgItBNA9F1PvoNidoQExKdTrNtiq4T5gkBAgQIEOhBIMnQ8bizR3UPc/GfMaSfKF1FbgQIECBAgEBXAnUHot+ldLdav/eQqE1iVp+dEhfZp6irmjYYAgQIENikQPqGjof98aB9aKDpn8v0x4XPBpowQyVAgACBNQvsftXth153kftl2zFConYMoqLlufQuAQIECBB4qoB46Km8z//yqUzvoqLnO/sFAgQIECBwR6DveKgNeqSQqI04HUXn82yvojtF52UCBAgQIPDzAllWluuXWVz287Iv+Ma5zO9l+shlQl7w436SAAECBAhsU6C2Dr31szv1wiSMFxK1g8nSs5YWWYS2MLveIkCAAAECjwhk46GWDdma+hHGTv+3bmv9cdnW+tzpCA2LAAECBAiMLlBbh3J/G+g4Rg2JrsQtLZqmurm1TYuuLJ4QIECAAIHvCSQPSja0T+tQ/th36HuIY/3XfK5pUWmPYw3daAkQIECAQIcCh7rfULuX8c6lhg+JPldEzYmy3P6SFsmMPst4ToAAAQIE7gm0VOjf474mRPc+6fX1CyQwqmlRHqeSk6o8dyNAgAABAgSWBPZllyuU5Z5sKM8PHV6wbGn4N++tKiS6ObrSeotai5Fro936eIUAAQIENijQQqDWJiQR2mABfPGQkxa1cyhnUl+U83ECBAgQWLPArtSzqHZf1XGuPCRa1Vw5GAIECBAgQIAAAQIECBAgQIDA0wTSE+VGgAABAgQIECBAgAABAgQIECCwdQEh0dYrwPETIECAAAECBAgQIECAAAECBCIgJFIGBAgQIECAAAECBAgQIECAAAECQiI1QIAAAQIECBAgQIAAAQIECBAgoJNIDRAgQIAAAQIECBAgQIAAAQIECETAcjNlQIAAAQIECBAgQIAAAQIECBAgICRSAwQIECBAgAABAgQIECBAgAABAjqJ1AABAgQIECBAgAABAgQIECBAgEAELDdTBgQIECBAgAABAgQIECBAgAABAkIiNUCAAAECBAgQIECAAAECBAgQIKCTSA0QIECAAAECBAgQIECAAAECBAhEwHIzZUCAAAECBAgQIECAAAECBAgQICAkUgMECBAgQIAAAQIECBAgQIAAAQI6idQAAQIECBAgQIAAAQIECBAgQIBABCw3UwYECBAgQIAAAQIECBAgQIAAAQJCIjVAgAABAgQIECBAgAABAgQIECCgk0gNECBAgAABAgQIECBAgAABAgQIRMByM2VAgAABAgQIECBAgAABAgQIECAgJFIDBAgQIECAAAECBAgQIECAAAECOonUAAECBAgQIECAAAECBAgQIECAQAQsN1MGBAgQIECAAAECBAgQIECAAAECQiI1QIAAAQIECBAgQIAAAQIECBAgoJNIDRAgQIAAAQIECBAgQIAAAQIECETAcjNlQIAAAQIECBAgQIAAAQIECBAgICRSAwQIECBAgAABAgQIECBAgAABAjqJ1AABAgQIECBAgAABAgQIECBAgEAE/gKke/V/ImonfAAAAABJRU5ErkJggg==;" parent="1" vertex="1">
          <mxGeometry x="20" y="171.42" width="765.63" height="328.58" as="geometry" />
        </mxCell>
        <mxCell id="g1RQVTj2QAO9UJIALjth-3" value="" style="endArrow=classic;html=1;rounded=0;entryX=0.5;entryY=1;entryDx=0;entryDy=0;strokeWidth=2;endSize=4;" edge="1" parent="1" target="g1RQVTj2QAO9UJIALjth-2">
          <mxGeometry width="50" height="50" relative="1" as="geometry">
            <mxPoint x="127.68" y="320" as="sourcePoint" />
            <mxPoint x="127.68" y="140" as="targetPoint" />
          </mxGeometry>
        </mxCell>
        <mxCell id="STuEv-9gv8D8HQvSWGIb-2" value="&lt;b&gt;Attn + MLP&lt;/b&gt;" style="rounded=1;whiteSpace=wrap;html=1;fillColor=#dae8fc;strokeColor=none;shadow=1;" parent="1" vertex="1">
          <mxGeometry x="68" y="377" width="120" height="25.71" as="geometry" />
        </mxCell>
        <mxCell id="STuEv-9gv8D8HQvSWGIb-3" value="&lt;b&gt;Attn + MLP&lt;/b&gt;" style="rounded=1;whiteSpace=wrap;html=1;fillColor=#f5f5f5;strokeColor=none;fontColor=#333333;shadow=1;" parent="1" vertex="1">
          <mxGeometry x="220" y="279" width="120" height="25.71" as="geometry" />
        </mxCell>
        <mxCell id="STuEv-9gv8D8HQvSWGIb-4" value="&lt;b&gt;Attn + MLP&lt;/b&gt;" style="rounded=1;whiteSpace=wrap;html=1;fillColor=#f5f5f5;strokeColor=none;fontColor=#333333;shadow=1;" parent="1" vertex="1">
          <mxGeometry x="220" y="377" width="120" height="25.71" as="geometry" />
        </mxCell>
        <mxCell id="STuEv-9gv8D8HQvSWGIb-5" value="&lt;b&gt;Attn + MLP&lt;/b&gt;" style="rounded=1;whiteSpace=wrap;html=1;fillColor=#f5f5f5;strokeColor=none;fontColor=#333333;shadow=1;" parent="1" vertex="1">
          <mxGeometry x="466" y="377" width="120" height="25.71" as="geometry" />
        </mxCell>
        <mxCell id="STuEv-9gv8D8HQvSWGIb-6" value="&lt;b&gt;Attn + MLP&lt;/b&gt;" style="rounded=1;whiteSpace=wrap;html=1;fillColor=light-dark(#dae8fc, #281d00);strokeColor=none;shadow=1;" parent="1" vertex="1">
          <mxGeometry x="620" y="377" width="120" height="25.71" as="geometry" />
        </mxCell>
        <mxCell id="g1RQVTj2QAO9UJIALjth-1" value="&lt;b&gt;Attn + MLP&lt;/b&gt;" style="rounded=1;whiteSpace=wrap;html=1;fillColor=#dae8fc;strokeColor=none;shadow=1;" vertex="1" parent="1">
          <mxGeometry x="68" y="281" width="120" height="25.71" as="geometry" />
        </mxCell>
        <mxCell id="g1RQVTj2QAO9UJIALjth-2" value="&lt;font style=&quot;font-size: 14px;&quot;&gt;Und. Decoder&lt;/font&gt;" style="rounded=1;whiteSpace=wrap;html=1;fillColor=#dae8fc;strokeColor=none;shadow=1;" vertex="1" parent="1">
          <mxGeometry x="64" y="240" width="128" height="28" as="geometry" />
        </mxCell>
        <mxCell id="g1RQVTj2QAO9UJIALjth-4" value="" style="endArrow=none;html=1;rounded=0;strokeWidth=2;strokeColor=#FF0000;" edge="1" parent="1">
          <mxGeometry width="50" height="50" relative="1" as="geometry">
            <mxPoint x="99" y="399" as="sourcePoint" />
            <mxPoint x="99" y="409" as="targetPoint" />
          </mxGeometry>
        </mxCell>
        <mxCell id="g1RQVTj2QAO9UJIALjth-5" value="" style="endArrow=none;html=1;rounded=0;strokeWidth=2;strokeColor=#FF0000;" edge="1" parent="1">
          <mxGeometry width="50" height="50" relative="1" as="geometry">
            <mxPoint x="104" y="399" as="sourcePoint" />
            <mxPoint x="104" y="409" as="targetPoint" />
          </mxGeometry>
        </mxCell>
        <mxCell id="g1RQVTj2QAO9UJIALjth-6" value="" style="endArrow=none;html=1;rounded=0;strokeWidth=2;strokeColor=#FF0000;" edge="1" parent="1">
          <mxGeometry width="50" height="50" relative="1" as="geometry">
            <mxPoint x="113" y="399" as="sourcePoint" />
            <mxPoint x="113" y="409" as="targetPoint" />
          </mxGeometry>
        </mxCell>
        <mxCell id="g1RQVTj2QAO9UJIALjth-7" value="" style="endArrow=none;html=1;rounded=0;strokeWidth=2;strokeColor=#FF0000;" edge="1" parent="1">
          <mxGeometry width="50" height="50" relative="1" as="geometry">
            <mxPoint x="116" y="399" as="sourcePoint" />
            <mxPoint x="116" y="409" as="targetPoint" />
          </mxGeometry>
        </mxCell>
        <mxCell id="g1RQVTj2QAO9UJIALjth-8" value="" style="endArrow=none;html=1;rounded=0;strokeWidth=2;strokeColor=#FF0000;" edge="1" parent="1">
          <mxGeometry width="50" height="50" relative="1" as="geometry">
            <mxPoint x="119" y="399" as="sourcePoint" />
            <mxPoint x="119" y="409" as="targetPoint" />
          </mxGeometry>
        </mxCell>
        <mxCell id="g1RQVTj2QAO9UJIALjth-9" value="" style="endArrow=none;html=1;rounded=0;strokeWidth=2;strokeColor=#FF0000;" edge="1" parent="1">
          <mxGeometry width="50" height="50" relative="1" as="geometry">
            <mxPoint x="126" y="399" as="sourcePoint" />
            <mxPoint x="126" y="409" as="targetPoint" />
          </mxGeometry>
        </mxCell>
        <mxCell id="g1RQVTj2QAO9UJIALjth-10" value="" style="endArrow=none;html=1;rounded=0;strokeWidth=2;strokeColor=#FF0000;" edge="1" parent="1">
          <mxGeometry width="50" height="50" relative="1" as="geometry">
            <mxPoint x="129" y="399" as="sourcePoint" />
            <mxPoint x="129" y="409" as="targetPoint" />
          </mxGeometry>
        </mxCell>
        <mxCell id="g1RQVTj2QAO9UJIALjth-11" value="" style="endArrow=none;html=1;rounded=0;strokeWidth=2;strokeColor=#FF0000;" edge="1" parent="1">
          <mxGeometry width="50" height="50" relative="1" as="geometry">
            <mxPoint x="135" y="399" as="sourcePoint" />
            <mxPoint x="135" y="409" as="targetPoint" />
          </mxGeometry>
        </mxCell>
        <mxCell id="g1RQVTj2QAO9UJIALjth-12" value="" style="endArrow=none;html=1;rounded=0;strokeWidth=2;strokeColor=#FF0000;" edge="1" parent="1">
          <mxGeometry width="50" height="50" relative="1" as="geometry">
            <mxPoint x="144" y="399" as="sourcePoint" />
            <mxPoint x="144" y="409" as="targetPoint" />
          </mxGeometry>
        </mxCell>
        <mxCell id="g1RQVTj2QAO9UJIALjth-13" value="" style="endArrow=none;html=1;rounded=0;strokeWidth=2;strokeColor=#FF0000;" edge="1" parent="1">
          <mxGeometry width="50" height="50" relative="1" as="geometry">
            <mxPoint x="149.86" y="399" as="sourcePoint" />
            <mxPoint x="149.86" y="409" as="targetPoint" />
          </mxGeometry>
        </mxCell>
        <mxCell id="g1RQVTj2QAO9UJIALjth-14" value="" style="endArrow=none;html=1;rounded=0;strokeWidth=2;strokeColor=#FF0000;" edge="1" parent="1">
          <mxGeometry width="50" height="50" relative="1" as="geometry">
            <mxPoint x="152.83" y="399" as="sourcePoint" />
            <mxPoint x="152.83" y="409" as="targetPoint" />
          </mxGeometry>
        </mxCell>
        <mxCell id="g1RQVTj2QAO9UJIALjth-15" value="" style="endArrow=none;html=1;rounded=0;strokeWidth=2;strokeColor=#FF0000;" edge="1" parent="1">
          <mxGeometry width="50" height="50" relative="1" as="geometry">
            <mxPoint x="156" y="399" as="sourcePoint" />
            <mxPoint x="156" y="409" as="targetPoint" />
          </mxGeometry>
        </mxCell>
        <mxCell id="g1RQVTj2QAO9UJIALjth-16" value="" style="endArrow=none;html=1;rounded=0;strokeWidth=2;strokeColor=#FF0000;" edge="1" parent="1">
          <mxGeometry width="50" height="50" relative="1" as="geometry">
            <mxPoint x="159" y="399" as="sourcePoint" />
            <mxPoint x="159" y="409" as="targetPoint" />
          </mxGeometry>
        </mxCell>
        <mxCell id="g1RQVTj2QAO9UJIALjth-17" value="&lt;font style=&quot;color: rgb(255, 0, 0);&quot;&gt;Masking&lt;/font&gt;" style="text;html=1;align=center;verticalAlign=middle;whiteSpace=wrap;rounded=0;rotation=-90;fontSize=13;" vertex="1" parent="1">
          <mxGeometry x="32" y="402.71" width="30" height="10" as="geometry" />
        </mxCell>
        <mxCell id="g1RQVTj2QAO9UJIALjth-18" value="&lt;font style=&quot;font-size: 14px;&quot;&gt;Mask tokens&lt;/font&gt;" style="rounded=1;whiteSpace=wrap;html=1;fillColor=light-dark(#dae8fc, #281d00);strokeColor=none;shadow=1;" vertex="1" parent="1">
          <mxGeometry x="612" y="406.71" width="138" height="33.29" as="geometry" />
        </mxCell>
        <mxCell id="g1RQVTj2QAO9UJIALjth-19" value="(multi-scale)" style="text;html=1;align=center;verticalAlign=middle;whiteSpace=wrap;rounded=0;" vertex="1" parent="1">
          <mxGeometry x="90" y="460" width="70" height="30" as="geometry" />
        </mxCell>
        <mxCell id="g1RQVTj2QAO9UJIALjth-21" value="" style="rounded=0;whiteSpace=wrap;html=1;strokeColor=none;fillColor=light-dark(#fffcef, #ededed);" vertex="1" parent="1">
          <mxGeometry x="635" y="450" width="90" height="30" as="geometry" />
        </mxCell>
        <mxCell id="g1RQVTj2QAO9UJIALjth-22" value="&lt;font style=&quot;font-size: 14px;&quot;&gt;Diffusion model&lt;/font&gt;" style="rounded=1;whiteSpace=wrap;html=1;fillColor=#fff2cc;strokeColor=none;shadow=1;" vertex="1" parent="1">
          <mxGeometry x="612" y="234.70999999999998" width="138" height="33.29" as="geometry" />
        </mxCell>
      </root>
    </mxGraphModel>
  </diagram>
</mxfile>
